ISO-10303-21;
HEADER;
/* Generated by software containing ST-Developer
 * from STEP Tools, Inc. (www.steptools.com) 
 */

FILE_DESCRIPTION(
/* description */ ('STEP AP214'),
/* implementation_level */ '2;1');

FILE_NAME(
/* name */ 'USON-8-1EP_3x4mm_P0.8mm_EP0.2x0.8mm.step',
/* time_stamp */ '2026-10-07T02:14:06+01:00',
/* author */ (''),
/* organization */ (''),
/* preprocessor_version */ 'ST-DEVELOPER v20.2',
/* originating_system */ 'Autodesk Translation Framework v15.15.0.0',
/* authorisation */ '');

FILE_SCHEMA (('AUTOMOTIVE_DESIGN { 1 0 10303 214 3 1 1 }'));
ENDSEC;

DATA;
#10=MECHANICAL_DESIGN_GEOMETRIC_PRESENTATION_REPRESENTATION('',(#17,#18,
#19,#20,#21,#22,#23,#24,#25,#26,#27,#28),#1822);
#11=ITEM_DEFINED_TRANSFORMATION($,$,#1114,#1206);
#12=(
REPRESENTATION_RELATIONSHIP($,$,#1833,#1832)
REPRESENTATION_RELATIONSHIP_WITH_TRANSFORMATION(#11)
SHAPE_REPRESENTATION_RELATIONSHIP()
);
#13=CONTEXT_DEPENDENT_SHAPE_REPRESENTATION(#12,#1831);
#14=NEXT_ASSEMBLY_USAGE_OCCURRENCE(
'USON-8-1EP_3x4mm_P0.8mm_EP0.2x0.8mm:1',
'USON-8-1EP_3x4mm_P0.8mm_EP0.2x0.8mm:1',
'USON-8-1EP_3x4mm_P0.8mm_EP0.2x0.8mm:1',#1835,#1836,
'USON-8-1EP_3x4mm_P0.8mm_EP0.2x0.8mm:1');
#15=SHAPE_REPRESENTATION_RELATIONSHIP('SRR','None',#1833,#16);
#16=ADVANCED_BREP_SHAPE_REPRESENTATION('',(#29,#30,#31,#32,#33,#34,#35,
#36,#37,#38,#39,#40),#1821);
#17=STYLED_ITEM('',(#1847),#29);
#18=STYLED_ITEM('',(#1848),#30);
#19=STYLED_ITEM('',(#1849),#31);
#20=STYLED_ITEM('',(#1849),#32);
#21=STYLED_ITEM('',(#1849),#33);
#22=STYLED_ITEM('',(#1849),#34);
#23=STYLED_ITEM('',(#1849),#35);
#24=STYLED_ITEM('',(#1849),#36);
#25=STYLED_ITEM('',(#1849),#37);
#26=STYLED_ITEM('',(#1849),#38);
#27=STYLED_ITEM('',(#1849),#39);
#28=STYLED_ITEM('',(#1849),#40);
#29=MANIFOLD_SOLID_BREP('Body1',#1089);
#30=MANIFOLD_SOLID_BREP('Body2',#1090);
#31=MANIFOLD_SOLID_BREP('Body3',#1091);
#32=MANIFOLD_SOLID_BREP('Body4',#1092);
#33=MANIFOLD_SOLID_BREP('Body5',#1093);
#34=MANIFOLD_SOLID_BREP('Body6',#1094);
#35=MANIFOLD_SOLID_BREP('Body7',#1095);
#36=MANIFOLD_SOLID_BREP('Body8',#1096);
#37=MANIFOLD_SOLID_BREP('Body9',#1097);
#38=MANIFOLD_SOLID_BREP('Body10',#1098);
#39=MANIFOLD_SOLID_BREP('Body11',#1099);
#40=MANIFOLD_SOLID_BREP('Body12',#1100);
#41=FACE_BOUND('',#179,.T.);
#42=PLANE('',#1118);
#43=PLANE('',#1119);
#44=PLANE('',#1120);
#45=PLANE('',#1121);
#46=PLANE('',#1122);
#47=PLANE('',#1123);
#48=PLANE('',#1124);
#49=PLANE('',#1128);
#50=PLANE('',#1129);
#51=PLANE('',#1130);
#52=PLANE('',#1131);
#53=PLANE('',#1133);
#54=PLANE('',#1135);
#55=PLANE('',#1137);
#56=PLANE('',#1138);
#57=PLANE('',#1140);
#58=PLANE('',#1141);
#59=PLANE('',#1143);
#60=PLANE('',#1145);
#61=PLANE('',#1146);
#62=PLANE('',#1147);
#63=PLANE('',#1149);
#64=PLANE('',#1151);
#65=PLANE('',#1153);
#66=PLANE('',#1154);
#67=PLANE('',#1155);
#68=PLANE('',#1156);
#69=PLANE('',#1157);
#70=PLANE('',#1158);
#71=PLANE('',#1159);
#72=PLANE('',#1160);
#73=PLANE('',#1162);
#74=PLANE('',#1163);
#75=PLANE('',#1165);
#76=PLANE('',#1167);
#77=PLANE('',#1168);
#78=PLANE('',#1170);
#79=PLANE('',#1171);
#80=PLANE('',#1173);
#81=PLANE('',#1175);
#82=PLANE('',#1176);
#83=PLANE('',#1178);
#84=PLANE('',#1179);
#85=PLANE('',#1181);
#86=PLANE('',#1183);
#87=PLANE('',#1184);
#88=PLANE('',#1185);
#89=PLANE('',#1187);
#90=PLANE('',#1189);
#91=PLANE('',#1191);
#92=PLANE('',#1192);
#93=PLANE('',#1193);
#94=PLANE('',#1195);
#95=PLANE('',#1197);
#96=PLANE('',#1199);
#97=PLANE('',#1200);
#98=PLANE('',#1201);
#99=PLANE('',#1202);
#100=PLANE('',#1203);
#101=PLANE('',#1204);
#102=PLANE('',#1205);
#103=FACE_OUTER_BOUND('',#174,.T.);
#104=FACE_OUTER_BOUND('',#175,.T.);
#105=FACE_OUTER_BOUND('',#176,.T.);
#106=FACE_OUTER_BOUND('',#177,.T.);
#107=FACE_OUTER_BOUND('',#178,.T.);
#108=FACE_OUTER_BOUND('',#180,.T.);
#109=FACE_OUTER_BOUND('',#181,.T.);
#110=FACE_OUTER_BOUND('',#182,.T.);
#111=FACE_OUTER_BOUND('',#183,.T.);
#112=FACE_OUTER_BOUND('',#184,.T.);
#113=FACE_OUTER_BOUND('',#185,.T.);
#114=FACE_OUTER_BOUND('',#186,.T.);
#115=FACE_OUTER_BOUND('',#187,.T.);
#116=FACE_OUTER_BOUND('',#188,.T.);
#117=FACE_OUTER_BOUND('',#189,.T.);
#118=FACE_OUTER_BOUND('',#190,.T.);
#119=FACE_OUTER_BOUND('',#191,.T.);
#120=FACE_OUTER_BOUND('',#192,.T.);
#121=FACE_OUTER_BOUND('',#193,.T.);
#122=FACE_OUTER_BOUND('',#194,.T.);
#123=FACE_OUTER_BOUND('',#195,.T.);
#124=FACE_OUTER_BOUND('',#196,.T.);
#125=FACE_OUTER_BOUND('',#197,.T.);
#126=FACE_OUTER_BOUND('',#198,.T.);
#127=FACE_OUTER_BOUND('',#199,.T.);
#128=FACE_OUTER_BOUND('',#200,.T.);
#129=FACE_OUTER_BOUND('',#201,.T.);
#130=FACE_OUTER_BOUND('',#202,.T.);
#131=FACE_OUTER_BOUND('',#203,.T.);
#132=FACE_OUTER_BOUND('',#204,.T.);
#133=FACE_OUTER_BOUND('',#205,.T.);
#134=FACE_OUTER_BOUND('',#206,.T.);
#135=FACE_OUTER_BOUND('',#207,.T.);
#136=FACE_OUTER_BOUND('',#208,.T.);
#137=FACE_OUTER_BOUND('',#209,.T.);
#138=FACE_OUTER_BOUND('',#210,.T.);
#139=FACE_OUTER_BOUND('',#211,.T.);
#140=FACE_OUTER_BOUND('',#212,.T.);
#141=FACE_OUTER_BOUND('',#213,.T.);
#142=FACE_OUTER_BOUND('',#214,.T.);
#143=FACE_OUTER_BOUND('',#215,.T.);
#144=FACE_OUTER_BOUND('',#216,.T.);
#145=FACE_OUTER_BOUND('',#217,.T.);
#146=FACE_OUTER_BOUND('',#218,.T.);
#147=FACE_OUTER_BOUND('',#219,.T.);
#148=FACE_OUTER_BOUND('',#220,.T.);
#149=FACE_OUTER_BOUND('',#221,.T.);
#150=FACE_OUTER_BOUND('',#222,.T.);
#151=FACE_OUTER_BOUND('',#223,.T.);
#152=FACE_OUTER_BOUND('',#224,.T.);
#153=FACE_OUTER_BOUND('',#225,.T.);
#154=FACE_OUTER_BOUND('',#226,.T.);
#155=FACE_OUTER_BOUND('',#227,.T.);
#156=FACE_OUTER_BOUND('',#228,.T.);
#157=FACE_OUTER_BOUND('',#229,.T.);
#158=FACE_OUTER_BOUND('',#230,.T.);
#159=FACE_OUTER_BOUND('',#231,.T.);
#160=FACE_OUTER_BOUND('',#232,.T.);
#161=FACE_OUTER_BOUND('',#233,.T.);
#162=FACE_OUTER_BOUND('',#234,.T.);
#163=FACE_OUTER_BOUND('',#235,.T.);
#164=FACE_OUTER_BOUND('',#236,.T.);
#165=FACE_OUTER_BOUND('',#237,.T.);
#166=FACE_OUTER_BOUND('',#238,.T.);
#167=FACE_OUTER_BOUND('',#239,.T.);
#168=FACE_OUTER_BOUND('',#240,.T.);
#169=FACE_OUTER_BOUND('',#241,.T.);
#170=FACE_OUTER_BOUND('',#242,.T.);
#171=FACE_OUTER_BOUND('',#243,.T.);
#172=FACE_OUTER_BOUND('',#244,.T.);
#173=FACE_OUTER_BOUND('',#245,.T.);
#174=EDGE_LOOP('',(#732,#733,#734,#735));
#175=EDGE_LOOP('',(#736));
#176=EDGE_LOOP('',(#737,#738,#739,#740));
#177=EDGE_LOOP('',(#741,#742,#743,#744));
#178=EDGE_LOOP('',(#745,#746,#747,#748));
#179=EDGE_LOOP('',(#749));
#180=EDGE_LOOP('',(#750,#751,#752,#753));
#181=EDGE_LOOP('',(#754,#755,#756,#757));
#182=EDGE_LOOP('',(#758,#759,#760,#761));
#183=EDGE_LOOP('',(#762,#763,#764,#765));
#184=EDGE_LOOP('',(#766));
#185=EDGE_LOOP('',(#767));
#186=EDGE_LOOP('',(#768,#769,#770,#771));
#187=EDGE_LOOP('',(#772,#773,#774,#775));
#188=EDGE_LOOP('',(#776,#777,#778,#779));
#189=EDGE_LOOP('',(#780,#781,#782,#783));
#190=EDGE_LOOP('',(#784,#785,#786,#787));
#191=EDGE_LOOP('',(#788,#789,#790,#791));
#192=EDGE_LOOP('',(#792,#793,#794,#795));
#193=EDGE_LOOP('',(#796,#797,#798,#799));
#194=EDGE_LOOP('',(#800,#801,#802,#803));
#195=EDGE_LOOP('',(#804,#805,#806,#807));
#196=EDGE_LOOP('',(#808,#809,#810,#811));
#197=EDGE_LOOP('',(#812,#813,#814,#815));
#198=EDGE_LOOP('',(#816,#817,#818,#819));
#199=EDGE_LOOP('',(#820,#821,#822,#823));
#200=EDGE_LOOP('',(#824,#825,#826,#827));
#201=EDGE_LOOP('',(#828,#829,#830,#831));
#202=EDGE_LOOP('',(#832,#833,#834,#835));
#203=EDGE_LOOP('',(#836,#837,#838,#839));
#204=EDGE_LOOP('',(#840,#841,#842,#843));
#205=EDGE_LOOP('',(#844,#845,#846,#847));
#206=EDGE_LOOP('',(#848,#849,#850,#851));
#207=EDGE_LOOP('',(#852,#853,#854,#855));
#208=EDGE_LOOP('',(#856,#857,#858,#859));
#209=EDGE_LOOP('',(#860,#861,#862,#863));
#210=EDGE_LOOP('',(#864,#865,#866,#867));
#211=EDGE_LOOP('',(#868,#869,#870,#871));
#212=EDGE_LOOP('',(#872,#873,#874,#875));
#213=EDGE_LOOP('',(#876,#877,#878,#879));
#214=EDGE_LOOP('',(#880,#881,#882,#883));
#215=EDGE_LOOP('',(#884,#885,#886,#887));
#216=EDGE_LOOP('',(#888,#889,#890,#891));
#217=EDGE_LOOP('',(#892,#893,#894,#895));
#218=EDGE_LOOP('',(#896,#897,#898,#899));
#219=EDGE_LOOP('',(#900,#901,#902,#903));
#220=EDGE_LOOP('',(#904,#905,#906,#907));
#221=EDGE_LOOP('',(#908,#909,#910,#911));
#222=EDGE_LOOP('',(#912,#913,#914,#915));
#223=EDGE_LOOP('',(#916,#917,#918,#919));
#224=EDGE_LOOP('',(#920,#921,#922,#923));
#225=EDGE_LOOP('',(#924,#925,#926,#927));
#226=EDGE_LOOP('',(#928,#929,#930,#931));
#227=EDGE_LOOP('',(#932,#933,#934,#935));
#228=EDGE_LOOP('',(#936,#937,#938,#939));
#229=EDGE_LOOP('',(#940,#941,#942,#943));
#230=EDGE_LOOP('',(#944,#945,#946,#947));
#231=EDGE_LOOP('',(#948,#949,#950,#951));
#232=EDGE_LOOP('',(#952,#953,#954,#955));
#233=EDGE_LOOP('',(#956,#957,#958,#959));
#234=EDGE_LOOP('',(#960,#961,#962,#963));
#235=EDGE_LOOP('',(#964,#965,#966,#967));
#236=EDGE_LOOP('',(#968,#969,#970,#971));
#237=EDGE_LOOP('',(#972,#973,#974,#975));
#238=EDGE_LOOP('',(#976,#977,#978,#979));
#239=EDGE_LOOP('',(#980,#981,#982,#983));
#240=EDGE_LOOP('',(#984,#985,#986,#987));
#241=EDGE_LOOP('',(#988,#989,#990,#991));
#242=EDGE_LOOP('',(#992,#993,#994,#995));
#243=EDGE_LOOP('',(#996,#997,#998,#999));
#244=EDGE_LOOP('',(#1000,#1001,#1002,#1003));
#245=EDGE_LOOP('',(#1004,#1005,#1006,#1007));
#246=LINE('',#1519,#364);
#247=LINE('',#1525,#365);
#248=LINE('',#1527,#366);
#249=LINE('',#1529,#367);
#250=LINE('',#1530,#368);
#251=LINE('',#1533,#369);
#252=LINE('',#1535,#370);
#253=LINE('',#1536,#371);
#254=LINE('',#1539,#372);
#255=LINE('',#1540,#373);
#256=LINE('',#1543,#374);
#257=LINE('',#1544,#375);
#258=LINE('',#1546,#376);
#259=LINE('',#1552,#377);
#260=LINE('',#1559,#378);
#261=LINE('',#1561,#379);
#262=LINE('',#1563,#380);
#263=LINE('',#1564,#381);
#264=LINE('',#1567,#382);
#265=LINE('',#1570,#383);
#266=LINE('',#1575,#384);
#267=LINE('',#1576,#385);
#268=LINE('',#1578,#386);
#269=LINE('',#1580,#387);
#270=LINE('',#1585,#388);
#271=LINE('',#1589,#389);
#272=LINE('',#1590,#390);
#273=LINE('',#1593,#391);
#274=LINE('',#1595,#392);
#275=LINE('',#1596,#393);
#276=LINE('',#1601,#394);
#277=LINE('',#1602,#395);
#278=LINE('',#1604,#396);
#279=LINE('',#1606,#397);
#280=LINE('',#1611,#398);
#281=LINE('',#1613,#399);
#282=LINE('',#1615,#400);
#283=LINE('',#1616,#401);
#284=LINE('',#1619,#402);
#285=LINE('',#1622,#403);
#286=LINE('',#1627,#404);
#287=LINE('',#1628,#405);
#288=LINE('',#1630,#406);
#289=LINE('',#1632,#407);
#290=LINE('',#1637,#408);
#291=LINE('',#1639,#409);
#292=LINE('',#1641,#410);
#293=LINE('',#1642,#411);
#294=LINE('',#1646,#412);
#295=LINE('',#1647,#413);
#296=LINE('',#1648,#414);
#297=LINE('',#1651,#415);
#298=LINE('',#1652,#416);
#299=LINE('',#1655,#417);
#300=LINE('',#1656,#418);
#301=LINE('',#1658,#419);
#302=LINE('',#1663,#420);
#303=LINE('',#1667,#421);
#304=LINE('',#1668,#422);
#305=LINE('',#1671,#423);
#306=LINE('',#1673,#424);
#307=LINE('',#1674,#425);
#308=LINE('',#1679,#426);
#309=LINE('',#1680,#427);
#310=LINE('',#1682,#428);
#311=LINE('',#1684,#429);
#312=LINE('',#1689,#430);
#313=LINE('',#1693,#431);
#314=LINE('',#1694,#432);
#315=LINE('',#1697,#433);
#316=LINE('',#1699,#434);
#317=LINE('',#1700,#435);
#318=LINE('',#1705,#436);
#319=LINE('',#1706,#437);
#320=LINE('',#1708,#438);
#321=LINE('',#1710,#439);
#322=LINE('',#1715,#440);
#323=LINE('',#1719,#441);
#324=LINE('',#1720,#442);
#325=LINE('',#1723,#443);
#326=LINE('',#1725,#444);
#327=LINE('',#1726,#445);
#328=LINE('',#1731,#446);
#329=LINE('',#1732,#447);
#330=LINE('',#1734,#448);
#331=LINE('',#1736,#449);
#332=LINE('',#1741,#450);
#333=LINE('',#1743,#451);
#334=LINE('',#1745,#452);
#335=LINE('',#1746,#453);
#336=LINE('',#1749,#454);
#337=LINE('',#1752,#455);
#338=LINE('',#1757,#456);
#339=LINE('',#1758,#457);
#340=LINE('',#1760,#458);
#341=LINE('',#1762,#459);
#342=LINE('',#1767,#460);
#343=LINE('',#1769,#461);
#344=LINE('',#1771,#462);
#345=LINE('',#1772,#463);
#346=LINE('',#1775,#464);
#347=LINE('',#1778,#465);
#348=LINE('',#1783,#466);
#349=LINE('',#1784,#467);
#350=LINE('',#1786,#468);
#351=LINE('',#1788,#469);
#352=LINE('',#1793,#470);
#353=LINE('',#1795,#471);
#354=LINE('',#1797,#472);
#355=LINE('',#1798,#473);
#356=LINE('',#1802,#474);
#357=LINE('',#1803,#475);
#358=LINE('',#1804,#476);
#359=LINE('',#1807,#477);
#360=LINE('',#1808,#478);
#361=LINE('',#1811,#479);
#362=LINE('',#1812,#480);
#363=LINE('',#1814,#481);
#364=VECTOR('',#1215,0.15);
#365=VECTOR('',#1222,1000.);
#366=VECTOR('',#1223,1000.);
#367=VECTOR('',#1224,1000.);
#368=VECTOR('',#1225,1000.);
#369=VECTOR('',#1228,1000.);
#370=VECTOR('',#1229,1000.);
#371=VECTOR('',#1230,1000.);
#372=VECTOR('',#1233,1000.);
#373=VECTOR('',#1234,1000.);
#374=VECTOR('',#1237,1000.);
#375=VECTOR('',#1238,1000.);
#376=VECTOR('',#1241,1000.);
#377=VECTOR('',#1248,0.15);
#378=VECTOR('',#1257,1000.);
#379=VECTOR('',#1258,1000.);
#380=VECTOR('',#1259,1000.);
#381=VECTOR('',#1260,1000.);
#382=VECTOR('',#1263,1000.);
#383=VECTOR('',#1266,1000.);
#384=VECTOR('',#1271,1000.);
#385=VECTOR('',#1272,1000.);
#386=VECTOR('',#1275,1000.);
#387=VECTOR('',#1278,1000.);
#388=VECTOR('',#1283,1000.);
#389=VECTOR('',#1286,1000.);
#390=VECTOR('',#1287,1000.);
#391=VECTOR('',#1290,1000.);
#392=VECTOR('',#1291,1000.);
#393=VECTOR('',#1292,1000.);
#394=VECTOR('',#1297,1000.);
#395=VECTOR('',#1298,1000.);
#396=VECTOR('',#1301,1000.);
#397=VECTOR('',#1304,1000.);
#398=VECTOR('',#1309,1000.);
#399=VECTOR('',#1310,1000.);
#400=VECTOR('',#1311,1000.);
#401=VECTOR('',#1312,1000.);
#402=VECTOR('',#1315,1000.);
#403=VECTOR('',#1318,1000.);
#404=VECTOR('',#1323,1000.);
#405=VECTOR('',#1324,1000.);
#406=VECTOR('',#1327,1000.);
#407=VECTOR('',#1330,1000.);
#408=VECTOR('',#1335,1000.);
#409=VECTOR('',#1336,1000.);
#410=VECTOR('',#1337,1000.);
#411=VECTOR('',#1338,1000.);
#412=VECTOR('',#1341,1000.);
#413=VECTOR('',#1342,1000.);
#414=VECTOR('',#1343,1000.);
#415=VECTOR('',#1346,1000.);
#416=VECTOR('',#1347,1000.);
#417=VECTOR('',#1350,1000.);
#418=VECTOR('',#1351,1000.);
#419=VECTOR('',#1354,1000.);
#420=VECTOR('',#1359,1000.);
#421=VECTOR('',#1362,1000.);
#422=VECTOR('',#1363,1000.);
#423=VECTOR('',#1366,1000.);
#424=VECTOR('',#1367,1000.);
#425=VECTOR('',#1368,1000.);
#426=VECTOR('',#1373,1000.);
#427=VECTOR('',#1374,1000.);
#428=VECTOR('',#1377,1000.);
#429=VECTOR('',#1380,1000.);
#430=VECTOR('',#1385,1000.);
#431=VECTOR('',#1388,1000.);
#432=VECTOR('',#1389,1000.);
#433=VECTOR('',#1392,1000.);
#434=VECTOR('',#1393,1000.);
#435=VECTOR('',#1394,1000.);
#436=VECTOR('',#1399,1000.);
#437=VECTOR('',#1400,1000.);
#438=VECTOR('',#1403,1000.);
#439=VECTOR('',#1406,1000.);
#440=VECTOR('',#1411,1000.);
#441=VECTOR('',#1414,1000.);
#442=VECTOR('',#1415,1000.);
#443=VECTOR('',#1418,1000.);
#444=VECTOR('',#1419,1000.);
#445=VECTOR('',#1420,1000.);
#446=VECTOR('',#1425,1000.);
#447=VECTOR('',#1426,1000.);
#448=VECTOR('',#1429,1000.);
#449=VECTOR('',#1432,1000.);
#450=VECTOR('',#1437,1000.);
#451=VECTOR('',#1438,1000.);
#452=VECTOR('',#1439,1000.);
#453=VECTOR('',#1440,1000.);
#454=VECTOR('',#1443,1000.);
#455=VECTOR('',#1446,1000.);
#456=VECTOR('',#1451,1000.);
#457=VECTOR('',#1452,1000.);
#458=VECTOR('',#1455,1000.);
#459=VECTOR('',#1458,1000.);
#460=VECTOR('',#1463,1000.);
#461=VECTOR('',#1464,1000.);
#462=VECTOR('',#1465,1000.);
#463=VECTOR('',#1466,1000.);
#464=VECTOR('',#1469,1000.);
#465=VECTOR('',#1472,1000.);
#466=VECTOR('',#1477,1000.);
#467=VECTOR('',#1478,1000.);
#468=VECTOR('',#1481,1000.);
#469=VECTOR('',#1484,1000.);
#470=VECTOR('',#1489,1000.);
#471=VECTOR('',#1490,1000.);
#472=VECTOR('',#1491,1000.);
#473=VECTOR('',#1492,1000.);
#474=VECTOR('',#1495,1000.);
#475=VECTOR('',#1496,1000.);
#476=VECTOR('',#1497,1000.);
#477=VECTOR('',#1500,1000.);
#478=VECTOR('',#1501,1000.);
#479=VECTOR('',#1504,1000.);
#480=VECTOR('',#1505,1000.);
#481=VECTOR('',#1508,1000.);
#482=CIRCLE('',#1116,0.15);
#483=CIRCLE('',#1117,0.15);
#484=CIRCLE('',#1126,0.15);
#485=CIRCLE('',#1127,0.15);
#486=CIRCLE('',#1132,0.150000000000001);
#487=CIRCLE('',#1134,0.150000000000001);
#488=CIRCLE('',#1139,0.15);
#489=CIRCLE('',#1142,0.15);
#490=CIRCLE('',#1148,0.150000000000001);
#491=CIRCLE('',#1150,0.150000000000001);
#492=CIRCLE('',#1161,0.150000000000001);
#493=CIRCLE('',#1164,0.150000000000001);
#494=CIRCLE('',#1169,0.150000000000001);
#495=CIRCLE('',#1172,0.150000000000001);
#496=CIRCLE('',#1177,0.15);
#497=CIRCLE('',#1180,0.15);
#498=CIRCLE('',#1186,0.15);
#499=CIRCLE('',#1188,0.15);
#500=CIRCLE('',#1194,0.15);
#501=CIRCLE('',#1196,0.15);
#502=VERTEX_POINT('',#1516);
#503=VERTEX_POINT('',#1518);
#504=VERTEX_POINT('',#1523);
#505=VERTEX_POINT('',#1524);
#506=VERTEX_POINT('',#1526);
#507=VERTEX_POINT('',#1528);
#508=VERTEX_POINT('',#1532);
#509=VERTEX_POINT('',#1534);
#510=VERTEX_POINT('',#1538);
#511=VERTEX_POINT('',#1542);
#512=VERTEX_POINT('',#1549);
#513=VERTEX_POINT('',#1551);
#514=VERTEX_POINT('',#1557);
#515=VERTEX_POINT('',#1558);
#516=VERTEX_POINT('',#1560);
#517=VERTEX_POINT('',#1562);
#518=VERTEX_POINT('',#1566);
#519=VERTEX_POINT('',#1568);
#520=VERTEX_POINT('',#1572);
#521=VERTEX_POINT('',#1573);
#522=VERTEX_POINT('',#1583);
#523=VERTEX_POINT('',#1584);
#524=VERTEX_POINT('',#1586);
#525=VERTEX_POINT('',#1588);
#526=VERTEX_POINT('',#1592);
#527=VERTEX_POINT('',#1594);
#528=VERTEX_POINT('',#1598);
#529=VERTEX_POINT('',#1599);
#530=VERTEX_POINT('',#1609);
#531=VERTEX_POINT('',#1610);
#532=VERTEX_POINT('',#1612);
#533=VERTEX_POINT('',#1614);
#534=VERTEX_POINT('',#1618);
#535=VERTEX_POINT('',#1620);
#536=VERTEX_POINT('',#1624);
#537=VERTEX_POINT('',#1625);
#538=VERTEX_POINT('',#1635);
#539=VERTEX_POINT('',#1636);
#540=VERTEX_POINT('',#1638);
#541=VERTEX_POINT('',#1640);
#542=VERTEX_POINT('',#1644);
#543=VERTEX_POINT('',#1645);
#544=VERTEX_POINT('',#1650);
#545=VERTEX_POINT('',#1654);
#546=VERTEX_POINT('',#1661);
#547=VERTEX_POINT('',#1662);
#548=VERTEX_POINT('',#1664);
#549=VERTEX_POINT('',#1666);
#550=VERTEX_POINT('',#1670);
#551=VERTEX_POINT('',#1672);
#552=VERTEX_POINT('',#1676);
#553=VERTEX_POINT('',#1677);
#554=VERTEX_POINT('',#1687);
#555=VERTEX_POINT('',#1688);
#556=VERTEX_POINT('',#1690);
#557=VERTEX_POINT('',#1692);
#558=VERTEX_POINT('',#1696);
#559=VERTEX_POINT('',#1698);
#560=VERTEX_POINT('',#1702);
#561=VERTEX_POINT('',#1703);
#562=VERTEX_POINT('',#1713);
#563=VERTEX_POINT('',#1714);
#564=VERTEX_POINT('',#1716);
#565=VERTEX_POINT('',#1718);
#566=VERTEX_POINT('',#1722);
#567=VERTEX_POINT('',#1724);
#568=VERTEX_POINT('',#1728);
#569=VERTEX_POINT('',#1729);
#570=VERTEX_POINT('',#1739);
#571=VERTEX_POINT('',#1740);
#572=VERTEX_POINT('',#1742);
#573=VERTEX_POINT('',#1744);
#574=VERTEX_POINT('',#1748);
#575=VERTEX_POINT('',#1750);
#576=VERTEX_POINT('',#1754);
#577=VERTEX_POINT('',#1755);
#578=VERTEX_POINT('',#1765);
#579=VERTEX_POINT('',#1766);
#580=VERTEX_POINT('',#1768);
#581=VERTEX_POINT('',#1770);
#582=VERTEX_POINT('',#1774);
#583=VERTEX_POINT('',#1776);
#584=VERTEX_POINT('',#1780);
#585=VERTEX_POINT('',#1781);
#586=VERTEX_POINT('',#1791);
#587=VERTEX_POINT('',#1792);
#588=VERTEX_POINT('',#1794);
#589=VERTEX_POINT('',#1796);
#590=VERTEX_POINT('',#1800);
#591=VERTEX_POINT('',#1801);
#592=VERTEX_POINT('',#1806);
#593=VERTEX_POINT('',#1810);
#594=EDGE_CURVE('',#502,#502,#482,.T.);
#595=EDGE_CURVE('',#502,#503,#246,.T.);
#596=EDGE_CURVE('',#503,#503,#483,.T.);
#597=EDGE_CURVE('',#504,#505,#247,.T.);
#598=EDGE_CURVE('',#504,#506,#248,.T.);
#599=EDGE_CURVE('',#506,#507,#249,.T.);
#600=EDGE_CURVE('',#505,#507,#250,.T.);
#601=EDGE_CURVE('',#505,#508,#251,.T.);
#602=EDGE_CURVE('',#507,#509,#252,.T.);
#603=EDGE_CURVE('',#508,#509,#253,.T.);
#604=EDGE_CURVE('',#510,#506,#254,.T.);
#605=EDGE_CURVE('',#509,#510,#255,.T.);
#606=EDGE_CURVE('',#511,#504,#256,.T.);
#607=EDGE_CURVE('',#511,#510,#257,.T.);
#608=EDGE_CURVE('',#508,#511,#258,.T.);
#609=EDGE_CURVE('',#512,#512,#484,.T.);
#610=EDGE_CURVE('',#512,#513,#259,.T.);
#611=EDGE_CURVE('',#513,#513,#485,.T.);
#612=EDGE_CURVE('',#514,#515,#260,.T.);
#613=EDGE_CURVE('',#516,#515,#261,.T.);
#614=EDGE_CURVE('',#517,#516,#262,.T.);
#615=EDGE_CURVE('',#517,#514,#263,.T.);
#616=EDGE_CURVE('',#515,#518,#264,.T.);
#617=EDGE_CURVE('',#518,#519,#486,.T.);
#618=EDGE_CURVE('',#516,#519,#265,.T.);
#619=EDGE_CURVE('',#520,#521,#487,.T.);
#620=EDGE_CURVE('',#514,#520,#266,.T.);
#621=EDGE_CURVE('',#517,#521,#267,.T.);
#622=EDGE_CURVE('',#520,#518,#268,.T.);
#623=EDGE_CURVE('',#521,#519,#269,.T.);
#624=EDGE_CURVE('',#522,#523,#270,.T.);
#625=EDGE_CURVE('',#524,#523,#488,.T.);
#626=EDGE_CURVE('',#525,#524,#271,.T.);
#627=EDGE_CURVE('',#525,#522,#272,.T.);
#628=EDGE_CURVE('',#526,#522,#273,.T.);
#629=EDGE_CURVE('',#527,#525,#274,.T.);
#630=EDGE_CURVE('',#527,#526,#275,.T.);
#631=EDGE_CURVE('',#528,#529,#489,.T.);
#632=EDGE_CURVE('',#526,#529,#276,.T.);
#633=EDGE_CURVE('',#527,#528,#277,.T.);
#634=EDGE_CURVE('',#529,#523,#278,.T.);
#635=EDGE_CURVE('',#528,#524,#279,.T.);
#636=EDGE_CURVE('',#530,#531,#280,.T.);
#637=EDGE_CURVE('',#532,#531,#281,.T.);
#638=EDGE_CURVE('',#533,#532,#282,.T.);
#639=EDGE_CURVE('',#533,#530,#283,.T.);
#640=EDGE_CURVE('',#531,#534,#284,.T.);
#641=EDGE_CURVE('',#534,#535,#490,.T.);
#642=EDGE_CURVE('',#532,#535,#285,.T.);
#643=EDGE_CURVE('',#536,#537,#491,.T.);
#644=EDGE_CURVE('',#530,#536,#286,.T.);
#645=EDGE_CURVE('',#533,#537,#287,.T.);
#646=EDGE_CURVE('',#536,#534,#288,.T.);
#647=EDGE_CURVE('',#537,#535,#289,.T.);
#648=EDGE_CURVE('',#538,#539,#290,.T.);
#649=EDGE_CURVE('',#540,#539,#291,.T.);
#650=EDGE_CURVE('',#541,#540,#292,.T.);
#651=EDGE_CURVE('',#541,#538,#293,.T.);
#652=EDGE_CURVE('',#542,#543,#294,.T.);
#653=EDGE_CURVE('',#539,#543,#295,.T.);
#654=EDGE_CURVE('',#538,#542,#296,.T.);
#655=EDGE_CURVE('',#544,#542,#297,.T.);
#656=EDGE_CURVE('',#541,#544,#298,.T.);
#657=EDGE_CURVE('',#544,#545,#299,.T.);
#658=EDGE_CURVE('',#540,#545,#300,.T.);
#659=EDGE_CURVE('',#545,#543,#301,.T.);
#660=EDGE_CURVE('',#546,#547,#302,.T.);
#661=EDGE_CURVE('',#548,#547,#492,.T.);
#662=EDGE_CURVE('',#549,#548,#303,.T.);
#663=EDGE_CURVE('',#549,#546,#304,.T.);
#664=EDGE_CURVE('',#550,#546,#305,.T.);
#665=EDGE_CURVE('',#551,#549,#306,.T.);
#666=EDGE_CURVE('',#551,#550,#307,.T.);
#667=EDGE_CURVE('',#552,#553,#493,.T.);
#668=EDGE_CURVE('',#550,#553,#308,.T.);
#669=EDGE_CURVE('',#551,#552,#309,.T.);
#670=EDGE_CURVE('',#553,#547,#310,.T.);
#671=EDGE_CURVE('',#552,#548,#311,.T.);
#672=EDGE_CURVE('',#554,#555,#312,.T.);
#673=EDGE_CURVE('',#556,#555,#494,.T.);
#674=EDGE_CURVE('',#557,#556,#313,.T.);
#675=EDGE_CURVE('',#557,#554,#314,.T.);
#676=EDGE_CURVE('',#558,#554,#315,.T.);
#677=EDGE_CURVE('',#559,#557,#316,.T.);
#678=EDGE_CURVE('',#559,#558,#317,.T.);
#679=EDGE_CURVE('',#560,#561,#495,.T.);
#680=EDGE_CURVE('',#558,#561,#318,.T.);
#681=EDGE_CURVE('',#559,#560,#319,.T.);
#682=EDGE_CURVE('',#561,#555,#320,.T.);
#683=EDGE_CURVE('',#560,#556,#321,.T.);
#684=EDGE_CURVE('',#562,#563,#322,.T.);
#685=EDGE_CURVE('',#564,#563,#496,.T.);
#686=EDGE_CURVE('',#565,#564,#323,.T.);
#687=EDGE_CURVE('',#565,#562,#324,.T.);
#688=EDGE_CURVE('',#566,#562,#325,.T.);
#689=EDGE_CURVE('',#567,#565,#326,.T.);
#690=EDGE_CURVE('',#567,#566,#327,.T.);
#691=EDGE_CURVE('',#568,#569,#497,.T.);
#692=EDGE_CURVE('',#566,#569,#328,.T.);
#693=EDGE_CURVE('',#567,#568,#329,.T.);
#694=EDGE_CURVE('',#569,#563,#330,.T.);
#695=EDGE_CURVE('',#568,#564,#331,.T.);
#696=EDGE_CURVE('',#570,#571,#332,.T.);
#697=EDGE_CURVE('',#572,#571,#333,.T.);
#698=EDGE_CURVE('',#573,#572,#334,.T.);
#699=EDGE_CURVE('',#573,#570,#335,.T.);
#700=EDGE_CURVE('',#571,#574,#336,.T.);
#701=EDGE_CURVE('',#574,#575,#498,.T.);
#702=EDGE_CURVE('',#572,#575,#337,.T.);
#703=EDGE_CURVE('',#576,#577,#499,.T.);
#704=EDGE_CURVE('',#570,#576,#338,.T.);
#705=EDGE_CURVE('',#573,#577,#339,.T.);
#706=EDGE_CURVE('',#576,#574,#340,.T.);
#707=EDGE_CURVE('',#577,#575,#341,.T.);
#708=EDGE_CURVE('',#578,#579,#342,.T.);
#709=EDGE_CURVE('',#580,#579,#343,.T.);
#710=EDGE_CURVE('',#581,#580,#344,.T.);
#711=EDGE_CURVE('',#581,#578,#345,.T.);
#712=EDGE_CURVE('',#579,#582,#346,.T.);
#713=EDGE_CURVE('',#582,#583,#500,.T.);
#714=EDGE_CURVE('',#580,#583,#347,.T.);
#715=EDGE_CURVE('',#584,#585,#501,.T.);
#716=EDGE_CURVE('',#578,#584,#348,.T.);
#717=EDGE_CURVE('',#581,#585,#349,.T.);
#718=EDGE_CURVE('',#584,#582,#350,.T.);
#719=EDGE_CURVE('',#585,#583,#351,.T.);
#720=EDGE_CURVE('',#586,#587,#352,.T.);
#721=EDGE_CURVE('',#587,#588,#353,.T.);
#722=EDGE_CURVE('',#589,#588,#354,.T.);
#723=EDGE_CURVE('',#586,#589,#355,.T.);
#724=EDGE_CURVE('',#590,#591,#356,.T.);
#725=EDGE_CURVE('',#587,#591,#357,.T.);
#726=EDGE_CURVE('',#586,#590,#358,.T.);
#727=EDGE_CURVE('',#590,#592,#359,.T.);
#728=EDGE_CURVE('',#589,#592,#360,.T.);
#729=EDGE_CURVE('',#592,#593,#361,.T.);
#730=EDGE_CURVE('',#588,#593,#362,.T.);
#731=EDGE_CURVE('',#591,#593,#363,.T.);
#732=ORIENTED_EDGE('',*,*,#594,.F.);
#733=ORIENTED_EDGE('',*,*,#595,.T.);
#734=ORIENTED_EDGE('',*,*,#596,.T.);
#735=ORIENTED_EDGE('',*,*,#595,.F.);
#736=ORIENTED_EDGE('',*,*,#594,.T.);
#737=ORIENTED_EDGE('',*,*,#597,.F.);
#738=ORIENTED_EDGE('',*,*,#598,.T.);
#739=ORIENTED_EDGE('',*,*,#599,.T.);
#740=ORIENTED_EDGE('',*,*,#600,.F.);
#741=ORIENTED_EDGE('',*,*,#601,.F.);
#742=ORIENTED_EDGE('',*,*,#600,.T.);
#743=ORIENTED_EDGE('',*,*,#602,.T.);
#744=ORIENTED_EDGE('',*,*,#603,.F.);
#745=ORIENTED_EDGE('',*,*,#602,.F.);
#746=ORIENTED_EDGE('',*,*,#599,.F.);
#747=ORIENTED_EDGE('',*,*,#604,.F.);
#748=ORIENTED_EDGE('',*,*,#605,.F.);
#749=ORIENTED_EDGE('',*,*,#596,.F.);
#750=ORIENTED_EDGE('',*,*,#606,.F.);
#751=ORIENTED_EDGE('',*,*,#607,.T.);
#752=ORIENTED_EDGE('',*,*,#604,.T.);
#753=ORIENTED_EDGE('',*,*,#598,.F.);
#754=ORIENTED_EDGE('',*,*,#608,.T.);
#755=ORIENTED_EDGE('',*,*,#606,.T.);
#756=ORIENTED_EDGE('',*,*,#597,.T.);
#757=ORIENTED_EDGE('',*,*,#601,.T.);
#758=ORIENTED_EDGE('',*,*,#608,.F.);
#759=ORIENTED_EDGE('',*,*,#603,.T.);
#760=ORIENTED_EDGE('',*,*,#605,.T.);
#761=ORIENTED_EDGE('',*,*,#607,.F.);
#762=ORIENTED_EDGE('',*,*,#609,.F.);
#763=ORIENTED_EDGE('',*,*,#610,.T.);
#764=ORIENTED_EDGE('',*,*,#611,.T.);
#765=ORIENTED_EDGE('',*,*,#610,.F.);
#766=ORIENTED_EDGE('',*,*,#611,.F.);
#767=ORIENTED_EDGE('',*,*,#609,.T.);
#768=ORIENTED_EDGE('',*,*,#612,.T.);
#769=ORIENTED_EDGE('',*,*,#613,.F.);
#770=ORIENTED_EDGE('',*,*,#614,.F.);
#771=ORIENTED_EDGE('',*,*,#615,.T.);
#772=ORIENTED_EDGE('',*,*,#616,.T.);
#773=ORIENTED_EDGE('',*,*,#617,.T.);
#774=ORIENTED_EDGE('',*,*,#618,.F.);
#775=ORIENTED_EDGE('',*,*,#613,.T.);
#776=ORIENTED_EDGE('',*,*,#619,.F.);
#777=ORIENTED_EDGE('',*,*,#620,.F.);
#778=ORIENTED_EDGE('',*,*,#615,.F.);
#779=ORIENTED_EDGE('',*,*,#621,.T.);
#780=ORIENTED_EDGE('',*,*,#616,.F.);
#781=ORIENTED_EDGE('',*,*,#612,.F.);
#782=ORIENTED_EDGE('',*,*,#620,.T.);
#783=ORIENTED_EDGE('',*,*,#622,.T.);
#784=ORIENTED_EDGE('',*,*,#617,.F.);
#785=ORIENTED_EDGE('',*,*,#622,.F.);
#786=ORIENTED_EDGE('',*,*,#619,.T.);
#787=ORIENTED_EDGE('',*,*,#623,.T.);
#788=ORIENTED_EDGE('',*,*,#618,.T.);
#789=ORIENTED_EDGE('',*,*,#623,.F.);
#790=ORIENTED_EDGE('',*,*,#621,.F.);
#791=ORIENTED_EDGE('',*,*,#614,.T.);
#792=ORIENTED_EDGE('',*,*,#624,.T.);
#793=ORIENTED_EDGE('',*,*,#625,.F.);
#794=ORIENTED_EDGE('',*,*,#626,.F.);
#795=ORIENTED_EDGE('',*,*,#627,.T.);
#796=ORIENTED_EDGE('',*,*,#628,.T.);
#797=ORIENTED_EDGE('',*,*,#627,.F.);
#798=ORIENTED_EDGE('',*,*,#629,.F.);
#799=ORIENTED_EDGE('',*,*,#630,.T.);
#800=ORIENTED_EDGE('',*,*,#631,.T.);
#801=ORIENTED_EDGE('',*,*,#632,.F.);
#802=ORIENTED_EDGE('',*,*,#630,.F.);
#803=ORIENTED_EDGE('',*,*,#633,.T.);
#804=ORIENTED_EDGE('',*,*,#624,.F.);
#805=ORIENTED_EDGE('',*,*,#628,.F.);
#806=ORIENTED_EDGE('',*,*,#632,.T.);
#807=ORIENTED_EDGE('',*,*,#634,.T.);
#808=ORIENTED_EDGE('',*,*,#625,.T.);
#809=ORIENTED_EDGE('',*,*,#634,.F.);
#810=ORIENTED_EDGE('',*,*,#631,.F.);
#811=ORIENTED_EDGE('',*,*,#635,.T.);
#812=ORIENTED_EDGE('',*,*,#626,.T.);
#813=ORIENTED_EDGE('',*,*,#635,.F.);
#814=ORIENTED_EDGE('',*,*,#633,.F.);
#815=ORIENTED_EDGE('',*,*,#629,.T.);
#816=ORIENTED_EDGE('',*,*,#636,.T.);
#817=ORIENTED_EDGE('',*,*,#637,.F.);
#818=ORIENTED_EDGE('',*,*,#638,.F.);
#819=ORIENTED_EDGE('',*,*,#639,.T.);
#820=ORIENTED_EDGE('',*,*,#640,.T.);
#821=ORIENTED_EDGE('',*,*,#641,.T.);
#822=ORIENTED_EDGE('',*,*,#642,.F.);
#823=ORIENTED_EDGE('',*,*,#637,.T.);
#824=ORIENTED_EDGE('',*,*,#643,.F.);
#825=ORIENTED_EDGE('',*,*,#644,.F.);
#826=ORIENTED_EDGE('',*,*,#639,.F.);
#827=ORIENTED_EDGE('',*,*,#645,.T.);
#828=ORIENTED_EDGE('',*,*,#640,.F.);
#829=ORIENTED_EDGE('',*,*,#636,.F.);
#830=ORIENTED_EDGE('',*,*,#644,.T.);
#831=ORIENTED_EDGE('',*,*,#646,.T.);
#832=ORIENTED_EDGE('',*,*,#641,.F.);
#833=ORIENTED_EDGE('',*,*,#646,.F.);
#834=ORIENTED_EDGE('',*,*,#643,.T.);
#835=ORIENTED_EDGE('',*,*,#647,.T.);
#836=ORIENTED_EDGE('',*,*,#642,.T.);
#837=ORIENTED_EDGE('',*,*,#647,.F.);
#838=ORIENTED_EDGE('',*,*,#645,.F.);
#839=ORIENTED_EDGE('',*,*,#638,.T.);
#840=ORIENTED_EDGE('',*,*,#648,.T.);
#841=ORIENTED_EDGE('',*,*,#649,.F.);
#842=ORIENTED_EDGE('',*,*,#650,.F.);
#843=ORIENTED_EDGE('',*,*,#651,.T.);
#844=ORIENTED_EDGE('',*,*,#652,.T.);
#845=ORIENTED_EDGE('',*,*,#653,.F.);
#846=ORIENTED_EDGE('',*,*,#648,.F.);
#847=ORIENTED_EDGE('',*,*,#654,.T.);
#848=ORIENTED_EDGE('',*,*,#655,.T.);
#849=ORIENTED_EDGE('',*,*,#654,.F.);
#850=ORIENTED_EDGE('',*,*,#651,.F.);
#851=ORIENTED_EDGE('',*,*,#656,.T.);
#852=ORIENTED_EDGE('',*,*,#657,.F.);
#853=ORIENTED_EDGE('',*,*,#656,.F.);
#854=ORIENTED_EDGE('',*,*,#650,.T.);
#855=ORIENTED_EDGE('',*,*,#658,.T.);
#856=ORIENTED_EDGE('',*,*,#659,.F.);
#857=ORIENTED_EDGE('',*,*,#658,.F.);
#858=ORIENTED_EDGE('',*,*,#649,.T.);
#859=ORIENTED_EDGE('',*,*,#653,.T.);
#860=ORIENTED_EDGE('',*,*,#659,.T.);
#861=ORIENTED_EDGE('',*,*,#652,.F.);
#862=ORIENTED_EDGE('',*,*,#655,.F.);
#863=ORIENTED_EDGE('',*,*,#657,.T.);
#864=ORIENTED_EDGE('',*,*,#660,.T.);
#865=ORIENTED_EDGE('',*,*,#661,.F.);
#866=ORIENTED_EDGE('',*,*,#662,.F.);
#867=ORIENTED_EDGE('',*,*,#663,.T.);
#868=ORIENTED_EDGE('',*,*,#664,.T.);
#869=ORIENTED_EDGE('',*,*,#663,.F.);
#870=ORIENTED_EDGE('',*,*,#665,.F.);
#871=ORIENTED_EDGE('',*,*,#666,.T.);
#872=ORIENTED_EDGE('',*,*,#667,.T.);
#873=ORIENTED_EDGE('',*,*,#668,.F.);
#874=ORIENTED_EDGE('',*,*,#666,.F.);
#875=ORIENTED_EDGE('',*,*,#669,.T.);
#876=ORIENTED_EDGE('',*,*,#660,.F.);
#877=ORIENTED_EDGE('',*,*,#664,.F.);
#878=ORIENTED_EDGE('',*,*,#668,.T.);
#879=ORIENTED_EDGE('',*,*,#670,.T.);
#880=ORIENTED_EDGE('',*,*,#661,.T.);
#881=ORIENTED_EDGE('',*,*,#670,.F.);
#882=ORIENTED_EDGE('',*,*,#667,.F.);
#883=ORIENTED_EDGE('',*,*,#671,.T.);
#884=ORIENTED_EDGE('',*,*,#662,.T.);
#885=ORIENTED_EDGE('',*,*,#671,.F.);
#886=ORIENTED_EDGE('',*,*,#669,.F.);
#887=ORIENTED_EDGE('',*,*,#665,.T.);
#888=ORIENTED_EDGE('',*,*,#672,.T.);
#889=ORIENTED_EDGE('',*,*,#673,.F.);
#890=ORIENTED_EDGE('',*,*,#674,.F.);
#891=ORIENTED_EDGE('',*,*,#675,.T.);
#892=ORIENTED_EDGE('',*,*,#676,.T.);
#893=ORIENTED_EDGE('',*,*,#675,.F.);
#894=ORIENTED_EDGE('',*,*,#677,.F.);
#895=ORIENTED_EDGE('',*,*,#678,.T.);
#896=ORIENTED_EDGE('',*,*,#679,.T.);
#897=ORIENTED_EDGE('',*,*,#680,.F.);
#898=ORIENTED_EDGE('',*,*,#678,.F.);
#899=ORIENTED_EDGE('',*,*,#681,.T.);
#900=ORIENTED_EDGE('',*,*,#672,.F.);
#901=ORIENTED_EDGE('',*,*,#676,.F.);
#902=ORIENTED_EDGE('',*,*,#680,.T.);
#903=ORIENTED_EDGE('',*,*,#682,.T.);
#904=ORIENTED_EDGE('',*,*,#673,.T.);
#905=ORIENTED_EDGE('',*,*,#682,.F.);
#906=ORIENTED_EDGE('',*,*,#679,.F.);
#907=ORIENTED_EDGE('',*,*,#683,.T.);
#908=ORIENTED_EDGE('',*,*,#674,.T.);
#909=ORIENTED_EDGE('',*,*,#683,.F.);
#910=ORIENTED_EDGE('',*,*,#681,.F.);
#911=ORIENTED_EDGE('',*,*,#677,.T.);
#912=ORIENTED_EDGE('',*,*,#684,.T.);
#913=ORIENTED_EDGE('',*,*,#685,.F.);
#914=ORIENTED_EDGE('',*,*,#686,.F.);
#915=ORIENTED_EDGE('',*,*,#687,.T.);
#916=ORIENTED_EDGE('',*,*,#688,.T.);
#917=ORIENTED_EDGE('',*,*,#687,.F.);
#918=ORIENTED_EDGE('',*,*,#689,.F.);
#919=ORIENTED_EDGE('',*,*,#690,.T.);
#920=ORIENTED_EDGE('',*,*,#691,.T.);
#921=ORIENTED_EDGE('',*,*,#692,.F.);
#922=ORIENTED_EDGE('',*,*,#690,.F.);
#923=ORIENTED_EDGE('',*,*,#693,.T.);
#924=ORIENTED_EDGE('',*,*,#684,.F.);
#925=ORIENTED_EDGE('',*,*,#688,.F.);
#926=ORIENTED_EDGE('',*,*,#692,.T.);
#927=ORIENTED_EDGE('',*,*,#694,.T.);
#928=ORIENTED_EDGE('',*,*,#685,.T.);
#929=ORIENTED_EDGE('',*,*,#694,.F.);
#930=ORIENTED_EDGE('',*,*,#691,.F.);
#931=ORIENTED_EDGE('',*,*,#695,.T.);
#932=ORIENTED_EDGE('',*,*,#686,.T.);
#933=ORIENTED_EDGE('',*,*,#695,.F.);
#934=ORIENTED_EDGE('',*,*,#693,.F.);
#935=ORIENTED_EDGE('',*,*,#689,.T.);
#936=ORIENTED_EDGE('',*,*,#696,.T.);
#937=ORIENTED_EDGE('',*,*,#697,.F.);
#938=ORIENTED_EDGE('',*,*,#698,.F.);
#939=ORIENTED_EDGE('',*,*,#699,.T.);
#940=ORIENTED_EDGE('',*,*,#700,.T.);
#941=ORIENTED_EDGE('',*,*,#701,.T.);
#942=ORIENTED_EDGE('',*,*,#702,.F.);
#943=ORIENTED_EDGE('',*,*,#697,.T.);
#944=ORIENTED_EDGE('',*,*,#703,.F.);
#945=ORIENTED_EDGE('',*,*,#704,.F.);
#946=ORIENTED_EDGE('',*,*,#699,.F.);
#947=ORIENTED_EDGE('',*,*,#705,.T.);
#948=ORIENTED_EDGE('',*,*,#700,.F.);
#949=ORIENTED_EDGE('',*,*,#696,.F.);
#950=ORIENTED_EDGE('',*,*,#704,.T.);
#951=ORIENTED_EDGE('',*,*,#706,.T.);
#952=ORIENTED_EDGE('',*,*,#701,.F.);
#953=ORIENTED_EDGE('',*,*,#706,.F.);
#954=ORIENTED_EDGE('',*,*,#703,.T.);
#955=ORIENTED_EDGE('',*,*,#707,.T.);
#956=ORIENTED_EDGE('',*,*,#702,.T.);
#957=ORIENTED_EDGE('',*,*,#707,.F.);
#958=ORIENTED_EDGE('',*,*,#705,.F.);
#959=ORIENTED_EDGE('',*,*,#698,.T.);
#960=ORIENTED_EDGE('',*,*,#708,.T.);
#961=ORIENTED_EDGE('',*,*,#709,.F.);
#962=ORIENTED_EDGE('',*,*,#710,.F.);
#963=ORIENTED_EDGE('',*,*,#711,.T.);
#964=ORIENTED_EDGE('',*,*,#712,.T.);
#965=ORIENTED_EDGE('',*,*,#713,.T.);
#966=ORIENTED_EDGE('',*,*,#714,.F.);
#967=ORIENTED_EDGE('',*,*,#709,.T.);
#968=ORIENTED_EDGE('',*,*,#715,.F.);
#969=ORIENTED_EDGE('',*,*,#716,.F.);
#970=ORIENTED_EDGE('',*,*,#711,.F.);
#971=ORIENTED_EDGE('',*,*,#717,.T.);
#972=ORIENTED_EDGE('',*,*,#712,.F.);
#973=ORIENTED_EDGE('',*,*,#708,.F.);
#974=ORIENTED_EDGE('',*,*,#716,.T.);
#975=ORIENTED_EDGE('',*,*,#718,.T.);
#976=ORIENTED_EDGE('',*,*,#713,.F.);
#977=ORIENTED_EDGE('',*,*,#718,.F.);
#978=ORIENTED_EDGE('',*,*,#715,.T.);
#979=ORIENTED_EDGE('',*,*,#719,.T.);
#980=ORIENTED_EDGE('',*,*,#714,.T.);
#981=ORIENTED_EDGE('',*,*,#719,.F.);
#982=ORIENTED_EDGE('',*,*,#717,.F.);
#983=ORIENTED_EDGE('',*,*,#710,.T.);
#984=ORIENTED_EDGE('',*,*,#720,.T.);
#985=ORIENTED_EDGE('',*,*,#721,.T.);
#986=ORIENTED_EDGE('',*,*,#722,.F.);
#987=ORIENTED_EDGE('',*,*,#723,.F.);
#988=ORIENTED_EDGE('',*,*,#724,.T.);
#989=ORIENTED_EDGE('',*,*,#725,.F.);
#990=ORIENTED_EDGE('',*,*,#720,.F.);
#991=ORIENTED_EDGE('',*,*,#726,.T.);
#992=ORIENTED_EDGE('',*,*,#727,.F.);
#993=ORIENTED_EDGE('',*,*,#726,.F.);
#994=ORIENTED_EDGE('',*,*,#723,.T.);
#995=ORIENTED_EDGE('',*,*,#728,.T.);
#996=ORIENTED_EDGE('',*,*,#729,.F.);
#997=ORIENTED_EDGE('',*,*,#728,.F.);
#998=ORIENTED_EDGE('',*,*,#722,.T.);
#999=ORIENTED_EDGE('',*,*,#730,.T.);
#1000=ORIENTED_EDGE('',*,*,#731,.T.);
#1001=ORIENTED_EDGE('',*,*,#730,.F.);
#1002=ORIENTED_EDGE('',*,*,#721,.F.);
#1003=ORIENTED_EDGE('',*,*,#725,.T.);
#1004=ORIENTED_EDGE('',*,*,#731,.F.);
#1005=ORIENTED_EDGE('',*,*,#724,.F.);
#1006=ORIENTED_EDGE('',*,*,#727,.T.);
#1007=ORIENTED_EDGE('',*,*,#729,.T.);
#1008=CYLINDRICAL_SURFACE('',#1115,0.15);
#1009=CYLINDRICAL_SURFACE('',#1125,0.15);
#1010=CYLINDRICAL_SURFACE('',#1136,0.150000000000001);
#1011=CYLINDRICAL_SURFACE('',#1144,0.15);
#1012=CYLINDRICAL_SURFACE('',#1152,0.150000000000001);
#1013=CYLINDRICAL_SURFACE('',#1166,0.150000000000001);
#1014=CYLINDRICAL_SURFACE('',#1174,0.150000000000001);
#1015=CYLINDRICAL_SURFACE('',#1182,0.15);
#1016=CYLINDRICAL_SURFACE('',#1190,0.15);
#1017=CYLINDRICAL_SURFACE('',#1198,0.15);
#1018=ADVANCED_FACE('',(#103),#1008,.F.);
#1019=ADVANCED_FACE('',(#104),#42,.T.);
#1020=ADVANCED_FACE('',(#105),#43,.T.);
#1021=ADVANCED_FACE('',(#106),#44,.T.);
#1022=ADVANCED_FACE('',(#107,#41),#45,.F.);
#1023=ADVANCED_FACE('',(#108),#46,.T.);
#1024=ADVANCED_FACE('',(#109),#47,.T.);
#1025=ADVANCED_FACE('',(#110),#48,.T.);
#1026=ADVANCED_FACE('',(#111),#1009,.T.);
#1027=ADVANCED_FACE('',(#112),#49,.F.);
#1028=ADVANCED_FACE('',(#113),#50,.T.);
#1029=ADVANCED_FACE('',(#114),#51,.F.);
#1030=ADVANCED_FACE('',(#115),#52,.F.);
#1031=ADVANCED_FACE('',(#116),#53,.T.);
#1032=ADVANCED_FACE('',(#117),#54,.T.);
#1033=ADVANCED_FACE('',(#118),#1010,.T.);
#1034=ADVANCED_FACE('',(#119),#55,.F.);
#1035=ADVANCED_FACE('',(#120),#56,.F.);
#1036=ADVANCED_FACE('',(#121),#57,.F.);
#1037=ADVANCED_FACE('',(#122),#58,.T.);
#1038=ADVANCED_FACE('',(#123),#59,.T.);
#1039=ADVANCED_FACE('',(#124),#1011,.T.);
#1040=ADVANCED_FACE('',(#125),#60,.F.);
#1041=ADVANCED_FACE('',(#126),#61,.F.);
#1042=ADVANCED_FACE('',(#127),#62,.F.);
#1043=ADVANCED_FACE('',(#128),#63,.T.);
#1044=ADVANCED_FACE('',(#129),#64,.T.);
#1045=ADVANCED_FACE('',(#130),#1012,.T.);
#1046=ADVANCED_FACE('',(#131),#65,.F.);
#1047=ADVANCED_FACE('',(#132),#66,.T.);
#1048=ADVANCED_FACE('',(#133),#67,.F.);
#1049=ADVANCED_FACE('',(#134),#68,.F.);
#1050=ADVANCED_FACE('',(#135),#69,.T.);
#1051=ADVANCED_FACE('',(#136),#70,.T.);
#1052=ADVANCED_FACE('',(#137),#71,.F.);
#1053=ADVANCED_FACE('',(#138),#72,.F.);
#1054=ADVANCED_FACE('',(#139),#73,.F.);
#1055=ADVANCED_FACE('',(#140),#74,.T.);
#1056=ADVANCED_FACE('',(#141),#75,.T.);
#1057=ADVANCED_FACE('',(#142),#1013,.T.);
#1058=ADVANCED_FACE('',(#143),#76,.F.);
#1059=ADVANCED_FACE('',(#144),#77,.F.);
#1060=ADVANCED_FACE('',(#145),#78,.F.);
#1061=ADVANCED_FACE('',(#146),#79,.T.);
#1062=ADVANCED_FACE('',(#147),#80,.T.);
#1063=ADVANCED_FACE('',(#148),#1014,.T.);
#1064=ADVANCED_FACE('',(#149),#81,.F.);
#1065=ADVANCED_FACE('',(#150),#82,.F.);
#1066=ADVANCED_FACE('',(#151),#83,.F.);
#1067=ADVANCED_FACE('',(#152),#84,.T.);
#1068=ADVANCED_FACE('',(#153),#85,.T.);
#1069=ADVANCED_FACE('',(#154),#1015,.T.);
#1070=ADVANCED_FACE('',(#155),#86,.F.);
#1071=ADVANCED_FACE('',(#156),#87,.F.);
#1072=ADVANCED_FACE('',(#157),#88,.F.);
#1073=ADVANCED_FACE('',(#158),#89,.T.);
#1074=ADVANCED_FACE('',(#159),#90,.T.);
#1075=ADVANCED_FACE('',(#160),#1016,.T.);
#1076=ADVANCED_FACE('',(#161),#91,.F.);
#1077=ADVANCED_FACE('',(#162),#92,.F.);
#1078=ADVANCED_FACE('',(#163),#93,.F.);
#1079=ADVANCED_FACE('',(#164),#94,.T.);
#1080=ADVANCED_FACE('',(#165),#95,.T.);
#1081=ADVANCED_FACE('',(#166),#1017,.T.);
#1082=ADVANCED_FACE('',(#167),#96,.F.);
#1083=ADVANCED_FACE('',(#168),#97,.T.);
#1084=ADVANCED_FACE('',(#169),#98,.F.);
#1085=ADVANCED_FACE('',(#170),#99,.T.);
#1086=ADVANCED_FACE('',(#171),#100,.T.);
#1087=ADVANCED_FACE('',(#172),#101,.F.);
#1088=ADVANCED_FACE('',(#173),#102,.F.);
#1089=CLOSED_SHELL('',(#1018,#1019,#1020,#1021,#1022,#1023,#1024,#1025));
#1090=CLOSED_SHELL('',(#1026,#1027,#1028));
#1091=CLOSED_SHELL('',(#1029,#1030,#1031,#1032,#1033,#1034));
#1092=CLOSED_SHELL('',(#1035,#1036,#1037,#1038,#1039,#1040));
#1093=CLOSED_SHELL('',(#1041,#1042,#1043,#1044,#1045,#1046));
#1094=CLOSED_SHELL('',(#1047,#1048,#1049,#1050,#1051,#1052));
#1095=CLOSED_SHELL('',(#1053,#1054,#1055,#1056,#1057,#1058));
#1096=CLOSED_SHELL('',(#1059,#1060,#1061,#1062,#1063,#1064));
#1097=CLOSED_SHELL('',(#1065,#1066,#1067,#1068,#1069,#1070));
#1098=CLOSED_SHELL('',(#1071,#1072,#1073,#1074,#1075,#1076));
#1099=CLOSED_SHELL('',(#1077,#1078,#1079,#1080,#1081,#1082));
#1100=CLOSED_SHELL('',(#1083,#1084,#1085,#1086,#1087,#1088));
#1101=DERIVED_UNIT_ELEMENT(#1103,1.);
#1102=DERIVED_UNIT_ELEMENT(#1824,-3.);
#1103=(
MASS_UNIT()
NAMED_UNIT(*)
SI_UNIT(.KILO.,.GRAM.)
);
#1104=DERIVED_UNIT((#1101,#1102));
#1105=MEASURE_REPRESENTATION_ITEM('density measure',
POSITIVE_RATIO_MEASURE(7850.),#1104);
#1106=PROPERTY_DEFINITION_REPRESENTATION(#1111,#1108);
#1107=PROPERTY_DEFINITION_REPRESENTATION(#1112,#1109);
#1108=REPRESENTATION('material name',(#1110),#1821);
#1109=REPRESENTATION('density',(#1105),#1821);
#1110=DESCRIPTIVE_REPRESENTATION_ITEM('Steel','Steel');
#1111=PROPERTY_DEFINITION('material property','material name',#1836);
#1112=PROPERTY_DEFINITION('material property','density of part',#1836);
#1113=AXIS2_PLACEMENT_3D('',#1513,#1207,#1208);
#1114=AXIS2_PLACEMENT_3D('',#1514,#1209,#1210);
#1115=AXIS2_PLACEMENT_3D('',#1515,#1211,#1212);
#1116=AXIS2_PLACEMENT_3D('',#1517,#1213,#1214);
#1117=AXIS2_PLACEMENT_3D('',#1520,#1216,#1217);
#1118=AXIS2_PLACEMENT_3D('',#1521,#1218,#1219);
#1119=AXIS2_PLACEMENT_3D('',#1522,#1220,#1221);
#1120=AXIS2_PLACEMENT_3D('',#1531,#1226,#1227);
#1121=AXIS2_PLACEMENT_3D('',#1537,#1231,#1232);
#1122=AXIS2_PLACEMENT_3D('',#1541,#1235,#1236);
#1123=AXIS2_PLACEMENT_3D('',#1545,#1239,#1240);
#1124=AXIS2_PLACEMENT_3D('',#1547,#1242,#1243);
#1125=AXIS2_PLACEMENT_3D('',#1548,#1244,#1245);
#1126=AXIS2_PLACEMENT_3D('',#1550,#1246,#1247);
#1127=AXIS2_PLACEMENT_3D('',#1553,#1249,#1250);
#1128=AXIS2_PLACEMENT_3D('',#1554,#1251,#1252);
#1129=AXIS2_PLACEMENT_3D('',#1555,#1253,#1254);
#1130=AXIS2_PLACEMENT_3D('',#1556,#1255,#1256);
#1131=AXIS2_PLACEMENT_3D('',#1565,#1261,#1262);
#1132=AXIS2_PLACEMENT_3D('',#1569,#1264,#1265);
#1133=AXIS2_PLACEMENT_3D('',#1571,#1267,#1268);
#1134=AXIS2_PLACEMENT_3D('',#1574,#1269,#1270);
#1135=AXIS2_PLACEMENT_3D('',#1577,#1273,#1274);
#1136=AXIS2_PLACEMENT_3D('',#1579,#1276,#1277);
#1137=AXIS2_PLACEMENT_3D('',#1581,#1279,#1280);
#1138=AXIS2_PLACEMENT_3D('',#1582,#1281,#1282);
#1139=AXIS2_PLACEMENT_3D('',#1587,#1284,#1285);
#1140=AXIS2_PLACEMENT_3D('',#1591,#1288,#1289);
#1141=AXIS2_PLACEMENT_3D('',#1597,#1293,#1294);
#1142=AXIS2_PLACEMENT_3D('',#1600,#1295,#1296);
#1143=AXIS2_PLACEMENT_3D('',#1603,#1299,#1300);
#1144=AXIS2_PLACEMENT_3D('',#1605,#1302,#1303);
#1145=AXIS2_PLACEMENT_3D('',#1607,#1305,#1306);
#1146=AXIS2_PLACEMENT_3D('',#1608,#1307,#1308);
#1147=AXIS2_PLACEMENT_3D('',#1617,#1313,#1314);
#1148=AXIS2_PLACEMENT_3D('',#1621,#1316,#1317);
#1149=AXIS2_PLACEMENT_3D('',#1623,#1319,#1320);
#1150=AXIS2_PLACEMENT_3D('',#1626,#1321,#1322);
#1151=AXIS2_PLACEMENT_3D('',#1629,#1325,#1326);
#1152=AXIS2_PLACEMENT_3D('',#1631,#1328,#1329);
#1153=AXIS2_PLACEMENT_3D('',#1633,#1331,#1332);
#1154=AXIS2_PLACEMENT_3D('',#1634,#1333,#1334);
#1155=AXIS2_PLACEMENT_3D('',#1643,#1339,#1340);
#1156=AXIS2_PLACEMENT_3D('',#1649,#1344,#1345);
#1157=AXIS2_PLACEMENT_3D('',#1653,#1348,#1349);
#1158=AXIS2_PLACEMENT_3D('',#1657,#1352,#1353);
#1159=AXIS2_PLACEMENT_3D('',#1659,#1355,#1356);
#1160=AXIS2_PLACEMENT_3D('',#1660,#1357,#1358);
#1161=AXIS2_PLACEMENT_3D('',#1665,#1360,#1361);
#1162=AXIS2_PLACEMENT_3D('',#1669,#1364,#1365);
#1163=AXIS2_PLACEMENT_3D('',#1675,#1369,#1370);
#1164=AXIS2_PLACEMENT_3D('',#1678,#1371,#1372);
#1165=AXIS2_PLACEMENT_3D('',#1681,#1375,#1376);
#1166=AXIS2_PLACEMENT_3D('',#1683,#1378,#1379);
#1167=AXIS2_PLACEMENT_3D('',#1685,#1381,#1382);
#1168=AXIS2_PLACEMENT_3D('',#1686,#1383,#1384);
#1169=AXIS2_PLACEMENT_3D('',#1691,#1386,#1387);
#1170=AXIS2_PLACEMENT_3D('',#1695,#1390,#1391);
#1171=AXIS2_PLACEMENT_3D('',#1701,#1395,#1396);
#1172=AXIS2_PLACEMENT_3D('',#1704,#1397,#1398);
#1173=AXIS2_PLACEMENT_3D('',#1707,#1401,#1402);
#1174=AXIS2_PLACEMENT_3D('',#1709,#1404,#1405);
#1175=AXIS2_PLACEMENT_3D('',#1711,#1407,#1408);
#1176=AXIS2_PLACEMENT_3D('',#1712,#1409,#1410);
#1177=AXIS2_PLACEMENT_3D('',#1717,#1412,#1413);
#1178=AXIS2_PLACEMENT_3D('',#1721,#1416,#1417);
#1179=AXIS2_PLACEMENT_3D('',#1727,#1421,#1422);
#1180=AXIS2_PLACEMENT_3D('',#1730,#1423,#1424);
#1181=AXIS2_PLACEMENT_3D('',#1733,#1427,#1428);
#1182=AXIS2_PLACEMENT_3D('',#1735,#1430,#1431);
#1183=AXIS2_PLACEMENT_3D('',#1737,#1433,#1434);
#1184=AXIS2_PLACEMENT_3D('',#1738,#1435,#1436);
#1185=AXIS2_PLACEMENT_3D('',#1747,#1441,#1442);
#1186=AXIS2_PLACEMENT_3D('',#1751,#1444,#1445);
#1187=AXIS2_PLACEMENT_3D('',#1753,#1447,#1448);
#1188=AXIS2_PLACEMENT_3D('',#1756,#1449,#1450);
#1189=AXIS2_PLACEMENT_3D('',#1759,#1453,#1454);
#1190=AXIS2_PLACEMENT_3D('',#1761,#1456,#1457);
#1191=AXIS2_PLACEMENT_3D('',#1763,#1459,#1460);
#1192=AXIS2_PLACEMENT_3D('',#1764,#1461,#1462);
#1193=AXIS2_PLACEMENT_3D('',#1773,#1467,#1468);
#1194=AXIS2_PLACEMENT_3D('',#1777,#1470,#1471);
#1195=AXIS2_PLACEMENT_3D('',#1779,#1473,#1474);
#1196=AXIS2_PLACEMENT_3D('',#1782,#1475,#1476);
#1197=AXIS2_PLACEMENT_3D('',#1785,#1479,#1480);
#1198=AXIS2_PLACEMENT_3D('',#1787,#1482,#1483);
#1199=AXIS2_PLACEMENT_3D('',#1789,#1485,#1486);
#1200=AXIS2_PLACEMENT_3D('',#1790,#1487,#1488);
#1201=AXIS2_PLACEMENT_3D('',#1799,#1493,#1494);
#1202=AXIS2_PLACEMENT_3D('',#1805,#1498,#1499);
#1203=AXIS2_PLACEMENT_3D('',#1809,#1502,#1503);
#1204=AXIS2_PLACEMENT_3D('',#1813,#1506,#1507);
#1205=AXIS2_PLACEMENT_3D('',#1815,#1509,#1510);
#1206=AXIS2_PLACEMENT_3D('',#1816,#1511,#1512);
#1207=DIRECTION('axis',(0.,0.,1.));
#1208=DIRECTION('refdir',(1.,0.,0.));
#1209=DIRECTION('axis',(0.,0.,1.));
#1210=DIRECTION('refdir',(1.,0.,0.));
#1211=DIRECTION('center_axis',(0.,1.,0.));
#1212=DIRECTION('ref_axis',(0.,0.,1.));
#1213=DIRECTION('center_axis',(0.,1.,0.));
#1214=DIRECTION('ref_axis',(0.,0.,1.));
#1215=DIRECTION('',(0.,1.,0.));
#1216=DIRECTION('center_axis',(0.,1.,0.));
#1217=DIRECTION('ref_axis',(0.,0.,1.));
#1218=DIRECTION('center_axis',(0.,1.,0.));
#1219=DIRECTION('ref_axis',(1.,0.,0.));
#1220=DIRECTION('center_axis',(0.,0.,1.));
#1221=DIRECTION('ref_axis',(1.,0.,0.));
#1222=DIRECTION('',(-1.,0.,0.));
#1223=DIRECTION('',(0.,1.,0.));
#1224=DIRECTION('',(-1.,0.,0.));
#1225=DIRECTION('',(0.,1.,0.));
#1226=DIRECTION('center_axis',(-1.,0.,0.));
#1227=DIRECTION('ref_axis',(0.,0.,1.));
#1228=DIRECTION('',(0.,0.,-1.));
#1229=DIRECTION('',(0.,0.,-1.));
#1230=DIRECTION('',(0.,1.,0.));
#1231=DIRECTION('center_axis',(0.,-1.,0.));
#1232=DIRECTION('ref_axis',(0.,0.,-1.));
#1233=DIRECTION('',(0.,0.,1.));
#1234=DIRECTION('',(1.,0.,0.));
#1235=DIRECTION('center_axis',(1.,0.,0.));
#1236=DIRECTION('ref_axis',(0.,1.,0.));
#1237=DIRECTION('',(0.,0.,1.));
#1238=DIRECTION('',(0.,1.,0.));
#1239=DIRECTION('center_axis',(0.,-1.,0.));
#1240=DIRECTION('ref_axis',(0.,0.,-1.));
#1241=DIRECTION('',(1.,0.,0.));
#1242=DIRECTION('center_axis',(0.,0.,-1.));
#1243=DIRECTION('ref_axis',(0.,-1.,0.));
#1244=DIRECTION('center_axis',(0.,1.,0.));
#1245=DIRECTION('ref_axis',(0.,0.,1.));
#1246=DIRECTION('center_axis',(0.,1.,0.));
#1247=DIRECTION('ref_axis',(0.,0.,1.));
#1248=DIRECTION('',(0.,-1.,0.));
#1249=DIRECTION('center_axis',(0.,1.,0.));
#1250=DIRECTION('ref_axis',(0.,0.,1.));
#1251=DIRECTION('center_axis',(0.,1.,0.));
#1252=DIRECTION('ref_axis',(1.,0.,0.));
#1253=DIRECTION('center_axis',(0.,1.,0.));
#1254=DIRECTION('ref_axis',(1.,0.,0.));
#1255=DIRECTION('center_axis',(-1.,0.,0.));
#1256=DIRECTION('ref_axis',(0.,0.,1.));
#1257=DIRECTION('',(0.,-1.,0.));
#1258=DIRECTION('',(0.,0.,1.));
#1259=DIRECTION('',(0.,-1.,0.));
#1260=DIRECTION('',(0.,0.,1.));
#1261=DIRECTION('center_axis',(0.,1.,0.));
#1262=DIRECTION('ref_axis',(1.,0.,0.));
#1263=DIRECTION('',(-1.,0.,0.));
#1264=DIRECTION('center_axis',(0.,-1.,0.));
#1265=DIRECTION('ref_axis',(0.,0.,1.));
#1266=DIRECTION('',(-1.,0.,0.));
#1267=DIRECTION('center_axis',(0.,1.,0.));
#1268=DIRECTION('ref_axis',(1.,0.,0.));
#1269=DIRECTION('center_axis',(0.,-1.,0.));
#1270=DIRECTION('ref_axis',(0.,0.,1.));
#1271=DIRECTION('',(-1.,0.,0.));
#1272=DIRECTION('',(-1.,0.,0.));
#1273=DIRECTION('center_axis',(0.,0.,1.));
#1274=DIRECTION('ref_axis',(1.,0.,0.));
#1275=DIRECTION('',(0.,-1.,0.));
#1276=DIRECTION('center_axis',(0.,-1.,0.));
#1277=DIRECTION('ref_axis',(0.,0.,-1.));
#1278=DIRECTION('',(0.,-1.,0.));
#1279=DIRECTION('center_axis',(0.,0.,1.));
#1280=DIRECTION('ref_axis',(1.,0.,0.));
#1281=DIRECTION('center_axis',(0.,1.,0.));
#1282=DIRECTION('ref_axis',(1.,0.,0.));
#1283=DIRECTION('',(1.,0.,0.));
#1284=DIRECTION('center_axis',(0.,1.,0.));
#1285=DIRECTION('ref_axis',(0.,0.,1.));
#1286=DIRECTION('',(1.,0.,0.));
#1287=DIRECTION('',(0.,0.,-1.));
#1288=DIRECTION('center_axis',(1.,0.,0.));
#1289=DIRECTION('ref_axis',(0.,1.,0.));
#1290=DIRECTION('',(0.,-1.,0.));
#1291=DIRECTION('',(0.,-1.,0.));
#1292=DIRECTION('',(0.,0.,-1.));
#1293=DIRECTION('center_axis',(0.,1.,0.));
#1294=DIRECTION('ref_axis',(1.,0.,0.));
#1295=DIRECTION('center_axis',(0.,1.,0.));
#1296=DIRECTION('ref_axis',(0.,0.,1.));
#1297=DIRECTION('',(1.,0.,0.));
#1298=DIRECTION('',(1.,0.,0.));
#1299=DIRECTION('center_axis',(0.,0.,-1.));
#1300=DIRECTION('ref_axis',(-1.,0.,0.));
#1301=DIRECTION('',(0.,-1.,0.));
#1302=DIRECTION('center_axis',(0.,-1.,0.));
#1303=DIRECTION('ref_axis',(0.,0.,-1.));
#1304=DIRECTION('',(0.,-1.,0.));
#1305=DIRECTION('center_axis',(0.,0.,-1.));
#1306=DIRECTION('ref_axis',(-1.,0.,0.));
#1307=DIRECTION('center_axis',(-1.,0.,0.));
#1308=DIRECTION('ref_axis',(0.,0.,1.));
#1309=DIRECTION('',(0.,-1.,0.));
#1310=DIRECTION('',(0.,0.,1.));
#1311=DIRECTION('',(0.,-1.,0.));
#1312=DIRECTION('',(0.,0.,1.));
#1313=DIRECTION('center_axis',(0.,1.,0.));
#1314=DIRECTION('ref_axis',(1.,0.,0.));
#1315=DIRECTION('',(-1.,0.,0.));
#1316=DIRECTION('center_axis',(0.,-1.,0.));
#1317=DIRECTION('ref_axis',(0.,0.,1.));
#1318=DIRECTION('',(-1.,0.,0.));
#1319=DIRECTION('center_axis',(0.,1.,0.));
#1320=DIRECTION('ref_axis',(1.,0.,0.));
#1321=DIRECTION('center_axis',(0.,-1.,0.));
#1322=DIRECTION('ref_axis',(0.,0.,1.));
#1323=DIRECTION('',(-1.,0.,0.));
#1324=DIRECTION('',(-1.,0.,0.));
#1325=DIRECTION('center_axis',(0.,0.,1.));
#1326=DIRECTION('ref_axis',(1.,0.,0.));
#1327=DIRECTION('',(0.,-1.,0.));
#1328=DIRECTION('center_axis',(0.,-1.,0.));
#1329=DIRECTION('ref_axis',(0.,0.,-1.));
#1330=DIRECTION('',(0.,-1.,0.));
#1331=DIRECTION('center_axis',(0.,0.,1.));
#1332=DIRECTION('ref_axis',(1.,0.,0.));
#1333=DIRECTION('center_axis',(0.,1.,0.));
#1334=DIRECTION('ref_axis',(1.,0.,0.));
#1335=DIRECTION('',(-3.43895376585246E-15,0.,-1.));
#1336=DIRECTION('',(1.,0.,-3.25260651745651E-15));
#1337=DIRECTION('',(-3.43895376585246E-15,0.,-1.));
#1338=DIRECTION('',(1.,0.,-4.33680868994202E-15));
#1339=DIRECTION('center_axis',(-1.,0.,3.43895376585246E-15));
#1340=DIRECTION('ref_axis',(3.43895376585246E-15,0.,1.));
#1341=DIRECTION('',(-3.43895376585246E-15,0.,-1.));
#1342=DIRECTION('',(0.,-1.,0.));
#1343=DIRECTION('',(0.,-1.,0.));
#1344=DIRECTION('center_axis',(-4.33680868994202E-15,0.,-1.));
#1345=DIRECTION('ref_axis',(-1.,0.,4.33680868994202E-15));
#1346=DIRECTION('',(1.,0.,-4.33680868994202E-15));
#1347=DIRECTION('',(0.,-1.,0.));
#1348=DIRECTION('center_axis',(-1.,0.,3.43895376585246E-15));
#1349=DIRECTION('ref_axis',(3.43895376585246E-15,0.,1.));
#1350=DIRECTION('',(-3.43895376585246E-15,0.,-1.));
#1351=DIRECTION('',(0.,-1.,0.));
#1352=DIRECTION('center_axis',(-3.25260651745651E-15,0.,-1.));
#1353=DIRECTION('ref_axis',(-1.,0.,3.25260651745651E-15));
#1354=DIRECTION('',(1.,0.,-3.25260651745651E-15));
#1355=DIRECTION('center_axis',(0.,1.,0.));
#1356=DIRECTION('ref_axis',(1.,0.,0.));
#1357=DIRECTION('center_axis',(0.,1.,0.));
#1358=DIRECTION('ref_axis',(1.,0.,0.));
#1359=DIRECTION('',(1.,0.,0.));
#1360=DIRECTION('center_axis',(0.,1.,0.));
#1361=DIRECTION('ref_axis',(0.,0.,1.));
#1362=DIRECTION('',(1.,0.,0.));
#1363=DIRECTION('',(0.,0.,-1.));
#1364=DIRECTION('center_axis',(1.,0.,0.));
#1365=DIRECTION('ref_axis',(0.,1.,0.));
#1366=DIRECTION('',(0.,-1.,0.));
#1367=DIRECTION('',(0.,-1.,0.));
#1368=DIRECTION('',(0.,0.,-1.));
#1369=DIRECTION('center_axis',(0.,1.,0.));
#1370=DIRECTION('ref_axis',(1.,0.,0.));
#1371=DIRECTION('center_axis',(0.,1.,0.));
#1372=DIRECTION('ref_axis',(0.,0.,1.));
#1373=DIRECTION('',(1.,0.,0.));
#1374=DIRECTION('',(1.,0.,0.));
#1375=DIRECTION('center_axis',(0.,0.,-1.));
#1376=DIRECTION('ref_axis',(-1.,0.,0.));
#1377=DIRECTION('',(0.,-1.,0.));
#1378=DIRECTION('center_axis',(0.,-1.,0.));
#1379=DIRECTION('ref_axis',(0.,0.,-1.));
#1380=DIRECTION('',(0.,-1.,0.));
#1381=DIRECTION('center_axis',(0.,0.,-1.));
#1382=DIRECTION('ref_axis',(-1.,0.,0.));
#1383=DIRECTION('center_axis',(0.,1.,0.));
#1384=DIRECTION('ref_axis',(1.,0.,0.));
#1385=DIRECTION('',(1.,0.,0.));
#1386=DIRECTION('center_axis',(0.,1.,0.));
#1387=DIRECTION('ref_axis',(0.,0.,1.));
#1388=DIRECTION('',(1.,0.,0.));
#1389=DIRECTION('',(0.,0.,-1.));
#1390=DIRECTION('center_axis',(1.,0.,0.));
#1391=DIRECTION('ref_axis',(0.,1.,0.));
#1392=DIRECTION('',(0.,-1.,0.));
#1393=DIRECTION('',(0.,-1.,0.));
#1394=DIRECTION('',(0.,0.,-1.));
#1395=DIRECTION('center_axis',(0.,1.,0.));
#1396=DIRECTION('ref_axis',(1.,0.,0.));
#1397=DIRECTION('center_axis',(0.,1.,0.));
#1398=DIRECTION('ref_axis',(0.,0.,1.));
#1399=DIRECTION('',(1.,0.,0.));
#1400=DIRECTION('',(1.,0.,0.));
#1401=DIRECTION('center_axis',(0.,0.,-1.));
#1402=DIRECTION('ref_axis',(-1.,0.,0.));
#1403=DIRECTION('',(0.,-1.,0.));
#1404=DIRECTION('center_axis',(0.,-1.,0.));
#1405=DIRECTION('ref_axis',(0.,0.,-1.));
#1406=DIRECTION('',(0.,-1.,0.));
#1407=DIRECTION('center_axis',(0.,0.,-1.));
#1408=DIRECTION('ref_axis',(-1.,0.,0.));
#1409=DIRECTION('center_axis',(0.,1.,0.));
#1410=DIRECTION('ref_axis',(1.,0.,0.));
#1411=DIRECTION('',(1.,0.,0.));
#1412=DIRECTION('center_axis',(0.,1.,0.));
#1413=DIRECTION('ref_axis',(0.,0.,1.));
#1414=DIRECTION('',(1.,0.,0.));
#1415=DIRECTION('',(0.,0.,-1.));
#1416=DIRECTION('center_axis',(1.,0.,0.));
#1417=DIRECTION('ref_axis',(0.,1.,0.));
#1418=DIRECTION('',(0.,-1.,0.));
#1419=DIRECTION('',(0.,-1.,0.));
#1420=DIRECTION('',(0.,0.,-1.));
#1421=DIRECTION('center_axis',(0.,1.,0.));
#1422=DIRECTION('ref_axis',(1.,0.,0.));
#1423=DIRECTION('center_axis',(0.,1.,0.));
#1424=DIRECTION('ref_axis',(0.,0.,1.));
#1425=DIRECTION('',(1.,0.,0.));
#1426=DIRECTION('',(1.,0.,0.));
#1427=DIRECTION('center_axis',(0.,0.,-1.));
#1428=DIRECTION('ref_axis',(-1.,0.,0.));
#1429=DIRECTION('',(0.,-1.,0.));
#1430=DIRECTION('center_axis',(0.,-1.,0.));
#1431=DIRECTION('ref_axis',(0.,0.,-1.));
#1432=DIRECTION('',(0.,-1.,0.));
#1433=DIRECTION('center_axis',(0.,0.,-1.));
#1434=DIRECTION('ref_axis',(-1.,0.,0.));
#1435=DIRECTION('center_axis',(-1.,0.,0.));
#1436=DIRECTION('ref_axis',(0.,0.,1.));
#1437=DIRECTION('',(0.,-1.,0.));
#1438=DIRECTION('',(0.,0.,1.));
#1439=DIRECTION('',(0.,-1.,0.));
#1440=DIRECTION('',(0.,0.,1.));
#1441=DIRECTION('center_axis',(0.,1.,0.));
#1442=DIRECTION('ref_axis',(1.,0.,0.));
#1443=DIRECTION('',(-1.,0.,0.));
#1444=DIRECTION('center_axis',(0.,-1.,0.));
#1445=DIRECTION('ref_axis',(0.,0.,1.));
#1446=DIRECTION('',(-1.,0.,0.));
#1447=DIRECTION('center_axis',(0.,1.,0.));
#1448=DIRECTION('ref_axis',(1.,0.,0.));
#1449=DIRECTION('center_axis',(0.,-1.,0.));
#1450=DIRECTION('ref_axis',(0.,0.,1.));
#1451=DIRECTION('',(-1.,0.,0.));
#1452=DIRECTION('',(-1.,0.,0.));
#1453=DIRECTION('center_axis',(0.,0.,1.));
#1454=DIRECTION('ref_axis',(1.,0.,0.));
#1455=DIRECTION('',(0.,-1.,0.));
#1456=DIRECTION('center_axis',(0.,-1.,0.));
#1457=DIRECTION('ref_axis',(0.,0.,-1.));
#1458=DIRECTION('',(0.,-1.,0.));
#1459=DIRECTION('center_axis',(0.,0.,1.));
#1460=DIRECTION('ref_axis',(1.,0.,0.));
#1461=DIRECTION('center_axis',(-1.,0.,0.));
#1462=DIRECTION('ref_axis',(0.,0.,1.));
#1463=DIRECTION('',(0.,-1.,0.));
#1464=DIRECTION('',(0.,0.,1.));
#1465=DIRECTION('',(0.,-1.,0.));
#1466=DIRECTION('',(0.,0.,1.));
#1467=DIRECTION('center_axis',(0.,1.,0.));
#1468=DIRECTION('ref_axis',(1.,0.,0.));
#1469=DIRECTION('',(-1.,0.,0.));
#1470=DIRECTION('center_axis',(0.,-1.,0.));
#1471=DIRECTION('ref_axis',(0.,0.,1.));
#1472=DIRECTION('',(-1.,0.,0.));
#1473=DIRECTION('center_axis',(0.,1.,0.));
#1474=DIRECTION('ref_axis',(1.,0.,0.));
#1475=DIRECTION('center_axis',(0.,-1.,0.));
#1476=DIRECTION('ref_axis',(0.,0.,1.));
#1477=DIRECTION('',(-1.,0.,0.));
#1478=DIRECTION('',(-1.,0.,0.));
#1479=DIRECTION('center_axis',(0.,0.,1.));
#1480=DIRECTION('ref_axis',(1.,0.,0.));
#1481=DIRECTION('',(0.,-1.,0.));
#1482=DIRECTION('center_axis',(0.,-1.,0.));
#1483=DIRECTION('ref_axis',(0.,0.,-1.));
#1484=DIRECTION('',(0.,-1.,0.));
#1485=DIRECTION('center_axis',(0.,0.,1.));
#1486=DIRECTION('ref_axis',(1.,0.,0.));
#1487=DIRECTION('center_axis',(0.,1.,0.));
#1488=DIRECTION('ref_axis',(1.,0.,0.));
#1489=DIRECTION('',(-2.37169225231204E-16,0.,1.));
#1490=DIRECTION('',(1.,0.,0.));
#1491=DIRECTION('',(0.,0.,1.));
#1492=DIRECTION('',(1.,0.,0.));
#1493=DIRECTION('center_axis',(1.,0.,2.37169225231204E-16));
#1494=DIRECTION('ref_axis',(2.37169225231204E-16,0.,-1.));
#1495=DIRECTION('',(-2.37169225231204E-16,0.,1.));
#1496=DIRECTION('',(0.,-1.,0.));
#1497=DIRECTION('',(0.,-1.,0.));
#1498=DIRECTION('center_axis',(0.,0.,-1.));
#1499=DIRECTION('ref_axis',(-1.,0.,0.));
#1500=DIRECTION('',(1.,0.,0.));
#1501=DIRECTION('',(0.,-1.,0.));
#1502=DIRECTION('center_axis',(1.,0.,0.));
#1503=DIRECTION('ref_axis',(0.,0.,-1.));
#1504=DIRECTION('',(0.,0.,1.));
#1505=DIRECTION('',(0.,-1.,0.));
#1506=DIRECTION('center_axis',(0.,0.,-1.));
#1507=DIRECTION('ref_axis',(-1.,0.,0.));
#1508=DIRECTION('',(1.,0.,0.));
#1509=DIRECTION('center_axis',(0.,1.,0.));
#1510=DIRECTION('ref_axis',(1.,0.,0.));
#1511=DIRECTION('',(0.,-1.,-8.32667268468868E-17));
#1512=DIRECTION('',(0.999999999999999,0.,0.));
#1513=CARTESIAN_POINT('',(0.,0.,0.));
#1514=CARTESIAN_POINT('',(0.,0.,0.));
#1515=CARTESIAN_POINT('Origin',(-1.119,0.6,-1.619));
#1516=CARTESIAN_POINT('',(-1.119,0.54,-1.769));
#1517=CARTESIAN_POINT('Origin',(-1.119,0.54,-1.619));
#1518=CARTESIAN_POINT('',(-1.119,0.6,-1.769));
#1519=CARTESIAN_POINT('',(-1.119,0.6,-1.769));
#1520=CARTESIAN_POINT('Origin',(-1.119,0.6,-1.619));
#1521=CARTESIAN_POINT('Origin',(-1.119,0.54,-1.619));
#1522=CARTESIAN_POINT('Origin',(1.5,0.,2.));
#1523=CARTESIAN_POINT('',(1.5,0.05,2.));
#1524=CARTESIAN_POINT('',(-1.5,0.05,2.));
#1525=CARTESIAN_POINT('',(1.5,0.05,2.));
#1526=CARTESIAN_POINT('',(1.5,0.6,2.));
#1527=CARTESIAN_POINT('',(1.5,0.,2.));
#1528=CARTESIAN_POINT('',(-1.5,0.6,2.));
#1529=CARTESIAN_POINT('',(1.5,0.6,2.));
#1530=CARTESIAN_POINT('',(-1.5,0.,2.));
#1531=CARTESIAN_POINT('Origin',(-1.5,0.,2.));
#1532=CARTESIAN_POINT('',(-1.5,0.05,-2.));
#1533=CARTESIAN_POINT('',(-1.5,0.05,2.));
#1534=CARTESIAN_POINT('',(-1.5,0.6,-2.));
#1535=CARTESIAN_POINT('',(-1.5,0.6,2.));
#1536=CARTESIAN_POINT('',(-1.5,0.,-2.));
#1537=CARTESIAN_POINT('Origin',(0.,0.6,0.));
#1538=CARTESIAN_POINT('',(1.5,0.6,-2.));
#1539=CARTESIAN_POINT('',(1.5,0.6,-2.));
#1540=CARTESIAN_POINT('',(-1.5,0.6,-2.));
#1541=CARTESIAN_POINT('Origin',(1.5,0.,-2.));
#1542=CARTESIAN_POINT('',(1.5,0.05,-2.));
#1543=CARTESIAN_POINT('',(1.5,0.05,-2.));
#1544=CARTESIAN_POINT('',(1.5,0.,-2.));
#1545=CARTESIAN_POINT('Origin',(0.,0.05,0.));
#1546=CARTESIAN_POINT('',(-1.5,0.05,-2.));
#1547=CARTESIAN_POINT('Origin',(-1.5,0.,-2.));
#1548=CARTESIAN_POINT('Origin',(-1.119,0.6,-1.619));
#1549=CARTESIAN_POINT('',(-1.119,0.6,-1.769));
#1550=CARTESIAN_POINT('Origin',(-1.119,0.6,-1.619));
#1551=CARTESIAN_POINT('',(-1.119,0.54,-1.769));
#1552=CARTESIAN_POINT('',(-1.119,0.6,-1.769));
#1553=CARTESIAN_POINT('Origin',(-1.119,0.54,-1.619));
#1554=CARTESIAN_POINT('Origin',(-1.119,0.54,-1.619));
#1555=CARTESIAN_POINT('Origin',(-1.119,0.6,-1.619));
#1556=CARTESIAN_POINT('Origin',(1.5,0.05,-1.36));
#1557=CARTESIAN_POINT('',(1.49999999999999,0.05,-1.05));
#1558=CARTESIAN_POINT('',(1.49999999999999,0.,-1.05));
#1559=CARTESIAN_POINT('',(1.49999999999999,0.05,-1.05));
#1560=CARTESIAN_POINT('',(1.49999999999999,0.,-1.35));
#1561=CARTESIAN_POINT('',(1.5,0.,-2.));
#1562=CARTESIAN_POINT('',(1.49999999999999,0.05,-1.35));
#1563=CARTESIAN_POINT('',(1.49999999999999,0.05,-1.35));
#1564=CARTESIAN_POINT('',(1.5,0.05,-2.));
#1565=CARTESIAN_POINT('Origin',(1.345,6.938893903907E-18,-1.2));
#1566=CARTESIAN_POINT('',(1.04999999999999,0.,-1.05));
#1567=CARTESIAN_POINT('',(0.,0.,-1.05));
#1568=CARTESIAN_POINT('',(1.04999999999999,0.,-1.35));
#1569=CARTESIAN_POINT('Origin',(1.04999999999999,0.,-1.2));
#1570=CARTESIAN_POINT('',(0.,0.,-1.35));
#1571=CARTESIAN_POINT('Origin',(1.345,0.05,-1.2));
#1572=CARTESIAN_POINT('',(1.04999999999999,0.05,-1.05));
#1573=CARTESIAN_POINT('',(1.04999999999999,0.05,-1.35));
#1574=CARTESIAN_POINT('Origin',(1.04999999999999,0.05,-1.2));
#1575=CARTESIAN_POINT('',(0.,0.05,-1.05));
#1576=CARTESIAN_POINT('',(0.,0.05,-1.35));
#1577=CARTESIAN_POINT('Origin',(0.,0.05,-1.05));
#1578=CARTESIAN_POINT('',(1.04999999999999,0.05,-1.05));
#1579=CARTESIAN_POINT('Origin',(1.04999999999999,0.05,-1.2));
#1580=CARTESIAN_POINT('',(1.04999999999999,0.05,-1.35));
#1581=CARTESIAN_POINT('Origin',(0.,0.05,-1.35));
#1582=CARTESIAN_POINT('Origin',(-1.345,6.938893903907E-18,1.2));
#1583=CARTESIAN_POINT('',(-1.5,0.,1.05));
#1584=CARTESIAN_POINT('',(-1.05,0.,1.05));
#1585=CARTESIAN_POINT('',(0.,0.,1.05));
#1586=CARTESIAN_POINT('',(-1.05,0.,1.35));
#1587=CARTESIAN_POINT('Origin',(-1.05,0.,1.2));
#1588=CARTESIAN_POINT('',(-1.5,0.,1.35));
#1589=CARTESIAN_POINT('',(0.,0.,1.35));
#1590=CARTESIAN_POINT('',(-1.5,0.,2.));
#1591=CARTESIAN_POINT('Origin',(-1.5,0.05,1.36));
#1592=CARTESIAN_POINT('',(-1.5,0.05,1.05));
#1593=CARTESIAN_POINT('',(-1.5,0.05,1.05));
#1594=CARTESIAN_POINT('',(-1.5,0.05,1.35));
#1595=CARTESIAN_POINT('',(-1.5,0.05,1.35));
#1596=CARTESIAN_POINT('',(-1.5,0.05,2.));
#1597=CARTESIAN_POINT('Origin',(-1.345,0.05,1.2));
#1598=CARTESIAN_POINT('',(-1.05,0.05,1.35));
#1599=CARTESIAN_POINT('',(-1.05,0.05,1.05));
#1600=CARTESIAN_POINT('Origin',(-1.05,0.05,1.2));
#1601=CARTESIAN_POINT('',(0.,0.05,1.05));
#1602=CARTESIAN_POINT('',(0.,0.05,1.35));
#1603=CARTESIAN_POINT('Origin',(0.,0.05,1.05));
#1604=CARTESIAN_POINT('',(-1.05,0.05,1.05));
#1605=CARTESIAN_POINT('Origin',(-1.05,0.05,1.2));
#1606=CARTESIAN_POINT('',(-1.05,0.05,1.35));
#1607=CARTESIAN_POINT('Origin',(0.,0.05,1.35));
#1608=CARTESIAN_POINT('Origin',(1.5,0.05,-0.56));
#1609=CARTESIAN_POINT('',(1.49999999999999,0.05,-0.25));
#1610=CARTESIAN_POINT('',(1.49999999999999,0.,-0.25));
#1611=CARTESIAN_POINT('',(1.49999999999999,0.05,-0.25));
#1612=CARTESIAN_POINT('',(1.49999999999999,0.,-0.550000000000002));
#1613=CARTESIAN_POINT('',(1.5,0.,-2.));
#1614=CARTESIAN_POINT('',(1.49999999999999,0.05,-0.550000000000002));
#1615=CARTESIAN_POINT('',(1.49999999999999,0.05,-0.550000000000002));
#1616=CARTESIAN_POINT('',(1.5,0.05,-2.));
#1617=CARTESIAN_POINT('Origin',(1.345,-1.387778780781E-17,-0.4));
#1618=CARTESIAN_POINT('',(1.05,0.,-0.25));
#1619=CARTESIAN_POINT('',(0.,0.,-0.25));
#1620=CARTESIAN_POINT('',(1.05,0.,-0.550000000000002));
#1621=CARTESIAN_POINT('Origin',(1.05,0.,-0.400000000000001));
#1622=CARTESIAN_POINT('',(0.,0.,-0.550000000000002));
#1623=CARTESIAN_POINT('Origin',(1.345,0.05,-0.4));
#1624=CARTESIAN_POINT('',(1.05,0.05,-0.25));
#1625=CARTESIAN_POINT('',(1.05,0.05,-0.550000000000002));
#1626=CARTESIAN_POINT('Origin',(1.05,0.05,-0.400000000000001));
#1627=CARTESIAN_POINT('',(0.,0.05,-0.25));
#1628=CARTESIAN_POINT('',(0.,0.05,-0.550000000000002));
#1629=CARTESIAN_POINT('Origin',(0.,0.05,-0.25));
#1630=CARTESIAN_POINT('',(1.05,0.05,-0.25));
#1631=CARTESIAN_POINT('Origin',(1.05,0.05,-0.400000000000001));
#1632=CARTESIAN_POINT('',(1.05,0.05,-0.550000000000002));
#1633=CARTESIAN_POINT('Origin',(0.,0.05,-0.550000000000002));
#1634=CARTESIAN_POINT('Origin',(0.,0.05,0.8));
#1635=CARTESIAN_POINT('',(0.100000000000004,0.05,1.2));
#1636=CARTESIAN_POINT('',(0.100000000000001,0.05,0.399999999999999));
#1637=CARTESIAN_POINT('',(0.1,0.05,-3.43895376585246E-16));
#1638=CARTESIAN_POINT('',(-0.0999999999999986,0.05,0.4));
#1639=CARTESIAN_POINT('',(1.3010426069826E-15,0.05,0.4));
#1640=CARTESIAN_POINT('',(-0.0999999999999959,0.05,1.2));
#1641=CARTESIAN_POINT('',(-0.1,0.05,3.43895376585246E-16));
#1642=CARTESIAN_POINT('',(5.20417042793042E-15,0.05,1.2));
#1643=CARTESIAN_POINT('Origin',(0.1,0.05,-3.43895376585246E-16));
#1644=CARTESIAN_POINT('',(0.100000000000004,0.,1.2));
#1645=CARTESIAN_POINT('',(0.100000000000001,6.938893903907E-18,0.399999999999999));
#1646=CARTESIAN_POINT('',(0.1,0.,-3.43895376585246E-16));
#1647=CARTESIAN_POINT('',(0.100000000000001,0.05,0.399999999999999));
#1648=CARTESIAN_POINT('',(0.100000000000004,0.05,1.2));
#1649=CARTESIAN_POINT('Origin',(5.20417042793042E-15,0.05,1.2));
#1650=CARTESIAN_POINT('',(-0.0999999999999959,0.,1.2));
#1651=CARTESIAN_POINT('',(5.20417042793042E-15,0.,1.2));
#1652=CARTESIAN_POINT('',(-0.0999999999999959,0.05,1.2));
#1653=CARTESIAN_POINT('Origin',(-0.1,0.05,3.43895376585246E-16));
#1654=CARTESIAN_POINT('',(-0.0999999999999986,0.,0.4));
#1655=CARTESIAN_POINT('',(-0.1,0.,3.43895376585246E-16));
#1656=CARTESIAN_POINT('',(-0.0999999999999986,0.05,0.4));
#1657=CARTESIAN_POINT('Origin',(1.3010426069826E-15,0.05,0.4));
#1658=CARTESIAN_POINT('',(1.3010426069826E-15,0.,0.4));
#1659=CARTESIAN_POINT('Origin',(0.,6.938893903907E-18,0.8));
#1660=CARTESIAN_POINT('Origin',(-1.345,6.938893903907E-18,-1.2));
#1661=CARTESIAN_POINT('',(-1.50000000000001,0.,-1.35));
#1662=CARTESIAN_POINT('',(-1.05000000000001,0.,-1.35));
#1663=CARTESIAN_POINT('',(0.,0.,-1.35));
#1664=CARTESIAN_POINT('',(-1.05000000000001,0.,-1.05));
#1665=CARTESIAN_POINT('Origin',(-1.05000000000001,0.,-1.2));
#1666=CARTESIAN_POINT('',(-1.50000000000001,0.,-1.05));
#1667=CARTESIAN_POINT('',(0.,0.,-1.05));
#1668=CARTESIAN_POINT('',(-1.5,0.,2.));
#1669=CARTESIAN_POINT('Origin',(-1.5,0.05,-1.04));
#1670=CARTESIAN_POINT('',(-1.50000000000001,0.05,-1.35));
#1671=CARTESIAN_POINT('',(-1.50000000000001,0.05,-1.35));
#1672=CARTESIAN_POINT('',(-1.50000000000001,0.05,-1.05));
#1673=CARTESIAN_POINT('',(-1.50000000000001,0.05,-1.05));
#1674=CARTESIAN_POINT('',(-1.5,0.05,2.));
#1675=CARTESIAN_POINT('Origin',(-1.345,0.05,-1.2));
#1676=CARTESIAN_POINT('',(-1.05000000000001,0.05,-1.05));
#1677=CARTESIAN_POINT('',(-1.05000000000001,0.05,-1.35));
#1678=CARTESIAN_POINT('Origin',(-1.05000000000001,0.05,-1.2));
#1679=CARTESIAN_POINT('',(0.,0.05,-1.35));
#1680=CARTESIAN_POINT('',(0.,0.05,-1.05));
#1681=CARTESIAN_POINT('Origin',(0.,0.05,-1.35));
#1682=CARTESIAN_POINT('',(-1.05000000000001,0.05,-1.35));
#1683=CARTESIAN_POINT('Origin',(-1.05000000000001,0.05,-1.2));
#1684=CARTESIAN_POINT('',(-1.05000000000001,0.05,-1.05));
#1685=CARTESIAN_POINT('Origin',(0.,0.05,-1.05));
#1686=CARTESIAN_POINT('Origin',(-1.345,-1.387778780781E-17,-0.4));
#1687=CARTESIAN_POINT('',(-1.50000000000001,0.,-0.550000000000002));
#1688=CARTESIAN_POINT('',(-1.05000000000001,0.,-0.550000000000002));
#1689=CARTESIAN_POINT('',(0.,0.,-0.550000000000002));
#1690=CARTESIAN_POINT('',(-1.05000000000001,0.,-0.25));
#1691=CARTESIAN_POINT('Origin',(-1.05000000000001,0.,-0.400000000000001));
#1692=CARTESIAN_POINT('',(-1.50000000000001,0.,-0.25));
#1693=CARTESIAN_POINT('',(0.,0.,-0.25));
#1694=CARTESIAN_POINT('',(-1.5,0.,2.));
#1695=CARTESIAN_POINT('Origin',(-1.5,0.05,-0.24));
#1696=CARTESIAN_POINT('',(-1.50000000000001,0.05,-0.550000000000002));
#1697=CARTESIAN_POINT('',(-1.50000000000001,0.05,-0.550000000000002));
#1698=CARTESIAN_POINT('',(-1.50000000000001,0.05,-0.25));
#1699=CARTESIAN_POINT('',(-1.50000000000001,0.05,-0.25));
#1700=CARTESIAN_POINT('',(-1.5,0.05,2.));
#1701=CARTESIAN_POINT('Origin',(-1.345,0.05,-0.4));
#1702=CARTESIAN_POINT('',(-1.05000000000001,0.05,-0.25));
#1703=CARTESIAN_POINT('',(-1.05000000000001,0.05,-0.550000000000002));
#1704=CARTESIAN_POINT('Origin',(-1.05000000000001,0.05,-0.400000000000001));
#1705=CARTESIAN_POINT('',(0.,0.05,-0.550000000000002));
#1706=CARTESIAN_POINT('',(0.,0.05,-0.25));
#1707=CARTESIAN_POINT('Origin',(0.,0.05,-0.550000000000002));
#1708=CARTESIAN_POINT('',(-1.05000000000001,0.05,-0.550000000000002));
#1709=CARTESIAN_POINT('Origin',(-1.05000000000001,0.05,-0.400000000000001));
#1710=CARTESIAN_POINT('',(-1.05000000000001,0.05,-0.25));
#1711=CARTESIAN_POINT('Origin',(0.,0.05,-0.25));
#1712=CARTESIAN_POINT('Origin',(-1.345,-1.387778780781E-17,0.4));
#1713=CARTESIAN_POINT('',(-1.5,0.,0.25));
#1714=CARTESIAN_POINT('',(-1.05,0.,0.25));
#1715=CARTESIAN_POINT('',(0.,0.,0.25));
#1716=CARTESIAN_POINT('',(-1.05,0.,0.55));
#1717=CARTESIAN_POINT('Origin',(-1.05,0.,0.399999999999999));
#1718=CARTESIAN_POINT('',(-1.5,0.,0.55));
#1719=CARTESIAN_POINT('',(0.,0.,0.55));
#1720=CARTESIAN_POINT('',(-1.5,0.,2.));
#1721=CARTESIAN_POINT('Origin',(-1.5,0.05,0.56));
#1722=CARTESIAN_POINT('',(-1.5,0.05,0.25));
#1723=CARTESIAN_POINT('',(-1.5,0.05,0.25));
#1724=CARTESIAN_POINT('',(-1.5,0.05,0.55));
#1725=CARTESIAN_POINT('',(-1.5,0.05,0.55));
#1726=CARTESIAN_POINT('',(-1.5,0.05,2.));
#1727=CARTESIAN_POINT('Origin',(-1.345,0.05,0.4));
#1728=CARTESIAN_POINT('',(-1.05,0.05,0.55));
#1729=CARTESIAN_POINT('',(-1.05,0.05,0.25));
#1730=CARTESIAN_POINT('Origin',(-1.05,0.05,0.399999999999999));
#1731=CARTESIAN_POINT('',(0.,0.05,0.25));
#1732=CARTESIAN_POINT('',(0.,0.05,0.55));
#1733=CARTESIAN_POINT('Origin',(0.,0.05,0.25));
#1734=CARTESIAN_POINT('',(-1.05,0.05,0.25));
#1735=CARTESIAN_POINT('Origin',(-1.05,0.05,0.399999999999999));
#1736=CARTESIAN_POINT('',(-1.05,0.05,0.55));
#1737=CARTESIAN_POINT('Origin',(0.,0.05,0.55));
#1738=CARTESIAN_POINT('Origin',(1.5,0.05,1.04));
#1739=CARTESIAN_POINT('',(1.5,0.05,1.35));
#1740=CARTESIAN_POINT('',(1.5,0.,1.35));
#1741=CARTESIAN_POINT('',(1.5,0.05,1.35));
#1742=CARTESIAN_POINT('',(1.5,0.,1.05));
#1743=CARTESIAN_POINT('',(1.5,0.,-2.));
#1744=CARTESIAN_POINT('',(1.5,0.05,1.05));
#1745=CARTESIAN_POINT('',(1.5,0.05,1.05));
#1746=CARTESIAN_POINT('',(1.5,0.05,-2.));
#1747=CARTESIAN_POINT('Origin',(1.345,6.938893903907E-18,1.2));
#1748=CARTESIAN_POINT('',(1.05,0.,1.35));
#1749=CARTESIAN_POINT('',(0.,0.,1.35));
#1750=CARTESIAN_POINT('',(1.05,0.,1.05));
#1751=CARTESIAN_POINT('Origin',(1.05,0.,1.2));
#1752=CARTESIAN_POINT('',(0.,0.,1.05));
#1753=CARTESIAN_POINT('Origin',(1.345,0.05,1.2));
#1754=CARTESIAN_POINT('',(1.05,0.05,1.35));
#1755=CARTESIAN_POINT('',(1.05,0.05,1.05));
#1756=CARTESIAN_POINT('Origin',(1.05,0.05,1.2));
#1757=CARTESIAN_POINT('',(0.,0.05,1.35));
#1758=CARTESIAN_POINT('',(0.,0.05,1.05));
#1759=CARTESIAN_POINT('Origin',(0.,0.05,1.35));
#1760=CARTESIAN_POINT('',(1.05,0.05,1.35));
#1761=CARTESIAN_POINT('Origin',(1.05,0.05,1.2));
#1762=CARTESIAN_POINT('',(1.05,0.05,1.05));
#1763=CARTESIAN_POINT('Origin',(0.,0.05,1.05));
#1764=CARTESIAN_POINT('Origin',(1.5,0.05,0.24));
#1765=CARTESIAN_POINT('',(1.5,0.05,0.55));
#1766=CARTESIAN_POINT('',(1.5,0.,0.55));
#1767=CARTESIAN_POINT('',(1.5,0.05,0.55));
#1768=CARTESIAN_POINT('',(1.5,0.,0.25));
#1769=CARTESIAN_POINT('',(1.5,0.,-2.));
#1770=CARTESIAN_POINT('',(1.5,0.05,0.25));
#1771=CARTESIAN_POINT('',(1.5,0.05,0.25));
#1772=CARTESIAN_POINT('',(1.5,0.05,-2.));
#1773=CARTESIAN_POINT('Origin',(1.345,-1.387778780781E-17,0.4));
#1774=CARTESIAN_POINT('',(1.05,0.,0.55));
#1775=CARTESIAN_POINT('',(0.,0.,0.55));
#1776=CARTESIAN_POINT('',(1.05,0.,0.25));
#1777=CARTESIAN_POINT('Origin',(1.05,0.,0.399999999999999));
#1778=CARTESIAN_POINT('',(0.,0.,0.25));
#1779=CARTESIAN_POINT('Origin',(1.345,0.05,0.4));
#1780=CARTESIAN_POINT('',(1.05,0.05,0.55));
#1781=CARTESIAN_POINT('',(1.05,0.05,0.25));
#1782=CARTESIAN_POINT('Origin',(1.05,0.05,0.399999999999999));
#1783=CARTESIAN_POINT('',(0.,0.05,0.55));
#1784=CARTESIAN_POINT('',(0.,0.05,0.25));
#1785=CARTESIAN_POINT('Origin',(0.,0.05,0.55));
#1786=CARTESIAN_POINT('',(1.05,0.05,0.55));
#1787=CARTESIAN_POINT('Origin',(1.05,0.05,0.399999999999999));
#1788=CARTESIAN_POINT('',(1.05,0.05,0.25));
#1789=CARTESIAN_POINT('Origin',(0.,0.05,0.25));
#1790=CARTESIAN_POINT('Origin',(0.,0.05,-0.8));
#1791=CARTESIAN_POINT('',(-0.1,0.05,-1.2));
#1792=CARTESIAN_POINT('',(-0.1,0.05,-0.4));
#1793=CARTESIAN_POINT('',(-0.1,0.05,-2.37169225231205E-17));
#1794=CARTESIAN_POINT('',(0.1,0.05,-0.4));
#1795=CARTESIAN_POINT('',(0.,0.05,-0.4));
#1796=CARTESIAN_POINT('',(0.1,0.05,-1.2));
#1797=CARTESIAN_POINT('',(0.1,0.05,0.));
#1798=CARTESIAN_POINT('',(0.,0.05,-1.2));
#1799=CARTESIAN_POINT('Origin',(-0.1,0.05,-2.37169225231205E-17));
#1800=CARTESIAN_POINT('',(-0.1,0.,-1.2));
#1801=CARTESIAN_POINT('',(-0.1,6.938893903907E-18,-0.4));
#1802=CARTESIAN_POINT('',(-0.1,0.,-2.37169225231205E-17));
#1803=CARTESIAN_POINT('',(-0.1,0.05,-0.4));
#1804=CARTESIAN_POINT('',(-0.1,0.05,-1.2));
#1805=CARTESIAN_POINT('Origin',(0.,0.05,-1.2));
#1806=CARTESIAN_POINT('',(0.1,0.,-1.2));
#1807=CARTESIAN_POINT('',(0.,0.,-1.2));
#1808=CARTESIAN_POINT('',(0.1,0.05,-1.2));
#1809=CARTESIAN_POINT('Origin',(0.1,0.05,0.));
#1810=CARTESIAN_POINT('',(0.1,0.,-0.4));
#1811=CARTESIAN_POINT('',(0.1,0.,0.));
#1812=CARTESIAN_POINT('',(0.1,0.05,-0.4));
#1813=CARTESIAN_POINT('Origin',(0.,0.05,-0.4));
#1814=CARTESIAN_POINT('',(0.,0.,-0.4));
#1815=CARTESIAN_POINT('Origin',(0.,6.938893903907E-18,-0.8));
#1816=CARTESIAN_POINT('',(0.,0.,-0.05));
#1817=UNCERTAINTY_MEASURE_WITH_UNIT(LENGTH_MEASURE(0.01),#1823,
'DISTANCE_ACCURACY_VALUE',
'Maximum model space distance between geometric entities at asserted c
onnectivities');
#1818=UNCERTAINTY_MEASURE_WITH_UNIT(LENGTH_MEASURE(0.01),#1823,
'DISTANCE_ACCURACY_VALUE',
'Maximum model space distance between geometric entities at asserted c
onnectivities');
#1819=UNCERTAINTY_MEASURE_WITH_UNIT(LENGTH_MEASURE(0.01),#1823,
'DISTANCE_ACCURACY_VALUE',
'Maximum model space distance between geometric entities at asserted c
onnectivities');
#1820=(
GEOMETRIC_REPRESENTATION_CONTEXT(3)
GLOBAL_UNCERTAINTY_ASSIGNED_CONTEXT((#1817))
GLOBAL_UNIT_ASSIGNED_CONTEXT((#1823,#1825,#1826))
REPRESENTATION_CONTEXT('','3D')
);
#1821=(
GEOMETRIC_REPRESENTATION_CONTEXT(3)
GLOBAL_UNCERTAINTY_ASSIGNED_CONTEXT((#1818))
GLOBAL_UNIT_ASSIGNED_CONTEXT((#1823,#1825,#1826))
REPRESENTATION_CONTEXT('','3D')
);
#1822=(
GEOMETRIC_REPRESENTATION_CONTEXT(3)
GLOBAL_UNCERTAINTY_ASSIGNED_CONTEXT((#1819))
GLOBAL_UNIT_ASSIGNED_CONTEXT((#1823,#1825,#1826))
REPRESENTATION_CONTEXT('','3D')
);
#1823=(
LENGTH_UNIT()
NAMED_UNIT(*)
SI_UNIT(.MILLI.,.METRE.)
);
#1824=(
LENGTH_UNIT()
NAMED_UNIT(*)
SI_UNIT($,.METRE.)
);
#1825=(
NAMED_UNIT(*)
PLANE_ANGLE_UNIT()
SI_UNIT($,.RADIAN.)
);
#1826=(
NAMED_UNIT(*)
SI_UNIT($,.STERADIAN.)
SOLID_ANGLE_UNIT()
);
#1827=SHAPE_DEFINITION_REPRESENTATION(#1829,#1832);
#1828=SHAPE_DEFINITION_REPRESENTATION(#1830,#1833);
#1829=PRODUCT_DEFINITION_SHAPE('',$,#1835);
#1830=PRODUCT_DEFINITION_SHAPE('',$,#1836);
#1831=PRODUCT_DEFINITION_SHAPE($,$,#14);
#1832=SHAPE_REPRESENTATION('',(#1113,#1206),#1820);
#1833=SHAPE_REPRESENTATION('',(#1114),#1821);
#1834=PRODUCT_DEFINITION_CONTEXT('part definition',#1842,'design');
#1835=PRODUCT_DEFINITION('W25Q16JWUUIQ TR','(Unsaved)',#1837,#1834);
#1836=PRODUCT_DEFINITION('2026-10-07-02-12-28-216',
'USON-8-1EP_3x4mm_P0.8mm_EP0.2x0.8mm',#1838,#1834);
#1837=PRODUCT_DEFINITION_FORMATION('',$,#1844);
#1838=PRODUCT_DEFINITION_FORMATION('',$,#1845);
#1839=PRODUCT_RELATED_PRODUCT_CATEGORY('(Unsaved)','(Unsaved)',(#1844));
#1840=PRODUCT_RELATED_PRODUCT_CATEGORY(
'USON-8-1EP_3x4mm_P0.8mm_EP0.2x0.8mm',
'USON-8-1EP_3x4mm_P0.8mm_EP0.2x0.8mm',(#1845));
#1841=APPLICATION_PROTOCOL_DEFINITION('international standard',
'automotive_design',2009,#1842);
#1842=APPLICATION_CONTEXT(
'Core Data for Automotive Mechanical Design Process');
#1843=PRODUCT_CONTEXT('part definition',#1842,'mechanical');
#1844=PRODUCT('W25Q16JWUUIQ TR','(Unsaved)','STEP AP214',(#1843));
#1845=PRODUCT('2026-10-07-02-12-28-216',
'USON-8-1EP_3x4mm_P0.8mm_EP0.2x0.8mm',$,(#1843));
#1846=PRESENTATION_STYLE_ASSIGNMENT((#1850));
#1847=PRESENTATION_STYLE_ASSIGNMENT((#1851));
#1848=PRESENTATION_STYLE_ASSIGNMENT((#1852));
#1849=PRESENTATION_STYLE_ASSIGNMENT((#1853));
#1850=SURFACE_STYLE_USAGE(.BOTH.,#1854);
#1851=SURFACE_STYLE_USAGE(.BOTH.,#1855);
#1852=SURFACE_STYLE_USAGE(.BOTH.,#1856);
#1853=SURFACE_STYLE_USAGE(.BOTH.,#1857);
#1854=SURFACE_SIDE_STYLE('',(#1858));
#1855=SURFACE_SIDE_STYLE('',(#1859));
#1856=SURFACE_SIDE_STYLE('',(#1860));
#1857=SURFACE_SIDE_STYLE('',(#1861));
#1858=SURFACE_STYLE_FILL_AREA(#1862);
#1859=SURFACE_STYLE_FILL_AREA(#1863);
#1860=SURFACE_STYLE_FILL_AREA(#1864);
#1861=SURFACE_STYLE_FILL_AREA(#1865);
#1862=FILL_AREA_STYLE('Steel - Satin',(#1866));
#1863=FILL_AREA_STYLE('Opaque(64,64,64)',(#1867));
#1864=FILL_AREA_STYLE('Opaque(255,255,255)',(#1868));
#1865=FILL_AREA_STYLE('Opaque(203,210,239)',(#1869));
#1866=FILL_AREA_STYLE_COLOUR('Steel - Satin',#1870);
#1867=FILL_AREA_STYLE_COLOUR('Opaque(64,64,64)',#1871);
#1868=FILL_AREA_STYLE_COLOUR('Opaque(255,255,255)',#1872);
#1869=FILL_AREA_STYLE_COLOUR('Opaque(203,210,239)',#1873);
#1870=COLOUR_RGB('Steel - Satin',0.627450980392157,0.627450980392157,0.627450980392157);
#1871=COLOUR_RGB('Opaque(64,64,64)',0.250980392156863,0.250980392156863,
0.250980392156863);
#1872=COLOUR_RGB('Opaque(255,255,255)',1.,1.,1.);
#1873=COLOUR_RGB('Opaque(203,210,239)',0.796078431372549,0.823529411764706,
0.937254901960784);
ENDSEC;
END-ISO-10303-21;
