ISO-10303-21;
HEADER;
/* Generated by software containing ST-Developer
 * from STEP Tools, Inc. (www.steptools.com) 
 */

FILE_DESCRIPTION(
/* description */ (''),
/* implementation_level */ '2;1');

FILE_NAME(
/* name */ 'Crystal_SMD_1610-2Pin_1.6x1.step',
/* time_stamp */ '2026-10-06T22:10:24+01:00',
/* author */ (''),
/* organization */ (''),
/* preprocessor_version */ 'ST-DEVELOPER v20.2',
/* originating_system */ 'Autodesk Translation Framework v15.15.0.0',
/* authorisation */ '');

FILE_SCHEMA (('AUTOMOTIVE_DESIGN { 1 0 10303 214 3 1 1 }'));
ENDSEC;

DATA;
#10=MECHANICAL_DESIGN_GEOMETRIC_PRESENTATION_REPRESENTATION('',(#752,#753,
#754,#755,#756,#757,#758,#759,#760,#761,#762,#763,#764,#765,#766,#767,#768,
#769,#770,#771,#772,#773,#774,#775,#776,#777,#778,#779,#780,#781,#782,#783,
#784,#785,#786,#787,#788,#789,#790,#791,#792,#793,#794,#795),#1401);
#11=ITEM_DEFINED_TRANSFORMATION($,$,#853,#929);
#12=(
REPRESENTATION_RELATIONSHIP($,$,#1412,#1411)
REPRESENTATION_RELATIONSHIP_WITH_TRANSFORMATION(#11)
SHAPE_REPRESENTATION_RELATIONSHIP()
);
#13=CONTEXT_DEPENDENT_SHAPE_REPRESENTATION(#12,#1410);
#14=NEXT_ASSEMBLY_USAGE_OCCURRENCE('Crystal_SMD_1610-2Pin_1.6x1.0mm:1',
'Crystal_SMD_1610-2Pin_1.6x1.0mm:1','Crystal_SMD_1610-2Pin_1.6x1.0mm:1',
#1414,#1415,'Crystal_SMD_1610-2Pin_1.6x1.0mm:1');
#15=SHAPE_REPRESENTATION_RELATIONSHIP('SRR','None',#1412,#16);
#16=ADVANCED_BREP_SHAPE_REPRESENTATION('',(#17),#1400);
#17=MANIFOLD_SOLID_BREP('Body1',#839);
#18=CYLINDRICAL_SURFACE('',#863,0.1);
#19=CYLINDRICAL_SURFACE('',#866,0.1);
#20=CYLINDRICAL_SURFACE('',#869,0.1);
#21=CYLINDRICAL_SURFACE('',#872,0.1);
#22=CYLINDRICAL_SURFACE('',#880,0.2);
#23=CYLINDRICAL_SURFACE('',#883,0.2);
#24=CYLINDRICAL_SURFACE('',#886,0.2);
#25=CYLINDRICAL_SURFACE('',#889,0.2);
#26=CYLINDRICAL_SURFACE('',#897,0.2);
#27=CYLINDRICAL_SURFACE('',#900,0.2);
#28=CYLINDRICAL_SURFACE('',#903,0.2);
#29=CYLINDRICAL_SURFACE('',#906,0.2);
#30=CYLINDRICAL_SURFACE('',#911,0.17);
#31=CYLINDRICAL_SURFACE('',#914,0.17);
#32=CYLINDRICAL_SURFACE('',#923,0.17);
#33=CYLINDRICAL_SURFACE('',#925,0.17);
#34=FACE_BOUND('',#82,.T.);
#35=FACE_BOUND('',#83,.T.);
#36=FACE_BOUND('',#93,.T.);
#37=FACE_BOUND('',#103,.T.);
#38=FACE_OUTER_BOUND('',#81,.T.);
#39=FACE_OUTER_BOUND('',#84,.T.);
#40=FACE_OUTER_BOUND('',#85,.T.);
#41=FACE_OUTER_BOUND('',#86,.T.);
#42=FACE_OUTER_BOUND('',#87,.T.);
#43=FACE_OUTER_BOUND('',#88,.T.);
#44=FACE_OUTER_BOUND('',#89,.T.);
#45=FACE_OUTER_BOUND('',#90,.T.);
#46=FACE_OUTER_BOUND('',#91,.T.);
#47=FACE_OUTER_BOUND('',#92,.T.);
#48=FACE_OUTER_BOUND('',#94,.T.);
#49=FACE_OUTER_BOUND('',#95,.T.);
#50=FACE_OUTER_BOUND('',#96,.T.);
#51=FACE_OUTER_BOUND('',#97,.T.);
#52=FACE_OUTER_BOUND('',#98,.T.);
#53=FACE_OUTER_BOUND('',#99,.T.);
#54=FACE_OUTER_BOUND('',#100,.T.);
#55=FACE_OUTER_BOUND('',#101,.T.);
#56=FACE_OUTER_BOUND('',#102,.T.);
#57=FACE_OUTER_BOUND('',#104,.T.);
#58=FACE_OUTER_BOUND('',#105,.T.);
#59=FACE_OUTER_BOUND('',#106,.T.);
#60=FACE_OUTER_BOUND('',#107,.T.);
#61=FACE_OUTER_BOUND('',#108,.T.);
#62=FACE_OUTER_BOUND('',#109,.T.);
#63=FACE_OUTER_BOUND('',#110,.T.);
#64=FACE_OUTER_BOUND('',#111,.T.);
#65=FACE_OUTER_BOUND('',#112,.T.);
#66=FACE_OUTER_BOUND('',#113,.T.);
#67=FACE_OUTER_BOUND('',#114,.T.);
#68=FACE_OUTER_BOUND('',#115,.T.);
#69=FACE_OUTER_BOUND('',#116,.T.);
#70=FACE_OUTER_BOUND('',#117,.T.);
#71=FACE_OUTER_BOUND('',#118,.T.);
#72=FACE_OUTER_BOUND('',#119,.T.);
#73=FACE_OUTER_BOUND('',#120,.T.);
#74=FACE_OUTER_BOUND('',#121,.T.);
#75=FACE_OUTER_BOUND('',#122,.T.);
#76=FACE_OUTER_BOUND('',#123,.T.);
#77=FACE_OUTER_BOUND('',#124,.T.);
#78=FACE_OUTER_BOUND('',#125,.T.);
#79=FACE_OUTER_BOUND('',#126,.T.);
#80=FACE_OUTER_BOUND('',#127,.T.);
#81=EDGE_LOOP('',(#503,#504,#505,#506,#507,#508,#509,#510));
#82=EDGE_LOOP('',(#511,#512,#513,#514,#515,#516));
#83=EDGE_LOOP('',(#517,#518,#519,#520,#521,#522,#523));
#84=EDGE_LOOP('',(#524,#525,#526,#527));
#85=EDGE_LOOP('',(#528,#529,#530,#531));
#86=EDGE_LOOP('',(#532,#533,#534,#535));
#87=EDGE_LOOP('',(#536,#537,#538,#539));
#88=EDGE_LOOP('',(#540,#541,#542,#543));
#89=EDGE_LOOP('',(#544,#545,#546,#547));
#90=EDGE_LOOP('',(#548,#549,#550,#551));
#91=EDGE_LOOP('',(#552,#553,#554,#555));
#92=EDGE_LOOP('',(#556,#557,#558,#559,#560,#561,#562,#563));
#93=EDGE_LOOP('',(#564,#565,#566,#567,#568,#569,#570,#571));
#94=EDGE_LOOP('',(#572,#573,#574,#575));
#95=EDGE_LOOP('',(#576,#577,#578,#579));
#96=EDGE_LOOP('',(#580,#581,#582,#583));
#97=EDGE_LOOP('',(#584,#585,#586,#587));
#98=EDGE_LOOP('',(#588,#589,#590,#591));
#99=EDGE_LOOP('',(#592,#593,#594,#595));
#100=EDGE_LOOP('',(#596,#597,#598,#599));
#101=EDGE_LOOP('',(#600,#601,#602,#603));
#102=EDGE_LOOP('',(#604,#605,#606,#607,#608,#609,#610,#611));
#103=EDGE_LOOP('',(#612,#613,#614,#615,#616,#617,#618,#619));
#104=EDGE_LOOP('',(#620,#621,#622,#623));
#105=EDGE_LOOP('',(#624,#625,#626,#627));
#106=EDGE_LOOP('',(#628,#629,#630,#631));
#107=EDGE_LOOP('',(#632,#633,#634,#635));
#108=EDGE_LOOP('',(#636,#637,#638,#639));
#109=EDGE_LOOP('',(#640,#641,#642,#643));
#110=EDGE_LOOP('',(#644,#645,#646,#647));
#111=EDGE_LOOP('',(#648,#649,#650,#651));
#112=EDGE_LOOP('',(#652,#653,#654,#655,#656,#657,#658,#659));
#113=EDGE_LOOP('',(#660,#661,#662,#663));
#114=EDGE_LOOP('',(#664,#665,#666,#667));
#115=EDGE_LOOP('',(#668,#669,#670,#671));
#116=EDGE_LOOP('',(#672,#673,#674,#675));
#117=EDGE_LOOP('',(#676,#677,#678,#679));
#118=EDGE_LOOP('',(#680,#681,#682,#683));
#119=EDGE_LOOP('',(#684,#685,#686,#687,#688,#689));
#120=EDGE_LOOP('',(#690,#691,#692,#693,#694,#695,#696));
#121=EDGE_LOOP('',(#697,#698,#699,#700));
#122=EDGE_LOOP('',(#701,#702,#703,#704));
#123=EDGE_LOOP('',(#705,#706,#707,#708));
#124=EDGE_LOOP('',(#709,#710,#711,#712));
#125=EDGE_LOOP('',(#713,#714,#715,#716));
#126=EDGE_LOOP('',(#717,#718,#719,#720));
#127=EDGE_LOOP('',(#721,#722,#723,#724));
#128=LINE('',#1172,#207);
#129=LINE('',#1176,#208);
#130=LINE('',#1180,#209);
#131=LINE('',#1183,#210);
#132=LINE('',#1186,#211);
#133=LINE('',#1190,#212);
#134=LINE('',#1194,#213);
#135=LINE('',#1195,#214);
#136=LINE('',#1198,#215);
#137=LINE('',#1202,#216);
#138=LINE('',#1206,#217);
#139=LINE('',#1208,#218);
#140=LINE('',#1209,#219);
#141=LINE('',#1212,#220);
#142=LINE('',#1215,#221);
#143=LINE('',#1218,#222);
#144=LINE('',#1219,#223);
#145=LINE('',#1223,#224);
#146=LINE('',#1226,#225);
#147=LINE('',#1227,#226);
#148=LINE('',#1231,#227);
#149=LINE('',#1234,#228);
#150=LINE('',#1235,#229);
#151=LINE('',#1239,#230);
#152=LINE('',#1241,#231);
#153=LINE('',#1247,#232);
#154=LINE('',#1251,#233);
#155=LINE('',#1255,#234);
#156=LINE('',#1258,#235);
#157=LINE('',#1261,#236);
#158=LINE('',#1264,#237);
#159=LINE('',#1267,#238);
#160=LINE('',#1268,#239);
#161=LINE('',#1272,#240);
#162=LINE('',#1275,#241);
#163=LINE('',#1276,#242);
#164=LINE('',#1280,#243);
#165=LINE('',#1283,#244);
#166=LINE('',#1284,#245);
#167=LINE('',#1288,#246);
#168=LINE('',#1290,#247);
#169=LINE('',#1296,#248);
#170=LINE('',#1300,#249);
#171=LINE('',#1304,#250);
#172=LINE('',#1307,#251);
#173=LINE('',#1310,#252);
#174=LINE('',#1313,#253);
#175=LINE('',#1316,#254);
#176=LINE('',#1317,#255);
#177=LINE('',#1321,#256);
#178=LINE('',#1324,#257);
#179=LINE('',#1325,#258);
#180=LINE('',#1329,#259);
#181=LINE('',#1332,#260);
#182=LINE('',#1333,#261);
#183=LINE('',#1337,#262);
#184=LINE('',#1339,#263);
#185=LINE('',#1343,#264);
#186=LINE('',#1345,#265);
#187=LINE('',#1346,#266);
#188=LINE('',#1350,#267);
#189=LINE('',#1353,#268);
#190=LINE('',#1354,#269);
#191=LINE('',#1358,#270);
#192=LINE('',#1361,#271);
#193=LINE('',#1362,#272);
#194=LINE('',#1364,#273);
#195=LINE('',#1369,#274);
#196=LINE('',#1371,#275);
#197=LINE('',#1373,#276);
#198=LINE('',#1375,#277);
#199=LINE('',#1379,#278);
#200=LINE('',#1382,#279);
#201=LINE('',#1383,#280);
#202=LINE('',#1385,#281);
#203=LINE('',#1387,#282);
#204=LINE('',#1389,#283);
#205=LINE('',#1391,#284);
#206=LINE('',#1393,#285);
#207=VECTOR('',#938,0.85685436824);
#208=VECTOR('',#941,1.43);
#209=VECTOR('',#944,0.85685436824);
#210=VECTOR('',#947,1.43);
#211=VECTOR('',#948,0.3240212782013);
#212=VECTOR('',#951,0.7401613323034);
#213=VECTOR('',#954,0.3240212782013);
#214=VECTOR('',#955,0.86);
#215=VECTOR('',#956,0.1240212782013);
#216=VECTOR('',#959,0.7401613323034);
#217=VECTOR('',#962,0.3240212782013);
#218=VECTOR('',#963,0.66);
#219=VECTOR('',#964,0.282842712474601);
#220=VECTOR('',#967,0.28);
#221=VECTOR('',#970,0.28);
#222=VECTOR('',#973,0.85685436824);
#223=VECTOR('',#974,0.28);
#224=VECTOR('',#979,0.28);
#225=VECTOR('',#982,1.43);
#226=VECTOR('',#983,0.28);
#227=VECTOR('',#988,0.28);
#228=VECTOR('',#991,0.85685436824);
#229=VECTOR('',#992,0.28);
#230=VECTOR('',#997,0.28);
#231=VECTOR('',#1000,1.43);
#232=VECTOR('',#1005,1.16);
#233=VECTOR('',#1008,0.56);
#234=VECTOR('',#1011,1.16);
#235=VECTOR('',#1014,0.56);
#236=VECTOR('',#1017,0.12);
#237=VECTOR('',#1020,0.12);
#238=VECTOR('',#1023,1.16);
#239=VECTOR('',#1024,0.12);
#240=VECTOR('',#1029,0.12);
#241=VECTOR('',#1032,0.56);
#242=VECTOR('',#1033,0.12);
#243=VECTOR('',#1038,0.12);
#244=VECTOR('',#1041,1.16);
#245=VECTOR('',#1042,0.12);
#246=VECTOR('',#1047,0.12);
#247=VECTOR('',#1050,0.56);
#248=VECTOR('',#1055,0.53);
#249=VECTOR('',#1058,1.12);
#250=VECTOR('',#1061,0.53);
#251=VECTOR('',#1064,1.12);
#252=VECTOR('',#1067,0.06);
#253=VECTOR('',#1070,0.06);
#254=VECTOR('',#1073,0.53);
#255=VECTOR('',#1074,0.06);
#256=VECTOR('',#1079,0.06);
#257=VECTOR('',#1082,1.12);
#258=VECTOR('',#1083,0.06);
#259=VECTOR('',#1088,0.06);
#260=VECTOR('',#1091,0.53);
#261=VECTOR('',#1092,0.06);
#262=VECTOR('',#1097,0.06);
#263=VECTOR('',#1100,1.12);
#264=VECTOR('',#1105,0.01);
#265=VECTOR('',#1106,0.3240212782013);
#266=VECTOR('',#1107,0.01);
#267=VECTOR('',#1112,0.01);
#268=VECTOR('',#1115,0.7401613323034);
#269=VECTOR('',#1116,0.01);
#270=VECTOR('',#1121,0.01);
#271=VECTOR('',#1124,0.3240212782013);
#272=VECTOR('',#1125,0.01);
#273=VECTOR('',#1128,0.86);
#274=VECTOR('',#1133,0.1240212782013);
#275=VECTOR('',#1134,0.282842712474601);
#276=VECTOR('',#1135,0.66);
#277=VECTOR('',#1136,0.3240212782013);
#278=VECTOR('',#1139,0.7401613323034);
#279=VECTOR('',#1144,0.01);
#280=VECTOR('',#1145,0.01);
#281=VECTOR('',#1148,0.01);
#282=VECTOR('',#1151,0.01);
#283=VECTOR('',#1154,0.01);
#284=VECTOR('',#1157,0.01);
#285=VECTOR('',#1160,0.01);
#286=CIRCLE('',#855,0.1);
#287=CIRCLE('',#856,0.1);
#288=CIRCLE('',#857,0.1);
#289=CIRCLE('',#858,0.1);
#290=CIRCLE('',#859,0.17);
#291=CIRCLE('',#860,0.17);
#292=CIRCLE('',#861,0.17);
#293=CIRCLE('',#862,0.17);
#294=CIRCLE('',#864,0.1);
#295=CIRCLE('',#867,0.1);
#296=CIRCLE('',#870,0.1);
#297=CIRCLE('',#873,0.1);
#298=CIRCLE('',#876,0.2);
#299=CIRCLE('',#877,0.2);
#300=CIRCLE('',#878,0.2);
#301=CIRCLE('',#879,0.2);
#302=CIRCLE('',#881,0.2);
#303=CIRCLE('',#884,0.2);
#304=CIRCLE('',#887,0.2);
#305=CIRCLE('',#890,0.2);
#306=CIRCLE('',#893,0.2);
#307=CIRCLE('',#894,0.2);
#308=CIRCLE('',#895,0.2);
#309=CIRCLE('',#896,0.2);
#310=CIRCLE('',#898,0.2);
#311=CIRCLE('',#901,0.2);
#312=CIRCLE('',#904,0.2);
#313=CIRCLE('',#907,0.2);
#314=CIRCLE('',#912,0.17);
#315=CIRCLE('',#915,0.17);
#316=CIRCLE('',#920,0.17);
#317=CIRCLE('',#921,0.17);
#318=VERTEX_POINT('',#1168);
#319=VERTEX_POINT('',#1169);
#320=VERTEX_POINT('',#1171);
#321=VERTEX_POINT('',#1173);
#322=VERTEX_POINT('',#1175);
#323=VERTEX_POINT('',#1177);
#324=VERTEX_POINT('',#1179);
#325=VERTEX_POINT('',#1181);
#326=VERTEX_POINT('',#1184);
#327=VERTEX_POINT('',#1185);
#328=VERTEX_POINT('',#1187);
#329=VERTEX_POINT('',#1189);
#330=VERTEX_POINT('',#1191);
#331=VERTEX_POINT('',#1193);
#332=VERTEX_POINT('',#1196);
#333=VERTEX_POINT('',#1197);
#334=VERTEX_POINT('',#1199);
#335=VERTEX_POINT('',#1201);
#336=VERTEX_POINT('',#1203);
#337=VERTEX_POINT('',#1205);
#338=VERTEX_POINT('',#1207);
#339=VERTEX_POINT('',#1211);
#340=VERTEX_POINT('',#1213);
#341=VERTEX_POINT('',#1217);
#342=VERTEX_POINT('',#1221);
#343=VERTEX_POINT('',#1225);
#344=VERTEX_POINT('',#1229);
#345=VERTEX_POINT('',#1233);
#346=VERTEX_POINT('',#1237);
#347=VERTEX_POINT('',#1243);
#348=VERTEX_POINT('',#1244);
#349=VERTEX_POINT('',#1246);
#350=VERTEX_POINT('',#1248);
#351=VERTEX_POINT('',#1250);
#352=VERTEX_POINT('',#1252);
#353=VERTEX_POINT('',#1254);
#354=VERTEX_POINT('',#1256);
#355=VERTEX_POINT('',#1260);
#356=VERTEX_POINT('',#1262);
#357=VERTEX_POINT('',#1266);
#358=VERTEX_POINT('',#1270);
#359=VERTEX_POINT('',#1274);
#360=VERTEX_POINT('',#1278);
#361=VERTEX_POINT('',#1282);
#362=VERTEX_POINT('',#1286);
#363=VERTEX_POINT('',#1292);
#364=VERTEX_POINT('',#1293);
#365=VERTEX_POINT('',#1295);
#366=VERTEX_POINT('',#1297);
#367=VERTEX_POINT('',#1299);
#368=VERTEX_POINT('',#1301);
#369=VERTEX_POINT('',#1303);
#370=VERTEX_POINT('',#1305);
#371=VERTEX_POINT('',#1309);
#372=VERTEX_POINT('',#1311);
#373=VERTEX_POINT('',#1315);
#374=VERTEX_POINT('',#1319);
#375=VERTEX_POINT('',#1323);
#376=VERTEX_POINT('',#1327);
#377=VERTEX_POINT('',#1331);
#378=VERTEX_POINT('',#1335);
#379=VERTEX_POINT('',#1342);
#380=VERTEX_POINT('',#1344);
#381=VERTEX_POINT('',#1348);
#382=VERTEX_POINT('',#1352);
#383=VERTEX_POINT('',#1356);
#384=VERTEX_POINT('',#1360);
#385=VERTEX_POINT('',#1367);
#386=VERTEX_POINT('',#1368);
#387=VERTEX_POINT('',#1370);
#388=VERTEX_POINT('',#1372);
#389=VERTEX_POINT('',#1374);
#390=VERTEX_POINT('',#1376);
#391=VERTEX_POINT('',#1378);
#392=EDGE_CURVE('',#318,#319,#286,.T.);
#393=EDGE_CURVE('',#320,#318,#128,.T.);
#394=EDGE_CURVE('',#321,#320,#287,.T.);
#395=EDGE_CURVE('',#322,#321,#129,.T.);
#396=EDGE_CURVE('',#323,#322,#288,.T.);
#397=EDGE_CURVE('',#324,#323,#130,.T.);
#398=EDGE_CURVE('',#325,#324,#289,.T.);
#399=EDGE_CURVE('',#319,#325,#131,.T.);
#400=EDGE_CURVE('',#326,#327,#132,.T.);
#401=EDGE_CURVE('',#326,#328,#290,.T.);
#402=EDGE_CURVE('',#329,#328,#133,.T.);
#403=EDGE_CURVE('',#329,#330,#291,.T.);
#404=EDGE_CURVE('',#331,#330,#134,.T.);
#405=EDGE_CURVE('',#327,#331,#135,.T.);
#406=EDGE_CURVE('',#332,#333,#136,.T.);
#407=EDGE_CURVE('',#332,#334,#292,.T.);
#408=EDGE_CURVE('',#335,#334,#137,.T.);
#409=EDGE_CURVE('',#335,#336,#293,.T.);
#410=EDGE_CURVE('',#337,#336,#138,.T.);
#411=EDGE_CURVE('',#338,#337,#139,.T.);
#412=EDGE_CURVE('',#333,#338,#140,.T.);
#413=EDGE_CURVE('',#319,#339,#141,.T.);
#414=EDGE_CURVE('',#340,#339,#294,.T.);
#415=EDGE_CURVE('',#318,#340,#142,.T.);
#416=EDGE_CURVE('',#341,#340,#143,.T.);
#417=EDGE_CURVE('',#320,#341,#144,.T.);
#418=EDGE_CURVE('',#342,#341,#295,.T.);
#419=EDGE_CURVE('',#321,#342,#145,.T.);
#420=EDGE_CURVE('',#343,#342,#146,.T.);
#421=EDGE_CURVE('',#322,#343,#147,.T.);
#422=EDGE_CURVE('',#344,#343,#296,.T.);
#423=EDGE_CURVE('',#323,#344,#148,.T.);
#424=EDGE_CURVE('',#345,#344,#149,.T.);
#425=EDGE_CURVE('',#324,#345,#150,.T.);
#426=EDGE_CURVE('',#346,#345,#297,.T.);
#427=EDGE_CURVE('',#325,#346,#151,.T.);
#428=EDGE_CURVE('',#339,#346,#152,.T.);
#429=EDGE_CURVE('',#347,#348,#298,.T.);
#430=EDGE_CURVE('',#349,#347,#153,.T.);
#431=EDGE_CURVE('',#350,#349,#299,.T.);
#432=EDGE_CURVE('',#351,#350,#154,.T.);
#433=EDGE_CURVE('',#352,#351,#300,.T.);
#434=EDGE_CURVE('',#353,#352,#155,.T.);
#435=EDGE_CURVE('',#354,#353,#301,.T.);
#436=EDGE_CURVE('',#348,#354,#156,.T.);
#437=EDGE_CURVE('',#348,#355,#157,.T.);
#438=EDGE_CURVE('',#356,#355,#302,.T.);
#439=EDGE_CURVE('',#347,#356,#158,.T.);
#440=EDGE_CURVE('',#357,#356,#159,.T.);
#441=EDGE_CURVE('',#349,#357,#160,.T.);
#442=EDGE_CURVE('',#358,#357,#303,.T.);
#443=EDGE_CURVE('',#350,#358,#161,.T.);
#444=EDGE_CURVE('',#359,#358,#162,.T.);
#445=EDGE_CURVE('',#351,#359,#163,.T.);
#446=EDGE_CURVE('',#360,#359,#304,.T.);
#447=EDGE_CURVE('',#352,#360,#164,.T.);
#448=EDGE_CURVE('',#361,#360,#165,.T.);
#449=EDGE_CURVE('',#353,#361,#166,.T.);
#450=EDGE_CURVE('',#362,#361,#305,.T.);
#451=EDGE_CURVE('',#354,#362,#167,.T.);
#452=EDGE_CURVE('',#355,#362,#168,.T.);
#453=EDGE_CURVE('',#363,#364,#306,.T.);
#454=EDGE_CURVE('',#365,#363,#169,.T.);
#455=EDGE_CURVE('',#366,#365,#307,.T.);
#456=EDGE_CURVE('',#367,#366,#170,.T.);
#457=EDGE_CURVE('',#368,#367,#308,.T.);
#458=EDGE_CURVE('',#369,#368,#171,.T.);
#459=EDGE_CURVE('',#370,#369,#309,.T.);
#460=EDGE_CURVE('',#364,#370,#172,.T.);
#461=EDGE_CURVE('',#364,#371,#173,.T.);
#462=EDGE_CURVE('',#372,#371,#310,.T.);
#463=EDGE_CURVE('',#363,#372,#174,.T.);
#464=EDGE_CURVE('',#373,#372,#175,.T.);
#465=EDGE_CURVE('',#365,#373,#176,.T.);
#466=EDGE_CURVE('',#374,#373,#311,.T.);
#467=EDGE_CURVE('',#366,#374,#177,.T.);
#468=EDGE_CURVE('',#375,#374,#178,.T.);
#469=EDGE_CURVE('',#367,#375,#179,.T.);
#470=EDGE_CURVE('',#376,#375,#312,.T.);
#471=EDGE_CURVE('',#368,#376,#180,.T.);
#472=EDGE_CURVE('',#377,#376,#181,.T.);
#473=EDGE_CURVE('',#369,#377,#182,.T.);
#474=EDGE_CURVE('',#378,#377,#313,.T.);
#475=EDGE_CURVE('',#370,#378,#183,.T.);
#476=EDGE_CURVE('',#371,#378,#184,.T.);
#477=EDGE_CURVE('',#327,#379,#185,.T.);
#478=EDGE_CURVE('',#380,#379,#186,.T.);
#479=EDGE_CURVE('',#326,#380,#187,.T.);
#480=EDGE_CURVE('',#381,#380,#314,.T.);
#481=EDGE_CURVE('',#328,#381,#188,.T.);
#482=EDGE_CURVE('',#382,#381,#189,.T.);
#483=EDGE_CURVE('',#329,#382,#190,.T.);
#484=EDGE_CURVE('',#383,#382,#315,.T.);
#485=EDGE_CURVE('',#330,#383,#191,.T.);
#486=EDGE_CURVE('',#384,#383,#192,.T.);
#487=EDGE_CURVE('',#331,#384,#193,.T.);
#488=EDGE_CURVE('',#379,#384,#194,.T.);
#489=EDGE_CURVE('',#385,#386,#195,.T.);
#490=EDGE_CURVE('',#386,#387,#196,.T.);
#491=EDGE_CURVE('',#387,#388,#197,.T.);
#492=EDGE_CURVE('',#388,#389,#198,.T.);
#493=EDGE_CURVE('',#389,#390,#316,.T.);
#494=EDGE_CURVE('',#390,#391,#199,.T.);
#495=EDGE_CURVE('',#391,#385,#317,.T.);
#496=EDGE_CURVE('',#333,#386,#200,.T.);
#497=EDGE_CURVE('',#332,#385,#201,.T.);
#498=EDGE_CURVE('',#334,#391,#202,.T.);
#499=EDGE_CURVE('',#335,#390,#203,.T.);
#500=EDGE_CURVE('',#336,#389,#204,.T.);
#501=EDGE_CURVE('',#337,#388,#205,.T.);
#502=EDGE_CURVE('',#338,#387,#206,.T.);
#503=ORIENTED_EDGE('',*,*,#392,.F.);
#504=ORIENTED_EDGE('',*,*,#393,.F.);
#505=ORIENTED_EDGE('',*,*,#394,.F.);
#506=ORIENTED_EDGE('',*,*,#395,.F.);
#507=ORIENTED_EDGE('',*,*,#396,.F.);
#508=ORIENTED_EDGE('',*,*,#397,.F.);
#509=ORIENTED_EDGE('',*,*,#398,.F.);
#510=ORIENTED_EDGE('',*,*,#399,.F.);
#511=ORIENTED_EDGE('',*,*,#400,.F.);
#512=ORIENTED_EDGE('',*,*,#401,.T.);
#513=ORIENTED_EDGE('',*,*,#402,.F.);
#514=ORIENTED_EDGE('',*,*,#403,.T.);
#515=ORIENTED_EDGE('',*,*,#404,.F.);
#516=ORIENTED_EDGE('',*,*,#405,.F.);
#517=ORIENTED_EDGE('',*,*,#406,.F.);
#518=ORIENTED_EDGE('',*,*,#407,.T.);
#519=ORIENTED_EDGE('',*,*,#408,.F.);
#520=ORIENTED_EDGE('',*,*,#409,.T.);
#521=ORIENTED_EDGE('',*,*,#410,.F.);
#522=ORIENTED_EDGE('',*,*,#411,.F.);
#523=ORIENTED_EDGE('',*,*,#412,.F.);
#524=ORIENTED_EDGE('',*,*,#392,.T.);
#525=ORIENTED_EDGE('',*,*,#413,.T.);
#526=ORIENTED_EDGE('',*,*,#414,.F.);
#527=ORIENTED_EDGE('',*,*,#415,.F.);
#528=ORIENTED_EDGE('',*,*,#393,.T.);
#529=ORIENTED_EDGE('',*,*,#415,.T.);
#530=ORIENTED_EDGE('',*,*,#416,.F.);
#531=ORIENTED_EDGE('',*,*,#417,.F.);
#532=ORIENTED_EDGE('',*,*,#394,.T.);
#533=ORIENTED_EDGE('',*,*,#417,.T.);
#534=ORIENTED_EDGE('',*,*,#418,.F.);
#535=ORIENTED_EDGE('',*,*,#419,.F.);
#536=ORIENTED_EDGE('',*,*,#395,.T.);
#537=ORIENTED_EDGE('',*,*,#419,.T.);
#538=ORIENTED_EDGE('',*,*,#420,.F.);
#539=ORIENTED_EDGE('',*,*,#421,.F.);
#540=ORIENTED_EDGE('',*,*,#396,.T.);
#541=ORIENTED_EDGE('',*,*,#421,.T.);
#542=ORIENTED_EDGE('',*,*,#422,.F.);
#543=ORIENTED_EDGE('',*,*,#423,.F.);
#544=ORIENTED_EDGE('',*,*,#397,.T.);
#545=ORIENTED_EDGE('',*,*,#423,.T.);
#546=ORIENTED_EDGE('',*,*,#424,.F.);
#547=ORIENTED_EDGE('',*,*,#425,.F.);
#548=ORIENTED_EDGE('',*,*,#398,.T.);
#549=ORIENTED_EDGE('',*,*,#425,.T.);
#550=ORIENTED_EDGE('',*,*,#426,.F.);
#551=ORIENTED_EDGE('',*,*,#427,.F.);
#552=ORIENTED_EDGE('',*,*,#399,.T.);
#553=ORIENTED_EDGE('',*,*,#427,.T.);
#554=ORIENTED_EDGE('',*,*,#428,.F.);
#555=ORIENTED_EDGE('',*,*,#413,.F.);
#556=ORIENTED_EDGE('',*,*,#414,.T.);
#557=ORIENTED_EDGE('',*,*,#428,.T.);
#558=ORIENTED_EDGE('',*,*,#426,.T.);
#559=ORIENTED_EDGE('',*,*,#424,.T.);
#560=ORIENTED_EDGE('',*,*,#422,.T.);
#561=ORIENTED_EDGE('',*,*,#420,.T.);
#562=ORIENTED_EDGE('',*,*,#418,.T.);
#563=ORIENTED_EDGE('',*,*,#416,.T.);
#564=ORIENTED_EDGE('',*,*,#429,.F.);
#565=ORIENTED_EDGE('',*,*,#430,.F.);
#566=ORIENTED_EDGE('',*,*,#431,.F.);
#567=ORIENTED_EDGE('',*,*,#432,.F.);
#568=ORIENTED_EDGE('',*,*,#433,.F.);
#569=ORIENTED_EDGE('',*,*,#434,.F.);
#570=ORIENTED_EDGE('',*,*,#435,.F.);
#571=ORIENTED_EDGE('',*,*,#436,.F.);
#572=ORIENTED_EDGE('',*,*,#429,.T.);
#573=ORIENTED_EDGE('',*,*,#437,.T.);
#574=ORIENTED_EDGE('',*,*,#438,.F.);
#575=ORIENTED_EDGE('',*,*,#439,.F.);
#576=ORIENTED_EDGE('',*,*,#430,.T.);
#577=ORIENTED_EDGE('',*,*,#439,.T.);
#578=ORIENTED_EDGE('',*,*,#440,.F.);
#579=ORIENTED_EDGE('',*,*,#441,.F.);
#580=ORIENTED_EDGE('',*,*,#431,.T.);
#581=ORIENTED_EDGE('',*,*,#441,.T.);
#582=ORIENTED_EDGE('',*,*,#442,.F.);
#583=ORIENTED_EDGE('',*,*,#443,.F.);
#584=ORIENTED_EDGE('',*,*,#432,.T.);
#585=ORIENTED_EDGE('',*,*,#443,.T.);
#586=ORIENTED_EDGE('',*,*,#444,.F.);
#587=ORIENTED_EDGE('',*,*,#445,.F.);
#588=ORIENTED_EDGE('',*,*,#433,.T.);
#589=ORIENTED_EDGE('',*,*,#445,.T.);
#590=ORIENTED_EDGE('',*,*,#446,.F.);
#591=ORIENTED_EDGE('',*,*,#447,.F.);
#592=ORIENTED_EDGE('',*,*,#434,.T.);
#593=ORIENTED_EDGE('',*,*,#447,.T.);
#594=ORIENTED_EDGE('',*,*,#448,.F.);
#595=ORIENTED_EDGE('',*,*,#449,.F.);
#596=ORIENTED_EDGE('',*,*,#435,.T.);
#597=ORIENTED_EDGE('',*,*,#449,.T.);
#598=ORIENTED_EDGE('',*,*,#450,.F.);
#599=ORIENTED_EDGE('',*,*,#451,.F.);
#600=ORIENTED_EDGE('',*,*,#436,.T.);
#601=ORIENTED_EDGE('',*,*,#451,.T.);
#602=ORIENTED_EDGE('',*,*,#452,.F.);
#603=ORIENTED_EDGE('',*,*,#437,.F.);
#604=ORIENTED_EDGE('',*,*,#438,.T.);
#605=ORIENTED_EDGE('',*,*,#452,.T.);
#606=ORIENTED_EDGE('',*,*,#450,.T.);
#607=ORIENTED_EDGE('',*,*,#448,.T.);
#608=ORIENTED_EDGE('',*,*,#446,.T.);
#609=ORIENTED_EDGE('',*,*,#444,.T.);
#610=ORIENTED_EDGE('',*,*,#442,.T.);
#611=ORIENTED_EDGE('',*,*,#440,.T.);
#612=ORIENTED_EDGE('',*,*,#453,.F.);
#613=ORIENTED_EDGE('',*,*,#454,.F.);
#614=ORIENTED_EDGE('',*,*,#455,.F.);
#615=ORIENTED_EDGE('',*,*,#456,.F.);
#616=ORIENTED_EDGE('',*,*,#457,.F.);
#617=ORIENTED_EDGE('',*,*,#458,.F.);
#618=ORIENTED_EDGE('',*,*,#459,.F.);
#619=ORIENTED_EDGE('',*,*,#460,.F.);
#620=ORIENTED_EDGE('',*,*,#453,.T.);
#621=ORIENTED_EDGE('',*,*,#461,.T.);
#622=ORIENTED_EDGE('',*,*,#462,.F.);
#623=ORIENTED_EDGE('',*,*,#463,.F.);
#624=ORIENTED_EDGE('',*,*,#454,.T.);
#625=ORIENTED_EDGE('',*,*,#463,.T.);
#626=ORIENTED_EDGE('',*,*,#464,.F.);
#627=ORIENTED_EDGE('',*,*,#465,.F.);
#628=ORIENTED_EDGE('',*,*,#455,.T.);
#629=ORIENTED_EDGE('',*,*,#465,.T.);
#630=ORIENTED_EDGE('',*,*,#466,.F.);
#631=ORIENTED_EDGE('',*,*,#467,.F.);
#632=ORIENTED_EDGE('',*,*,#456,.T.);
#633=ORIENTED_EDGE('',*,*,#467,.T.);
#634=ORIENTED_EDGE('',*,*,#468,.F.);
#635=ORIENTED_EDGE('',*,*,#469,.F.);
#636=ORIENTED_EDGE('',*,*,#457,.T.);
#637=ORIENTED_EDGE('',*,*,#469,.T.);
#638=ORIENTED_EDGE('',*,*,#470,.F.);
#639=ORIENTED_EDGE('',*,*,#471,.F.);
#640=ORIENTED_EDGE('',*,*,#458,.T.);
#641=ORIENTED_EDGE('',*,*,#471,.T.);
#642=ORIENTED_EDGE('',*,*,#472,.F.);
#643=ORIENTED_EDGE('',*,*,#473,.F.);
#644=ORIENTED_EDGE('',*,*,#459,.T.);
#645=ORIENTED_EDGE('',*,*,#473,.T.);
#646=ORIENTED_EDGE('',*,*,#474,.F.);
#647=ORIENTED_EDGE('',*,*,#475,.F.);
#648=ORIENTED_EDGE('',*,*,#460,.T.);
#649=ORIENTED_EDGE('',*,*,#475,.T.);
#650=ORIENTED_EDGE('',*,*,#476,.F.);
#651=ORIENTED_EDGE('',*,*,#461,.F.);
#652=ORIENTED_EDGE('',*,*,#462,.T.);
#653=ORIENTED_EDGE('',*,*,#476,.T.);
#654=ORIENTED_EDGE('',*,*,#474,.T.);
#655=ORIENTED_EDGE('',*,*,#472,.T.);
#656=ORIENTED_EDGE('',*,*,#470,.T.);
#657=ORIENTED_EDGE('',*,*,#468,.T.);
#658=ORIENTED_EDGE('',*,*,#466,.T.);
#659=ORIENTED_EDGE('',*,*,#464,.T.);
#660=ORIENTED_EDGE('',*,*,#400,.T.);
#661=ORIENTED_EDGE('',*,*,#477,.T.);
#662=ORIENTED_EDGE('',*,*,#478,.F.);
#663=ORIENTED_EDGE('',*,*,#479,.F.);
#664=ORIENTED_EDGE('',*,*,#401,.F.);
#665=ORIENTED_EDGE('',*,*,#479,.T.);
#666=ORIENTED_EDGE('',*,*,#480,.F.);
#667=ORIENTED_EDGE('',*,*,#481,.F.);
#668=ORIENTED_EDGE('',*,*,#402,.T.);
#669=ORIENTED_EDGE('',*,*,#481,.T.);
#670=ORIENTED_EDGE('',*,*,#482,.F.);
#671=ORIENTED_EDGE('',*,*,#483,.F.);
#672=ORIENTED_EDGE('',*,*,#403,.F.);
#673=ORIENTED_EDGE('',*,*,#483,.T.);
#674=ORIENTED_EDGE('',*,*,#484,.F.);
#675=ORIENTED_EDGE('',*,*,#485,.F.);
#676=ORIENTED_EDGE('',*,*,#404,.T.);
#677=ORIENTED_EDGE('',*,*,#485,.T.);
#678=ORIENTED_EDGE('',*,*,#486,.F.);
#679=ORIENTED_EDGE('',*,*,#487,.F.);
#680=ORIENTED_EDGE('',*,*,#405,.T.);
#681=ORIENTED_EDGE('',*,*,#487,.T.);
#682=ORIENTED_EDGE('',*,*,#488,.F.);
#683=ORIENTED_EDGE('',*,*,#477,.F.);
#684=ORIENTED_EDGE('',*,*,#478,.T.);
#685=ORIENTED_EDGE('',*,*,#488,.T.);
#686=ORIENTED_EDGE('',*,*,#486,.T.);
#687=ORIENTED_EDGE('',*,*,#484,.T.);
#688=ORIENTED_EDGE('',*,*,#482,.T.);
#689=ORIENTED_EDGE('',*,*,#480,.T.);
#690=ORIENTED_EDGE('',*,*,#489,.T.);
#691=ORIENTED_EDGE('',*,*,#490,.T.);
#692=ORIENTED_EDGE('',*,*,#491,.T.);
#693=ORIENTED_EDGE('',*,*,#492,.T.);
#694=ORIENTED_EDGE('',*,*,#493,.T.);
#695=ORIENTED_EDGE('',*,*,#494,.T.);
#696=ORIENTED_EDGE('',*,*,#495,.T.);
#697=ORIENTED_EDGE('',*,*,#406,.T.);
#698=ORIENTED_EDGE('',*,*,#496,.T.);
#699=ORIENTED_EDGE('',*,*,#489,.F.);
#700=ORIENTED_EDGE('',*,*,#497,.F.);
#701=ORIENTED_EDGE('',*,*,#407,.F.);
#702=ORIENTED_EDGE('',*,*,#497,.T.);
#703=ORIENTED_EDGE('',*,*,#495,.F.);
#704=ORIENTED_EDGE('',*,*,#498,.F.);
#705=ORIENTED_EDGE('',*,*,#408,.T.);
#706=ORIENTED_EDGE('',*,*,#498,.T.);
#707=ORIENTED_EDGE('',*,*,#494,.F.);
#708=ORIENTED_EDGE('',*,*,#499,.F.);
#709=ORIENTED_EDGE('',*,*,#409,.F.);
#710=ORIENTED_EDGE('',*,*,#499,.T.);
#711=ORIENTED_EDGE('',*,*,#493,.F.);
#712=ORIENTED_EDGE('',*,*,#500,.F.);
#713=ORIENTED_EDGE('',*,*,#410,.T.);
#714=ORIENTED_EDGE('',*,*,#500,.T.);
#715=ORIENTED_EDGE('',*,*,#492,.F.);
#716=ORIENTED_EDGE('',*,*,#501,.F.);
#717=ORIENTED_EDGE('',*,*,#411,.T.);
#718=ORIENTED_EDGE('',*,*,#501,.T.);
#719=ORIENTED_EDGE('',*,*,#491,.F.);
#720=ORIENTED_EDGE('',*,*,#502,.F.);
#721=ORIENTED_EDGE('',*,*,#412,.T.);
#722=ORIENTED_EDGE('',*,*,#502,.T.);
#723=ORIENTED_EDGE('',*,*,#490,.F.);
#724=ORIENTED_EDGE('',*,*,#496,.F.);
#725=PLANE('',#854);
#726=PLANE('',#865);
#727=PLANE('',#868);
#728=PLANE('',#871);
#729=PLANE('',#874);
#730=PLANE('',#875);
#731=PLANE('',#882);
#732=PLANE('',#885);
#733=PLANE('',#888);
#734=PLANE('',#891);
#735=PLANE('',#892);
#736=PLANE('',#899);
#737=PLANE('',#902);
#738=PLANE('',#905);
#739=PLANE('',#908);
#740=PLANE('',#909);
#741=PLANE('',#910);
#742=PLANE('',#913);
#743=PLANE('',#916);
#744=PLANE('',#917);
#745=PLANE('',#918);
#746=PLANE('',#919);
#747=PLANE('',#922);
#748=PLANE('',#924);
#749=PLANE('',#926);
#750=PLANE('',#927);
#751=PLANE('',#928);
#752=STYLED_ITEM('',(#1426),#796);
#753=STYLED_ITEM('',(#1426),#797);
#754=STYLED_ITEM('',(#1426),#798);
#755=STYLED_ITEM('',(#1426),#799);
#756=STYLED_ITEM('',(#1426),#800);
#757=STYLED_ITEM('',(#1426),#801);
#758=STYLED_ITEM('',(#1426),#802);
#759=STYLED_ITEM('',(#1426),#803);
#760=STYLED_ITEM('',(#1426),#804);
#761=STYLED_ITEM('',(#1426),#805);
#762=STYLED_ITEM('',(#1427),#806);
#763=STYLED_ITEM('',(#1427),#807);
#764=STYLED_ITEM('',(#1427),#808);
#765=STYLED_ITEM('',(#1427),#809);
#766=STYLED_ITEM('',(#1427),#810);
#767=STYLED_ITEM('',(#1427),#811);
#768=STYLED_ITEM('',(#1427),#812);
#769=STYLED_ITEM('',(#1427),#813);
#770=STYLED_ITEM('',(#1427),#814);
#771=STYLED_ITEM('',(#1428),#815);
#772=STYLED_ITEM('',(#1428),#816);
#773=STYLED_ITEM('',(#1428),#817);
#774=STYLED_ITEM('',(#1428),#818);
#775=STYLED_ITEM('',(#1428),#819);
#776=STYLED_ITEM('',(#1428),#820);
#777=STYLED_ITEM('',(#1428),#821);
#778=STYLED_ITEM('',(#1428),#822);
#779=STYLED_ITEM('',(#1428),#823);
#780=STYLED_ITEM('',(#1427),#824);
#781=STYLED_ITEM('',(#1427),#825);
#782=STYLED_ITEM('',(#1427),#826);
#783=STYLED_ITEM('',(#1427),#827);
#784=STYLED_ITEM('',(#1427),#828);
#785=STYLED_ITEM('',(#1427),#829);
#786=STYLED_ITEM('',(#1427),#830);
#787=STYLED_ITEM('',(#1427),#831);
#788=STYLED_ITEM('',(#1427),#832);
#789=STYLED_ITEM('',(#1427),#833);
#790=STYLED_ITEM('',(#1427),#834);
#791=STYLED_ITEM('',(#1427),#835);
#792=STYLED_ITEM('',(#1427),#836);
#793=STYLED_ITEM('',(#1427),#837);
#794=STYLED_ITEM('',(#1427),#838);
#795=STYLED_ITEM('',(#1425),#17);
#796=ADVANCED_FACE('',(#38,#34,#35),#725,.F.);
#797=ADVANCED_FACE('',(#39),#18,.F.);
#798=ADVANCED_FACE('',(#40),#726,.T.);
#799=ADVANCED_FACE('',(#41),#19,.F.);
#800=ADVANCED_FACE('',(#42),#727,.T.);
#801=ADVANCED_FACE('',(#43),#20,.F.);
#802=ADVANCED_FACE('',(#44),#728,.T.);
#803=ADVANCED_FACE('',(#45),#21,.F.);
#804=ADVANCED_FACE('',(#46),#729,.T.);
#805=ADVANCED_FACE('',(#47,#36),#730,.T.);
#806=ADVANCED_FACE('',(#48),#22,.T.);
#807=ADVANCED_FACE('',(#49),#731,.T.);
#808=ADVANCED_FACE('',(#50),#23,.T.);
#809=ADVANCED_FACE('',(#51),#732,.T.);
#810=ADVANCED_FACE('',(#52),#24,.T.);
#811=ADVANCED_FACE('',(#53),#733,.T.);
#812=ADVANCED_FACE('',(#54),#25,.T.);
#813=ADVANCED_FACE('',(#55),#734,.T.);
#814=ADVANCED_FACE('',(#56,#37),#735,.T.);
#815=ADVANCED_FACE('',(#57),#26,.T.);
#816=ADVANCED_FACE('',(#58),#736,.T.);
#817=ADVANCED_FACE('',(#59),#27,.T.);
#818=ADVANCED_FACE('',(#60),#737,.T.);
#819=ADVANCED_FACE('',(#61),#28,.T.);
#820=ADVANCED_FACE('',(#62),#738,.T.);
#821=ADVANCED_FACE('',(#63),#29,.T.);
#822=ADVANCED_FACE('',(#64),#739,.T.);
#823=ADVANCED_FACE('',(#65),#740,.T.);
#824=ADVANCED_FACE('',(#66),#741,.T.);
#825=ADVANCED_FACE('',(#67),#30,.F.);
#826=ADVANCED_FACE('',(#68),#742,.T.);
#827=ADVANCED_FACE('',(#69),#31,.F.);
#828=ADVANCED_FACE('',(#70),#743,.T.);
#829=ADVANCED_FACE('',(#71),#744,.T.);
#830=ADVANCED_FACE('',(#72),#745,.T.);
#831=ADVANCED_FACE('',(#73),#746,.T.);
#832=ADVANCED_FACE('',(#74),#747,.T.);
#833=ADVANCED_FACE('',(#75),#32,.F.);
#834=ADVANCED_FACE('',(#76),#748,.T.);
#835=ADVANCED_FACE('',(#77),#33,.F.);
#836=ADVANCED_FACE('',(#78),#749,.T.);
#837=ADVANCED_FACE('',(#79),#750,.T.);
#838=ADVANCED_FACE('',(#80),#751,.T.);
#839=CLOSED_SHELL('',(#796,#797,#798,#799,#800,#801,#802,#803,#804,#805,
#806,#807,#808,#809,#810,#811,#812,#813,#814,#815,#816,#817,#818,#819,#820,
#821,#822,#823,#824,#825,#826,#827,#828,#829,#830,#831,#832,#833,#834,#835,
#836,#837,#838));
#840=DERIVED_UNIT_ELEMENT(#842,1.);
#841=DERIVED_UNIT_ELEMENT(#1403,-3.);
#842=(
MASS_UNIT()
NAMED_UNIT(*)
SI_UNIT(.KILO.,.GRAM.)
);
#843=DERIVED_UNIT((#840,#841));
#844=MEASURE_REPRESENTATION_ITEM('density measure',
POSITIVE_RATIO_MEASURE(7850.),#843);
#845=PROPERTY_DEFINITION_REPRESENTATION(#850,#847);
#846=PROPERTY_DEFINITION_REPRESENTATION(#851,#848);
#847=REPRESENTATION('material name',(#849),#1400);
#848=REPRESENTATION('density',(#844),#1400);
#849=DESCRIPTIVE_REPRESENTATION_ITEM('Steel','Steel');
#850=PROPERTY_DEFINITION('material property','material name',#1415);
#851=PROPERTY_DEFINITION('material property','density of part',#1415);
#852=AXIS2_PLACEMENT_3D('',#1165,#930,#931);
#853=AXIS2_PLACEMENT_3D('',#1166,#932,#933);
#854=AXIS2_PLACEMENT_3D('',#1167,#934,#935);
#855=AXIS2_PLACEMENT_3D('',#1170,#936,#937);
#856=AXIS2_PLACEMENT_3D('',#1174,#939,#940);
#857=AXIS2_PLACEMENT_3D('',#1178,#942,#943);
#858=AXIS2_PLACEMENT_3D('',#1182,#945,#946);
#859=AXIS2_PLACEMENT_3D('',#1188,#949,#950);
#860=AXIS2_PLACEMENT_3D('',#1192,#952,#953);
#861=AXIS2_PLACEMENT_3D('',#1200,#957,#958);
#862=AXIS2_PLACEMENT_3D('',#1204,#960,#961);
#863=AXIS2_PLACEMENT_3D('',#1210,#965,#966);
#864=AXIS2_PLACEMENT_3D('',#1214,#968,#969);
#865=AXIS2_PLACEMENT_3D('',#1216,#971,#972);
#866=AXIS2_PLACEMENT_3D('',#1220,#975,#976);
#867=AXIS2_PLACEMENT_3D('',#1222,#977,#978);
#868=AXIS2_PLACEMENT_3D('',#1224,#980,#981);
#869=AXIS2_PLACEMENT_3D('',#1228,#984,#985);
#870=AXIS2_PLACEMENT_3D('',#1230,#986,#987);
#871=AXIS2_PLACEMENT_3D('',#1232,#989,#990);
#872=AXIS2_PLACEMENT_3D('',#1236,#993,#994);
#873=AXIS2_PLACEMENT_3D('',#1238,#995,#996);
#874=AXIS2_PLACEMENT_3D('',#1240,#998,#999);
#875=AXIS2_PLACEMENT_3D('',#1242,#1001,#1002);
#876=AXIS2_PLACEMENT_3D('',#1245,#1003,#1004);
#877=AXIS2_PLACEMENT_3D('',#1249,#1006,#1007);
#878=AXIS2_PLACEMENT_3D('',#1253,#1009,#1010);
#879=AXIS2_PLACEMENT_3D('',#1257,#1012,#1013);
#880=AXIS2_PLACEMENT_3D('',#1259,#1015,#1016);
#881=AXIS2_PLACEMENT_3D('',#1263,#1018,#1019);
#882=AXIS2_PLACEMENT_3D('',#1265,#1021,#1022);
#883=AXIS2_PLACEMENT_3D('',#1269,#1025,#1026);
#884=AXIS2_PLACEMENT_3D('',#1271,#1027,#1028);
#885=AXIS2_PLACEMENT_3D('',#1273,#1030,#1031);
#886=AXIS2_PLACEMENT_3D('',#1277,#1034,#1035);
#887=AXIS2_PLACEMENT_3D('',#1279,#1036,#1037);
#888=AXIS2_PLACEMENT_3D('',#1281,#1039,#1040);
#889=AXIS2_PLACEMENT_3D('',#1285,#1043,#1044);
#890=AXIS2_PLACEMENT_3D('',#1287,#1045,#1046);
#891=AXIS2_PLACEMENT_3D('',#1289,#1048,#1049);
#892=AXIS2_PLACEMENT_3D('',#1291,#1051,#1052);
#893=AXIS2_PLACEMENT_3D('',#1294,#1053,#1054);
#894=AXIS2_PLACEMENT_3D('',#1298,#1056,#1057);
#895=AXIS2_PLACEMENT_3D('',#1302,#1059,#1060);
#896=AXIS2_PLACEMENT_3D('',#1306,#1062,#1063);
#897=AXIS2_PLACEMENT_3D('',#1308,#1065,#1066);
#898=AXIS2_PLACEMENT_3D('',#1312,#1068,#1069);
#899=AXIS2_PLACEMENT_3D('',#1314,#1071,#1072);
#900=AXIS2_PLACEMENT_3D('',#1318,#1075,#1076);
#901=AXIS2_PLACEMENT_3D('',#1320,#1077,#1078);
#902=AXIS2_PLACEMENT_3D('',#1322,#1080,#1081);
#903=AXIS2_PLACEMENT_3D('',#1326,#1084,#1085);
#904=AXIS2_PLACEMENT_3D('',#1328,#1086,#1087);
#905=AXIS2_PLACEMENT_3D('',#1330,#1089,#1090);
#906=AXIS2_PLACEMENT_3D('',#1334,#1093,#1094);
#907=AXIS2_PLACEMENT_3D('',#1336,#1095,#1096);
#908=AXIS2_PLACEMENT_3D('',#1338,#1098,#1099);
#909=AXIS2_PLACEMENT_3D('',#1340,#1101,#1102);
#910=AXIS2_PLACEMENT_3D('',#1341,#1103,#1104);
#911=AXIS2_PLACEMENT_3D('',#1347,#1108,#1109);
#912=AXIS2_PLACEMENT_3D('',#1349,#1110,#1111);
#913=AXIS2_PLACEMENT_3D('',#1351,#1113,#1114);
#914=AXIS2_PLACEMENT_3D('',#1355,#1117,#1118);
#915=AXIS2_PLACEMENT_3D('',#1357,#1119,#1120);
#916=AXIS2_PLACEMENT_3D('',#1359,#1122,#1123);
#917=AXIS2_PLACEMENT_3D('',#1363,#1126,#1127);
#918=AXIS2_PLACEMENT_3D('',#1365,#1129,#1130);
#919=AXIS2_PLACEMENT_3D('',#1366,#1131,#1132);
#920=AXIS2_PLACEMENT_3D('',#1377,#1137,#1138);
#921=AXIS2_PLACEMENT_3D('',#1380,#1140,#1141);
#922=AXIS2_PLACEMENT_3D('',#1381,#1142,#1143);
#923=AXIS2_PLACEMENT_3D('',#1384,#1146,#1147);
#924=AXIS2_PLACEMENT_3D('',#1386,#1149,#1150);
#925=AXIS2_PLACEMENT_3D('',#1388,#1152,#1153);
#926=AXIS2_PLACEMENT_3D('',#1390,#1155,#1156);
#927=AXIS2_PLACEMENT_3D('',#1392,#1158,#1159);
#928=AXIS2_PLACEMENT_3D('',#1394,#1161,#1162);
#929=AXIS2_PLACEMENT_3D('',#1395,#1163,#1164);
#930=DIRECTION('axis',(0.,0.,1.));
#931=DIRECTION('refdir',(1.,0.,0.));
#932=DIRECTION('axis',(0.,0.,1.));
#933=DIRECTION('refdir',(1.,0.,0.));
#934=DIRECTION('center_axis',(0.,1.,0.));
#935=DIRECTION('ref_axis',(1.,0.,0.));
#936=DIRECTION('center_axis',(0.,-1.,0.));
#937=DIRECTION('ref_axis',(0.,0.,1.));
#938=DIRECTION('',(0.,0.,-1.));
#939=DIRECTION('center_axis',(0.,-1.,0.));
#940=DIRECTION('ref_axis',(-1.,0.,0.));
#941=DIRECTION('',(1.,0.,0.));
#942=DIRECTION('center_axis',(0.,-1.,0.));
#943=DIRECTION('ref_axis',(0.,0.,-1.));
#944=DIRECTION('',(0.,0.,1.));
#945=DIRECTION('center_axis',(0.,-1.,0.));
#946=DIRECTION('ref_axis',(1.,0.,0.));
#947=DIRECTION('',(-1.,0.,0.));
#948=DIRECTION('',(1.,0.,0.));
#949=DIRECTION('center_axis',(0.,-1.,0.));
#950=DIRECTION('ref_axis',(0.829286598816017,0.,0.558823529411712));
#951=DIRECTION('',(0.,0.,-1.));
#952=DIRECTION('center_axis',(0.,-1.,0.));
#953=DIRECTION('ref_axis',(0.411764705882402,0.,-0.911290199107605));
#954=DIRECTION('',(-1.,0.,0.));
#955=DIRECTION('',(0.,0.,1.));
#956=DIRECTION('',(-1.,0.,0.));
#957=DIRECTION('center_axis',(0.,-1.,0.));
#958=DIRECTION('ref_axis',(-0.829286598816017,0.,-0.558823529411712));
#959=DIRECTION('',(0.,0.,1.));
#960=DIRECTION('center_axis',(0.,-1.,0.));
#961=DIRECTION('ref_axis',(-0.411764705882402,0.,0.911290199107605));
#962=DIRECTION('',(1.,0.,0.));
#963=DIRECTION('',(0.,0.,-1.));
#964=DIRECTION('',(-0.707106781186498,0.,-0.707106781186598));
#965=DIRECTION('center_axis',(0.,1.,0.));
#966=DIRECTION('ref_axis',(1.,0.,0.));
#967=DIRECTION('',(0.,1.,0.));
#968=DIRECTION('center_axis',(0.,-1.,0.));
#969=DIRECTION('ref_axis',(0.,0.,1.));
#970=DIRECTION('',(0.,1.,0.));
#971=DIRECTION('center_axis',(1.,0.,0.));
#972=DIRECTION('ref_axis',(0.,0.,-1.));
#973=DIRECTION('',(0.,0.,-1.));
#974=DIRECTION('',(0.,1.,0.));
#975=DIRECTION('center_axis',(0.,1.,0.));
#976=DIRECTION('ref_axis',(1.,0.,0.));
#977=DIRECTION('center_axis',(0.,-1.,0.));
#978=DIRECTION('ref_axis',(-1.,0.,0.));
#979=DIRECTION('',(0.,1.,0.));
#980=DIRECTION('center_axis',(0.,0.,1.));
#981=DIRECTION('ref_axis',(1.,0.,0.));
#982=DIRECTION('',(1.,0.,0.));
#983=DIRECTION('',(0.,1.,0.));
#984=DIRECTION('center_axis',(0.,1.,0.));
#985=DIRECTION('ref_axis',(1.,0.,0.));
#986=DIRECTION('center_axis',(0.,-1.,0.));
#987=DIRECTION('ref_axis',(0.,0.,-1.));
#988=DIRECTION('',(0.,1.,0.));
#989=DIRECTION('center_axis',(-1.,0.,0.));
#990=DIRECTION('ref_axis',(0.,0.,1.));
#991=DIRECTION('',(0.,0.,1.));
#992=DIRECTION('',(0.,1.,0.));
#993=DIRECTION('center_axis',(0.,1.,0.));
#994=DIRECTION('ref_axis',(1.,0.,0.));
#995=DIRECTION('center_axis',(0.,-1.,0.));
#996=DIRECTION('ref_axis',(1.,0.,0.));
#997=DIRECTION('',(0.,1.,0.));
#998=DIRECTION('center_axis',(0.,0.,-1.));
#999=DIRECTION('ref_axis',(-1.,0.,0.));
#1000=DIRECTION('',(-1.,0.,0.));
#1001=DIRECTION('center_axis',(0.,1.,0.));
#1002=DIRECTION('ref_axis',(1.,0.,0.));
#1003=DIRECTION('center_axis',(0.,1.,0.));
#1004=DIRECTION('ref_axis',(0.,0.,-1.));
#1005=DIRECTION('',(-1.,0.,0.));
#1006=DIRECTION('center_axis',(0.,1.,0.));
#1007=DIRECTION('ref_axis',(1.,0.,0.));
#1008=DIRECTION('',(0.,0.,-1.));
#1009=DIRECTION('center_axis',(0.,1.,0.));
#1010=DIRECTION('ref_axis',(0.,0.,1.));
#1011=DIRECTION('',(1.,0.,0.));
#1012=DIRECTION('center_axis',(0.,1.,0.));
#1013=DIRECTION('ref_axis',(-1.,0.,0.));
#1014=DIRECTION('',(0.,0.,1.));
#1015=DIRECTION('center_axis',(0.,1.,0.));
#1016=DIRECTION('ref_axis',(1.,0.,0.));
#1017=DIRECTION('',(0.,1.,0.));
#1018=DIRECTION('center_axis',(0.,1.,0.));
#1019=DIRECTION('ref_axis',(0.,0.,-1.));
#1020=DIRECTION('',(0.,1.,0.));
#1021=DIRECTION('center_axis',(0.,0.,-1.));
#1022=DIRECTION('ref_axis',(-1.,0.,0.));
#1023=DIRECTION('',(-1.,0.,0.));
#1024=DIRECTION('',(0.,1.,0.));
#1025=DIRECTION('center_axis',(0.,1.,0.));
#1026=DIRECTION('ref_axis',(1.,0.,0.));
#1027=DIRECTION('center_axis',(0.,1.,0.));
#1028=DIRECTION('ref_axis',(1.,0.,0.));
#1029=DIRECTION('',(0.,1.,0.));
#1030=DIRECTION('center_axis',(1.,0.,0.));
#1031=DIRECTION('ref_axis',(0.,0.,-1.));
#1032=DIRECTION('',(0.,0.,-1.));
#1033=DIRECTION('',(0.,1.,0.));
#1034=DIRECTION('center_axis',(0.,1.,0.));
#1035=DIRECTION('ref_axis',(1.,0.,0.));
#1036=DIRECTION('center_axis',(0.,1.,0.));
#1037=DIRECTION('ref_axis',(0.,0.,1.));
#1038=DIRECTION('',(0.,1.,0.));
#1039=DIRECTION('center_axis',(0.,0.,1.));
#1040=DIRECTION('ref_axis',(1.,0.,0.));
#1041=DIRECTION('',(1.,0.,0.));
#1042=DIRECTION('',(0.,1.,0.));
#1043=DIRECTION('center_axis',(0.,1.,0.));
#1044=DIRECTION('ref_axis',(1.,0.,0.));
#1045=DIRECTION('center_axis',(0.,1.,0.));
#1046=DIRECTION('ref_axis',(-1.,0.,0.));
#1047=DIRECTION('',(0.,1.,0.));
#1048=DIRECTION('center_axis',(-1.,0.,0.));
#1049=DIRECTION('ref_axis',(0.,0.,1.));
#1050=DIRECTION('',(0.,0.,1.));
#1051=DIRECTION('center_axis',(0.,1.,0.));
#1052=DIRECTION('ref_axis',(1.,0.,0.));
#1053=DIRECTION('center_axis',(0.,1.,0.));
#1054=DIRECTION('ref_axis',(1.,0.,0.));
#1055=DIRECTION('',(0.,0.,-1.));
#1056=DIRECTION('center_axis',(0.,1.,0.));
#1057=DIRECTION('ref_axis',(0.,0.,1.));
#1058=DIRECTION('',(1.,0.,0.));
#1059=DIRECTION('center_axis',(0.,1.,0.));
#1060=DIRECTION('ref_axis',(-1.,0.,0.));
#1061=DIRECTION('',(0.,0.,1.));
#1062=DIRECTION('center_axis',(0.,1.,0.));
#1063=DIRECTION('ref_axis',(0.,0.,-1.));
#1064=DIRECTION('',(-1.,0.,0.));
#1065=DIRECTION('center_axis',(0.,1.,0.));
#1066=DIRECTION('ref_axis',(1.,0.,0.));
#1067=DIRECTION('',(0.,1.,0.));
#1068=DIRECTION('center_axis',(0.,1.,0.));
#1069=DIRECTION('ref_axis',(1.,0.,0.));
#1070=DIRECTION('',(0.,1.,0.));
#1071=DIRECTION('center_axis',(1.,0.,0.));
#1072=DIRECTION('ref_axis',(0.,0.,-1.));
#1073=DIRECTION('',(0.,0.,-1.));
#1074=DIRECTION('',(0.,1.,0.));
#1075=DIRECTION('center_axis',(0.,1.,0.));
#1076=DIRECTION('ref_axis',(1.,0.,0.));
#1077=DIRECTION('center_axis',(0.,1.,0.));
#1078=DIRECTION('ref_axis',(0.,0.,1.));
#1079=DIRECTION('',(0.,1.,0.));
#1080=DIRECTION('center_axis',(0.,0.,1.));
#1081=DIRECTION('ref_axis',(1.,0.,0.));
#1082=DIRECTION('',(1.,0.,0.));
#1083=DIRECTION('',(0.,1.,0.));
#1084=DIRECTION('center_axis',(0.,1.,0.));
#1085=DIRECTION('ref_axis',(1.,0.,0.));
#1086=DIRECTION('center_axis',(0.,1.,0.));
#1087=DIRECTION('ref_axis',(-1.,0.,0.));
#1088=DIRECTION('',(0.,1.,0.));
#1089=DIRECTION('center_axis',(-1.,0.,0.));
#1090=DIRECTION('ref_axis',(0.,0.,1.));
#1091=DIRECTION('',(0.,0.,1.));
#1092=DIRECTION('',(0.,1.,0.));
#1093=DIRECTION('center_axis',(0.,1.,0.));
#1094=DIRECTION('ref_axis',(1.,0.,0.));
#1095=DIRECTION('center_axis',(0.,1.,0.));
#1096=DIRECTION('ref_axis',(0.,0.,-1.));
#1097=DIRECTION('',(0.,1.,0.));
#1098=DIRECTION('center_axis',(0.,0.,-1.));
#1099=DIRECTION('ref_axis',(-1.,0.,0.));
#1100=DIRECTION('',(-1.,0.,0.));
#1101=DIRECTION('center_axis',(0.,1.,0.));
#1102=DIRECTION('ref_axis',(1.,0.,0.));
#1103=DIRECTION('center_axis',(0.,0.,-1.));
#1104=DIRECTION('ref_axis',(1.,0.,0.));
#1105=DIRECTION('',(0.,-1.,0.));
#1106=DIRECTION('',(1.,0.,0.));
#1107=DIRECTION('',(1.110223024625E-14,-1.,0.));
#1108=DIRECTION('center_axis',(0.,-1.,0.));
#1109=DIRECTION('ref_axis',(-1.,0.,0.));
#1110=DIRECTION('center_axis',(0.,1.,0.));
#1111=DIRECTION('ref_axis',(0.411764705882402,0.,0.911290199107605));
#1112=DIRECTION('',(-1.110223024625E-14,-1.,0.));
#1113=DIRECTION('center_axis',(-1.,0.,0.));
#1114=DIRECTION('ref_axis',(0.,0.,-1.));
#1115=DIRECTION('',(0.,0.,-1.));
#1116=DIRECTION('',(0.,-1.,-1.110223024625E-14));
#1117=DIRECTION('center_axis',(0.,-1.,0.));
#1118=DIRECTION('ref_axis',(-1.,0.,0.));
#1119=DIRECTION('center_axis',(0.,1.,0.));
#1120=DIRECTION('ref_axis',(0.829286598816017,0.,-0.558823529411712));
#1121=DIRECTION('',(0.,-1.,0.));
#1122=DIRECTION('center_axis',(0.,0.,1.));
#1123=DIRECTION('ref_axis',(-1.,0.,0.));
#1124=DIRECTION('',(-1.,0.,0.));
#1125=DIRECTION('',(0.,-1.,0.));
#1126=DIRECTION('center_axis',(1.,0.,0.));
#1127=DIRECTION('ref_axis',(0.,0.,1.));
#1128=DIRECTION('',(0.,0.,1.));
#1129=DIRECTION('center_axis',(0.,-1.,0.));
#1130=DIRECTION('ref_axis',(-1.,0.,0.));
#1131=DIRECTION('center_axis',(0.,-1.,0.));
#1132=DIRECTION('ref_axis',(-1.,0.,0.));
#1133=DIRECTION('',(-1.,0.,0.));
#1134=DIRECTION('',(-0.707106781186498,0.,-0.707106781186598));
#1135=DIRECTION('',(0.,0.,-1.));
#1136=DIRECTION('',(1.,0.,0.));
#1137=DIRECTION('center_axis',(0.,1.,0.));
#1138=DIRECTION('ref_axis',(-0.829286598816017,0.,0.558823529411712));
#1139=DIRECTION('',(0.,0.,1.));
#1140=DIRECTION('center_axis',(0.,1.,0.));
#1141=DIRECTION('ref_axis',(-0.411764705882402,0.,-0.911290199107605));
#1142=DIRECTION('center_axis',(0.,0.,1.));
#1143=DIRECTION('ref_axis',(-1.,0.,0.));
#1144=DIRECTION('',(0.,-1.,0.));
#1145=DIRECTION('',(0.,-1.,0.));
#1146=DIRECTION('center_axis',(0.,-1.,0.));
#1147=DIRECTION('ref_axis',(-1.,0.,0.));
#1148=DIRECTION('',(0.,-1.,-1.665334536938E-14));
#1149=DIRECTION('center_axis',(1.,0.,0.));
#1150=DIRECTION('ref_axis',(0.,0.,1.));
#1151=DIRECTION('',(2.22044604925E-14,-1.,3.330669073875E-14));
#1152=DIRECTION('center_axis',(0.,-1.,0.));
#1153=DIRECTION('ref_axis',(-1.,0.,0.));
#1154=DIRECTION('',(-4.440892098501E-14,-1.,-1.110223024625E-14));
#1155=DIRECTION('center_axis',(0.,0.,-1.));
#1156=DIRECTION('ref_axis',(1.,0.,0.));
#1157=DIRECTION('',(0.,-1.,0.));
#1158=DIRECTION('center_axis',(-1.,0.,0.));
#1159=DIRECTION('ref_axis',(0.,0.,-1.));
#1160=DIRECTION('',(0.,-1.,0.));
#1161=DIRECTION('center_axis',(-0.707106781186598,0.,0.707106781186498));
#1162=DIRECTION('ref_axis',(-0.707106781186498,0.,-0.707106781186598));
#1163=DIRECTION('',(0.,-1.,-5.55111512312578E-16));
#1164=DIRECTION('',(1.,0.,0.));
#1165=CARTESIAN_POINT('',(0.,0.,0.));
#1166=CARTESIAN_POINT('',(0.,0.,0.));
#1167=CARTESIAN_POINT('Origin',(0.,0.,0.));
#1168=CARTESIAN_POINT('',(0.815,0.,-0.42842718412));
#1169=CARTESIAN_POINT('',(0.715,0.,-0.52842718412));
#1170=CARTESIAN_POINT('Origin',(0.815,0.,-0.52842718412));
#1171=CARTESIAN_POINT('',(0.815,0.,0.42842718412));
#1172=CARTESIAN_POINT('',(0.815,0.,0.42842718412));
#1173=CARTESIAN_POINT('',(0.715,0.,0.52842718412));
#1174=CARTESIAN_POINT('Origin',(0.815,0.,0.52842718412));
#1175=CARTESIAN_POINT('',(-0.715,0.,0.52842718412));
#1176=CARTESIAN_POINT('',(-0.715,0.,0.52842718412));
#1177=CARTESIAN_POINT('',(-0.815,0.,0.42842718412));
#1178=CARTESIAN_POINT('Origin',(-0.815,0.,0.52842718412));
#1179=CARTESIAN_POINT('',(-0.815,0.,-0.42842718412));
#1180=CARTESIAN_POINT('',(-0.815,0.,-0.42842718412));
#1181=CARTESIAN_POINT('',(-0.715,0.,-0.52842718412));
#1182=CARTESIAN_POINT('Origin',(-0.815,0.,-0.52842718412));
#1183=CARTESIAN_POINT('',(0.715,0.,-0.52842718412));
#1184=CARTESIAN_POINT('',(-0.6840212782013,0.,-0.43));
#1185=CARTESIAN_POINT('',(-0.36,0.,-0.43));
#1186=CARTESIAN_POINT('',(-0.6840212782013,0.,-0.43));
#1187=CARTESIAN_POINT('',(-0.755,0.,-0.3700806661517));
#1188=CARTESIAN_POINT('Origin',(-0.825,0.,-0.525));
#1189=CARTESIAN_POINT('',(-0.755,0.,0.3700806661517));
#1190=CARTESIAN_POINT('',(-0.755,0.,0.3700806661517));
#1191=CARTESIAN_POINT('',(-0.6840212782013,0.,0.43));
#1192=CARTESIAN_POINT('Origin',(-0.825,0.,0.525));
#1193=CARTESIAN_POINT('',(-0.36,0.,0.43));
#1194=CARTESIAN_POINT('',(-0.36,0.,0.43));
#1195=CARTESIAN_POINT('',(-0.36,0.,-0.43));
#1196=CARTESIAN_POINT('',(0.6840212782013,0.,0.43));
#1197=CARTESIAN_POINT('',(0.56,0.,0.43));
#1198=CARTESIAN_POINT('',(0.6840212782013,0.,0.43));
#1199=CARTESIAN_POINT('',(0.755,0.,0.3700806661517));
#1200=CARTESIAN_POINT('Origin',(0.825,0.,0.525));
#1201=CARTESIAN_POINT('',(0.755,0.,-0.3700806661517));
#1202=CARTESIAN_POINT('',(0.755,0.,-0.3700806661517));
#1203=CARTESIAN_POINT('',(0.6840212782013,0.,-0.43));
#1204=CARTESIAN_POINT('Origin',(0.825,0.,-0.525));
#1205=CARTESIAN_POINT('',(0.36,0.,-0.43));
#1206=CARTESIAN_POINT('',(0.36,0.,-0.43));
#1207=CARTESIAN_POINT('',(0.36,0.,0.23));
#1208=CARTESIAN_POINT('',(0.36,0.,0.23));
#1209=CARTESIAN_POINT('',(0.56,0.,0.43));
#1210=CARTESIAN_POINT('Origin',(0.815,0.,-0.52842718412));
#1211=CARTESIAN_POINT('',(0.715,0.28,-0.52842718412));
#1212=CARTESIAN_POINT('',(0.715,0.,-0.52842718412));
#1213=CARTESIAN_POINT('',(0.815,0.28,-0.42842718412));
#1214=CARTESIAN_POINT('Origin',(0.815,0.28,-0.52842718412));
#1215=CARTESIAN_POINT('',(0.815,0.,-0.42842718412));
#1216=CARTESIAN_POINT('Origin',(0.815,0.,0.42842718412));
#1217=CARTESIAN_POINT('',(0.815,0.28,0.42842718412));
#1218=CARTESIAN_POINT('',(0.815,0.28,0.42842718412));
#1219=CARTESIAN_POINT('',(0.815,0.,0.42842718412));
#1220=CARTESIAN_POINT('Origin',(0.815,0.,0.52842718412));
#1221=CARTESIAN_POINT('',(0.715,0.28,0.52842718412));
#1222=CARTESIAN_POINT('Origin',(0.815,0.28,0.52842718412));
#1223=CARTESIAN_POINT('',(0.715,0.,0.52842718412));
#1224=CARTESIAN_POINT('Origin',(-0.715,0.,0.52842718412));
#1225=CARTESIAN_POINT('',(-0.715,0.28,0.52842718412));
#1226=CARTESIAN_POINT('',(-0.715,0.28,0.52842718412));
#1227=CARTESIAN_POINT('',(-0.715,0.,0.52842718412));
#1228=CARTESIAN_POINT('Origin',(-0.815,0.,0.52842718412));
#1229=CARTESIAN_POINT('',(-0.815,0.28,0.42842718412));
#1230=CARTESIAN_POINT('Origin',(-0.815,0.28,0.52842718412));
#1231=CARTESIAN_POINT('',(-0.815,0.,0.42842718412));
#1232=CARTESIAN_POINT('Origin',(-0.815,0.,-0.42842718412));
#1233=CARTESIAN_POINT('',(-0.815,0.28,-0.42842718412));
#1234=CARTESIAN_POINT('',(-0.815,0.28,-0.42842718412));
#1235=CARTESIAN_POINT('',(-0.815,0.,-0.42842718412));
#1236=CARTESIAN_POINT('Origin',(-0.815,0.,-0.52842718412));
#1237=CARTESIAN_POINT('',(-0.715,0.28,-0.52842718412));
#1238=CARTESIAN_POINT('Origin',(-0.815,0.28,-0.52842718412));
#1239=CARTESIAN_POINT('',(-0.715,0.,-0.52842718412));
#1240=CARTESIAN_POINT('Origin',(0.715,0.,-0.52842718412));
#1241=CARTESIAN_POINT('',(0.715,0.28,-0.52842718412));
#1242=CARTESIAN_POINT('Origin',(0.,0.28,0.));
#1243=CARTESIAN_POINT('',(-0.58,0.28,-0.48));
#1244=CARTESIAN_POINT('',(-0.78,0.28,-0.28));
#1245=CARTESIAN_POINT('Origin',(-0.58,0.28,-0.28));
#1246=CARTESIAN_POINT('',(0.58,0.28,-0.48));
#1247=CARTESIAN_POINT('',(0.58,0.28,-0.48));
#1248=CARTESIAN_POINT('',(0.78,0.28,-0.28));
#1249=CARTESIAN_POINT('Origin',(0.58,0.28,-0.28));
#1250=CARTESIAN_POINT('',(0.78,0.28,0.28));
#1251=CARTESIAN_POINT('',(0.78,0.28,0.28));
#1252=CARTESIAN_POINT('',(0.58,0.28,0.48));
#1253=CARTESIAN_POINT('Origin',(0.58,0.28,0.28));
#1254=CARTESIAN_POINT('',(-0.58,0.28,0.48));
#1255=CARTESIAN_POINT('',(-0.58,0.28,0.48));
#1256=CARTESIAN_POINT('',(-0.78,0.28,0.28));
#1257=CARTESIAN_POINT('Origin',(-0.58,0.28,0.28));
#1258=CARTESIAN_POINT('',(-0.78,0.28,-0.28));
#1259=CARTESIAN_POINT('Origin',(-0.58,0.28,-0.28));
#1260=CARTESIAN_POINT('',(-0.78,0.4,-0.28));
#1261=CARTESIAN_POINT('',(-0.78,0.28,-0.28));
#1262=CARTESIAN_POINT('',(-0.58,0.4,-0.48));
#1263=CARTESIAN_POINT('Origin',(-0.58,0.4,-0.28));
#1264=CARTESIAN_POINT('',(-0.58,0.28,-0.48));
#1265=CARTESIAN_POINT('Origin',(0.58,0.28,-0.48));
#1266=CARTESIAN_POINT('',(0.58,0.4,-0.48));
#1267=CARTESIAN_POINT('',(0.58,0.4,-0.48));
#1268=CARTESIAN_POINT('',(0.58,0.28,-0.48));
#1269=CARTESIAN_POINT('Origin',(0.58,0.28,-0.28));
#1270=CARTESIAN_POINT('',(0.78,0.4,-0.28));
#1271=CARTESIAN_POINT('Origin',(0.58,0.4,-0.28));
#1272=CARTESIAN_POINT('',(0.78,0.28,-0.28));
#1273=CARTESIAN_POINT('Origin',(0.78,0.28,0.28));
#1274=CARTESIAN_POINT('',(0.78,0.4,0.28));
#1275=CARTESIAN_POINT('',(0.78,0.4,0.28));
#1276=CARTESIAN_POINT('',(0.78,0.28,0.28));
#1277=CARTESIAN_POINT('Origin',(0.58,0.28,0.28));
#1278=CARTESIAN_POINT('',(0.58,0.4,0.48));
#1279=CARTESIAN_POINT('Origin',(0.58,0.4,0.28));
#1280=CARTESIAN_POINT('',(0.58,0.28,0.48));
#1281=CARTESIAN_POINT('Origin',(-0.58,0.28,0.48));
#1282=CARTESIAN_POINT('',(-0.58,0.4,0.48));
#1283=CARTESIAN_POINT('',(-0.58,0.4,0.48));
#1284=CARTESIAN_POINT('',(-0.58,0.28,0.48));
#1285=CARTESIAN_POINT('Origin',(-0.58,0.28,0.28));
#1286=CARTESIAN_POINT('',(-0.78,0.4,0.28));
#1287=CARTESIAN_POINT('Origin',(-0.58,0.4,0.28));
#1288=CARTESIAN_POINT('',(-0.78,0.28,0.28));
#1289=CARTESIAN_POINT('Origin',(-0.78,0.28,-0.28));
#1290=CARTESIAN_POINT('',(-0.78,0.4,-0.28));
#1291=CARTESIAN_POINT('Origin',(0.,0.4,0.));
#1292=CARTESIAN_POINT('',(0.76,0.4,-0.265));
#1293=CARTESIAN_POINT('',(0.56,0.4,-0.465));
#1294=CARTESIAN_POINT('Origin',(0.56,0.4,-0.265));
#1295=CARTESIAN_POINT('',(0.76,0.4,0.265));
#1296=CARTESIAN_POINT('',(0.76,0.4,0.265));
#1297=CARTESIAN_POINT('',(0.56,0.4,0.465));
#1298=CARTESIAN_POINT('Origin',(0.56,0.4,0.265));
#1299=CARTESIAN_POINT('',(-0.56,0.4,0.465));
#1300=CARTESIAN_POINT('',(-0.56,0.4,0.465));
#1301=CARTESIAN_POINT('',(-0.76,0.4,0.265));
#1302=CARTESIAN_POINT('Origin',(-0.56,0.4,0.265));
#1303=CARTESIAN_POINT('',(-0.76,0.4,-0.265));
#1304=CARTESIAN_POINT('',(-0.76,0.4,-0.265));
#1305=CARTESIAN_POINT('',(-0.56,0.4,-0.465));
#1306=CARTESIAN_POINT('Origin',(-0.56,0.4,-0.265));
#1307=CARTESIAN_POINT('',(0.56,0.4,-0.465));
#1308=CARTESIAN_POINT('Origin',(0.56,0.4,-0.265));
#1309=CARTESIAN_POINT('',(0.56,0.46,-0.465));
#1310=CARTESIAN_POINT('',(0.56,0.4,-0.465));
#1311=CARTESIAN_POINT('',(0.76,0.46,-0.265));
#1312=CARTESIAN_POINT('Origin',(0.56,0.46,-0.265));
#1313=CARTESIAN_POINT('',(0.76,0.4,-0.265));
#1314=CARTESIAN_POINT('Origin',(0.76,0.4,0.265));
#1315=CARTESIAN_POINT('',(0.76,0.46,0.265));
#1316=CARTESIAN_POINT('',(0.76,0.46,0.265));
#1317=CARTESIAN_POINT('',(0.76,0.4,0.265));
#1318=CARTESIAN_POINT('Origin',(0.56,0.4,0.265));
#1319=CARTESIAN_POINT('',(0.56,0.46,0.465));
#1320=CARTESIAN_POINT('Origin',(0.56,0.46,0.265));
#1321=CARTESIAN_POINT('',(0.56,0.4,0.465));
#1322=CARTESIAN_POINT('Origin',(-0.56,0.4,0.465));
#1323=CARTESIAN_POINT('',(-0.56,0.46,0.465));
#1324=CARTESIAN_POINT('',(-0.56,0.46,0.465));
#1325=CARTESIAN_POINT('',(-0.56,0.4,0.465));
#1326=CARTESIAN_POINT('Origin',(-0.56,0.4,0.265));
#1327=CARTESIAN_POINT('',(-0.76,0.46,0.265));
#1328=CARTESIAN_POINT('Origin',(-0.56,0.46,0.265));
#1329=CARTESIAN_POINT('',(-0.76,0.4,0.265));
#1330=CARTESIAN_POINT('Origin',(-0.76,0.4,-0.265));
#1331=CARTESIAN_POINT('',(-0.76,0.46,-0.265));
#1332=CARTESIAN_POINT('',(-0.76,0.46,-0.265));
#1333=CARTESIAN_POINT('',(-0.76,0.4,-0.265));
#1334=CARTESIAN_POINT('Origin',(-0.56,0.4,-0.265));
#1335=CARTESIAN_POINT('',(-0.56,0.46,-0.465));
#1336=CARTESIAN_POINT('Origin',(-0.56,0.46,-0.265));
#1337=CARTESIAN_POINT('',(-0.56,0.4,-0.465));
#1338=CARTESIAN_POINT('Origin',(0.56,0.4,-0.465));
#1339=CARTESIAN_POINT('',(0.56,0.46,-0.465));
#1340=CARTESIAN_POINT('Origin',(0.,0.46,0.));
#1341=CARTESIAN_POINT('Origin',(-0.6840212782013,0.,-0.43));
#1342=CARTESIAN_POINT('',(-0.36,-0.01,-0.43));
#1343=CARTESIAN_POINT('',(-0.36,0.,-0.43));
#1344=CARTESIAN_POINT('',(-0.6840212782013,-0.01,-0.43));
#1345=CARTESIAN_POINT('',(-0.6840212782013,-0.01,-0.43));
#1346=CARTESIAN_POINT('',(-0.6840212782013,0.,-0.43));
#1347=CARTESIAN_POINT('Origin',(-0.825,0.,-0.525));
#1348=CARTESIAN_POINT('',(-0.755,-0.01,-0.3700806661517));
#1349=CARTESIAN_POINT('Origin',(-0.825,-0.01,-0.525));
#1350=CARTESIAN_POINT('',(-0.755,0.,-0.3700806661517));
#1351=CARTESIAN_POINT('Origin',(-0.755,0.,0.3700806661517));
#1352=CARTESIAN_POINT('',(-0.755,-0.01,0.3700806661517));
#1353=CARTESIAN_POINT('',(-0.755,-0.01,0.3700806661517));
#1354=CARTESIAN_POINT('',(-0.755,0.,0.3700806661517));
#1355=CARTESIAN_POINT('Origin',(-0.825,0.,0.525));
#1356=CARTESIAN_POINT('',(-0.6840212782013,-0.01,0.43));
#1357=CARTESIAN_POINT('Origin',(-0.825,-0.01,0.525));
#1358=CARTESIAN_POINT('',(-0.6840212782013,0.,0.43));
#1359=CARTESIAN_POINT('Origin',(-0.36,0.,0.43));
#1360=CARTESIAN_POINT('',(-0.36,-0.01,0.43));
#1361=CARTESIAN_POINT('',(-0.36,-0.01,0.43));
#1362=CARTESIAN_POINT('',(-0.36,0.,0.43));
#1363=CARTESIAN_POINT('Origin',(-0.36,0.,-0.43));
#1364=CARTESIAN_POINT('',(-0.36,-0.01,-0.43));
#1365=CARTESIAN_POINT('Origin',(0.,-0.01,0.));
#1366=CARTESIAN_POINT('Origin',(0.,-0.01,0.));
#1367=CARTESIAN_POINT('',(0.6840212782013,-0.01,0.43));
#1368=CARTESIAN_POINT('',(0.56,-0.01,0.43));
#1369=CARTESIAN_POINT('',(0.6840212782013,-0.01,0.43));
#1370=CARTESIAN_POINT('',(0.36,-0.01,0.23));
#1371=CARTESIAN_POINT('',(0.56,-0.01,0.43));
#1372=CARTESIAN_POINT('',(0.36,-0.01,-0.43));
#1373=CARTESIAN_POINT('',(0.36,-0.01,0.23));
#1374=CARTESIAN_POINT('',(0.6840212782013,-0.01,-0.43));
#1375=CARTESIAN_POINT('',(0.36,-0.01,-0.43));
#1376=CARTESIAN_POINT('',(0.755,-0.01,-0.3700806661517));
#1377=CARTESIAN_POINT('Origin',(0.825,-0.01,-0.525));
#1378=CARTESIAN_POINT('',(0.755,-0.01,0.3700806661517));
#1379=CARTESIAN_POINT('',(0.755,-0.01,-0.3700806661517));
#1380=CARTESIAN_POINT('Origin',(0.825,-0.01,0.525));
#1381=CARTESIAN_POINT('Origin',(0.6840212782013,0.,0.43));
#1382=CARTESIAN_POINT('',(0.56,0.,0.43));
#1383=CARTESIAN_POINT('',(0.6840212782013,0.,0.43));
#1384=CARTESIAN_POINT('Origin',(0.825,0.,0.525));
#1385=CARTESIAN_POINT('',(0.755,0.,0.3700806661517));
#1386=CARTESIAN_POINT('Origin',(0.755,0.,-0.3700806661517));
#1387=CARTESIAN_POINT('',(0.755,0.,-0.3700806661517));
#1388=CARTESIAN_POINT('Origin',(0.825,0.,-0.525));
#1389=CARTESIAN_POINT('',(0.6840212782013,0.,-0.43));
#1390=CARTESIAN_POINT('Origin',(0.36,0.,-0.43));
#1391=CARTESIAN_POINT('',(0.36,0.,-0.43));
#1392=CARTESIAN_POINT('Origin',(0.36,0.,0.23));
#1393=CARTESIAN_POINT('',(0.36,0.,0.23));
#1394=CARTESIAN_POINT('Origin',(0.56,0.,0.43));
#1395=CARTESIAN_POINT('',(0.,0.,0.));
#1396=UNCERTAINTY_MEASURE_WITH_UNIT(LENGTH_MEASURE(0.01),#1402,
'DISTANCE_ACCURACY_VALUE',
'Maximum model space distance between geometric entities at asserted c
onnectivities');
#1397=UNCERTAINTY_MEASURE_WITH_UNIT(LENGTH_MEASURE(0.01),#1402,
'DISTANCE_ACCURACY_VALUE',
'Maximum model space distance between geometric entities at asserted c
onnectivities');
#1398=UNCERTAINTY_MEASURE_WITH_UNIT(LENGTH_MEASURE(0.01),#1402,
'DISTANCE_ACCURACY_VALUE',
'Maximum model space distance between geometric entities at asserted c
onnectivities');
#1399=(
GEOMETRIC_REPRESENTATION_CONTEXT(3)
GLOBAL_UNCERTAINTY_ASSIGNED_CONTEXT((#1396))
GLOBAL_UNIT_ASSIGNED_CONTEXT((#1402,#1404,#1405))
REPRESENTATION_CONTEXT('','3D')
);
#1400=(
GEOMETRIC_REPRESENTATION_CONTEXT(3)
GLOBAL_UNCERTAINTY_ASSIGNED_CONTEXT((#1397))
GLOBAL_UNIT_ASSIGNED_CONTEXT((#1402,#1404,#1405))
REPRESENTATION_CONTEXT('','3D')
);
#1401=(
GEOMETRIC_REPRESENTATION_CONTEXT(3)
GLOBAL_UNCERTAINTY_ASSIGNED_CONTEXT((#1398))
GLOBAL_UNIT_ASSIGNED_CONTEXT((#1402,#1404,#1405))
REPRESENTATION_CONTEXT('','3D')
);
#1402=(
LENGTH_UNIT()
NAMED_UNIT(*)
SI_UNIT(.MILLI.,.METRE.)
);
#1403=(
LENGTH_UNIT()
NAMED_UNIT(*)
SI_UNIT($,.METRE.)
);
#1404=(
NAMED_UNIT(*)
PLANE_ANGLE_UNIT()
SI_UNIT($,.RADIAN.)
);
#1405=(
NAMED_UNIT(*)
SI_UNIT($,.STERADIAN.)
SOLID_ANGLE_UNIT()
);
#1406=SHAPE_DEFINITION_REPRESENTATION(#1408,#1411);
#1407=SHAPE_DEFINITION_REPRESENTATION(#1409,#1412);
#1408=PRODUCT_DEFINITION_SHAPE('',$,#1414);
#1409=PRODUCT_DEFINITION_SHAPE('',$,#1415);
#1410=PRODUCT_DEFINITION_SHAPE($,$,#14);
#1411=SHAPE_REPRESENTATION('',(#852,#929),#1399);
#1412=SHAPE_REPRESENTATION('',(#853),#1400);
#1413=PRODUCT_DEFINITION_CONTEXT('part definition',#1421,'design');
#1414=PRODUCT_DEFINITION('FC1610AN_PKG','(Unsaved)',#1416,#1413);
#1415=PRODUCT_DEFINITION('2026-10-06-22-08-45-826',
'Crystal_SMD_1610-2Pin_1.6x1.0mm',#1417,#1413);
#1416=PRODUCT_DEFINITION_FORMATION('',$,#1423);
#1417=PRODUCT_DEFINITION_FORMATION('',$,#1424);
#1418=PRODUCT_RELATED_PRODUCT_CATEGORY('(Unsaved)','(Unsaved)',(#1423));
#1419=PRODUCT_RELATED_PRODUCT_CATEGORY(
'Crystal_SMD_1610-2Pin_1.6x1.0mm','Crystal_SMD_1610-2Pin_1.6x1.0mm',(#1424));
#1420=APPLICATION_PROTOCOL_DEFINITION('international standard',
'automotive_design',2009,#1421);
#1421=APPLICATION_CONTEXT(
'Core Data for Automotive Mechanical Design Process');
#1422=PRODUCT_CONTEXT('part definition',#1421,'mechanical');
#1423=PRODUCT('FC1610AN_PKG','(Unsaved)',$,(#1422));
#1424=PRODUCT('2026-10-06-22-08-45-826',
'Crystal_SMD_1610-2Pin_1.6x1.0mm',$,(#1422));
#1425=PRESENTATION_STYLE_ASSIGNMENT((#1429));
#1426=PRESENTATION_STYLE_ASSIGNMENT((#1430));
#1427=PRESENTATION_STYLE_ASSIGNMENT((#1431));
#1428=PRESENTATION_STYLE_ASSIGNMENT((#1432));
#1429=SURFACE_STYLE_USAGE(.BOTH.,#1433);
#1430=SURFACE_STYLE_USAGE(.BOTH.,#1434);
#1431=SURFACE_STYLE_USAGE(.BOTH.,#1435);
#1432=SURFACE_STYLE_USAGE(.BOTH.,#1436);
#1433=SURFACE_SIDE_STYLE('',(#1437));
#1434=SURFACE_SIDE_STYLE('',(#1438));
#1435=SURFACE_SIDE_STYLE('',(#1439));
#1436=SURFACE_SIDE_STYLE('',(#1440));
#1437=SURFACE_STYLE_FILL_AREA(#1441);
#1438=SURFACE_STYLE_FILL_AREA(#1442);
#1439=SURFACE_STYLE_FILL_AREA(#1443);
#1440=SURFACE_STYLE_FILL_AREA(#1444);
#1441=FILL_AREA_STYLE('Steel - Satin',(#1445));
#1442=FILL_AREA_STYLE('Opaque(128,128,128)',(#1446));
#1443=FILL_AREA_STYLE('Opaque(255,255,0)',(#1447));
#1444=FILL_AREA_STYLE('Opaque(191,191,191)',(#1448));
#1445=FILL_AREA_STYLE_COLOUR('Steel - Satin',#1449);
#1446=FILL_AREA_STYLE_COLOUR('Opaque(128,128,128)',#1450);
#1447=FILL_AREA_STYLE_COLOUR('Opaque(255,255,0)',#1451);
#1448=FILL_AREA_STYLE_COLOUR('Opaque(191,191,191)',#1452);
#1449=COLOUR_RGB('Steel - Satin',0.627450980392157,0.627450980392157,0.627450980392157);
#1450=COLOUR_RGB('Opaque(128,128,128)',0.501960784313725,0.501960784313725,
0.501960784313725);
#1451=COLOUR_RGB('Opaque(255,255,0)',1.,1.,0.);
#1452=COLOUR_RGB('Opaque(191,191,191)',0.749019607843137,0.749019607843137,
0.749019607843137);
ENDSEC;
END-ISO-10303-21;
